<svg width="222" height="50" viewBox="0 0 222 50" fill="none" xmlns="http://www.w3.org/2000/svg">
<path fill-rule="evenodd" clip-rule="evenodd" d="M24.704 40.3486C25.3978 38.4712 26.6912 35.2835 27.9197 31.0122C29.1483 26.741 30.3123 21.3858 31.0665 17.7731C31.8211 14.1604 32.1659 12.2906 32.71 10.7896C33.2541 9.28861 33.9972 8.15683 35.0749 7.17918C36.1526 6.20153 37.5649 5.37846 39.1577 4.91067C40.7505 4.44288 42.5236 4.33038 44.2912 4.80649C46.0586 5.28238 47.8206 6.34666 49.2554 7.56349C50.6905 8.78032 51.7988 10.1499 52.5006 11.8917C53.2026 13.6335 53.4984 15.7478 53.4614 17.7162C53.4245 19.6845 53.0547 21.5071 52.4632 23.3782C51.8716 25.2494 51.0582 27.1691 49.5558 29.5983C48.0536 32.0272 45.8624 34.9654 43.4995 37.2431C41.1364 39.5208 38.6017 41.1377 36.4582 42.3413C34.3149 43.5448 32.5628 44.3351 31.0159 44.8127C29.4689 45.2904 28.127 45.4558 27.1483 45.4925C26.1697 45.5294 25.5546 45.4374 25.0607 45.0607C24.5668 44.684 24.1941 44.0225 24.0549 43.408C23.9157 42.7935 24.01 42.2261 24.704 40.3486Z" fill="#3A71C1"/>
<path fill-rule="evenodd" clip-rule="evenodd" d="M44.7258 43.1854C43.0419 42.1162 41.0452 40.5314 39.5662 38.7913C38.0871 37.0511 37.1258 35.1554 36.4973 33.3328C35.8687 31.5101 35.5729 29.7604 35.6469 28.1078C35.7208 26.4551 36.1645 24.8998 36.9902 23.7456C37.8162 22.5913 39.024 21.8377 40.2071 21.4003C41.3905 20.9629 42.549 20.8414 43.6088 21.0844C44.6687 21.3274 45.63 21.9349 46.3081 22.7976C46.9859 23.6603 47.3803 24.7783 47.824 26.4429C48.2677 28.1075 48.7606 30.3191 49.2783 32.4213C49.7959 34.5236 50.3381 36.5162 50.9669 38.4483C51.5955 40.3805 52.3105 42.2516 52.7172 43.4547C53.1239 44.6576 53.2225 45.1922 52.5768 45.3988C51.9312 45.6053 50.5415 45.4834 49.161 45.1459C47.7806 44.8081 46.4094 44.2546 44.7256 43.1854H44.7258Z" fill="#DE4589" style="mix-blend-mode:multiply"/>
<path fill-rule="evenodd" clip-rule="evenodd" d="M68.9514 15.9422C73.4098 15.9205 78.7533 15.0884 78.3916 20.3874C78.0635 25.1904 73.196 24.1194 68.9855 24.2082L68.9514 15.9422ZM131.381 10.8153C130.437 11.6165 130.69 9.6665 130.561 12.1698L130.817 38.6327C132.32 39.0292 134.681 39.2634 136.081 38.4317L136.23 36.6568C137.784 39.0207 142.854 39.9987 146.43 38.5009C149.526 37.2042 152.127 33.9967 152.159 29.9807L152.152 27.3555C152.076 23.4802 149.508 20.2051 146.429 18.8565C142.873 17.2984 137.733 18.4251 136.103 20.7006L135.963 10.828L131.381 10.8153ZM63.9184 10.7936C62.9656 11.5612 63.2178 9.59637 63.0415 12.1698L63.3144 38.6633L68.0039 38.8724C69.289 38.6259 68.4082 39.2205 69.0372 38.3416L68.9868 29.0793C71.9148 29.007 72.7356 28.3695 74.1082 30.4691C79.5551 38.7984 75.6399 38.5026 84.5921 38.6501C83.3363 34.7965 80.0466 31.779 78.905 28.1923C84.6145 23.9018 85.9863 18.5641 81.5485 13.8881C77.2031 9.30991 71.144 11.0979 63.9184 10.7936ZM122.117 27.1778L122.38 38.7882L128.072 38.6272L128.089 12.1698C127.933 9.85903 128.231 11.486 127.126 10.8621L122.363 10.9466L122.358 21.8822L111.931 21.8779L111.767 10.8234L106.492 10.8017C106.05 13.9748 105.96 36.2186 106.627 38.6297L111.869 38.6935L111.923 27.1204L122.117 27.1778ZM158.222 29.6492C157.211 21.8541 168 20.9284 168.948 27.7652C170.002 35.3622 159.11 36.5021 158.222 29.6492ZM153.228 26.6385L153.343 30.9519C154.365 42.292 174.786 42.3809 174.252 28.2216C173.752 14.9349 154.456 15.2324 153.228 26.6385ZM89.2354 26.8365C90.4874 21.6935 97.5686 20.8128 99.2723 26.8586L89.2354 26.8365ZM99.5447 32.8054C94.0008 36.3491 89.7222 34.1008 89.451 30.8682L104.472 30.835C105.376 14.875 87.9344 14.9235 84.3683 24.9218C79.3405 39.0186 99.6249 43.559 103.424 34.9206L99.5447 32.8054ZM174.844 10.786C175.956 14.7284 180.467 20.1128 182.613 24.3736L174.354 38.6493L180.313 38.4589C182.522 35.8714 183.814 32.1734 185.849 29.8639C187.532 32.2274 190.045 36.1587 191.006 38.6008L197.351 38.6756C195.948 34.1684 190.818 28.7491 189.051 24.2499L196.944 10.8421L190.776 10.8553C190.01 12.2115 189.172 13.614 188.425 14.844L186.545 17.8879C185.926 18.6525 186.327 18.2126 185.73 18.6844C184.006 16.7332 182.222 13.0173 180.77 10.8425L174.844 10.786ZM140.182 23.2838C147.533 20.999 149.873 32.235 143.454 34.063C139.867 35.0843 137.064 33.2074 136.293 30.3254C135.291 26.5824 137.158 24.2235 140.182 23.2838Z" fill="#0D1A2E"/>
</svg>
