<svg width="273" height="200" viewBox="0 0 273 200" fill="none" xmlns="http://www.w3.org/2000/svg">
<path d="M244.917 186.322H226.955V186.457H244.917V186.322Z" fill="#DBDBDB"/>
<path d="M180.55 187.797H175.837V187.932H180.55V187.797Z" fill="#DBDBDB"/>
<path d="M226.412 181.289H216.004V181.424H226.412V181.289Z" fill="#DBDBDB"/>
<path d="M52.7872 182.2H29.3628V182.335H52.7872V182.2Z" fill="#DBDBDB"/>
<path d="M61.0528 182.2H57.6196V182.335H61.0528V182.2Z" fill="#DBDBDB"/>
<path d="M123.022 184.489H72.2144V184.624H123.022V184.489Z" fill="#DBDBDB"/>
<path d="M129.45 153.406H24.7311C23.9098 153.406 23.1221 153.08 22.5413 152.499C21.9606 151.918 21.6343 151.13 21.6343 150.309V3.09685C21.6414 2.28022 21.9709 1.49947 22.5509 0.924542C23.1309 0.34962 23.9145 0.0270683 24.7311 0.0270996H129.45C130.271 0.0270996 131.059 0.353376 131.639 0.934151C132.22 1.51493 132.547 2.30262 132.547 3.12396V150.309C132.547 151.13 132.22 151.918 131.639 152.499C131.059 153.08 130.271 153.406 129.45 153.406ZM24.7311 0.135572C23.9462 0.137005 23.1938 0.449456 22.6388 1.00449C22.0838 1.55953 21.7713 2.31191 21.7699 3.09685V150.309C21.7713 151.094 22.0838 151.846 22.6388 152.401C23.1938 152.957 23.9462 153.269 24.7311 153.27H129.45C130.235 153.269 130.987 152.957 131.542 152.401C132.097 151.846 132.41 151.094 132.411 150.309V3.09685C132.41 2.31191 132.097 1.55953 131.542 1.00449C130.987 0.449456 130.235 0.137005 129.45 0.135572H24.7311Z" fill="#DBDBDB"/>
<path d="M246.767 153.406H142.038C141.217 153.405 140.43 153.078 139.85 152.497C139.269 151.917 138.942 151.13 138.941 150.309V3.09685C138.949 2.28066 139.279 1.50073 139.859 0.926109C140.439 0.351489 141.222 0.0284817 142.038 0.0270996H246.767C247.582 0.0299223 248.363 0.353734 248.94 0.928351C249.518 1.50297 249.846 2.28209 249.853 3.09685V150.309C249.853 151.129 249.528 151.915 248.95 152.495C248.372 153.076 247.587 153.403 246.767 153.406ZM142.038 0.135572C141.253 0.137005 140.5 0.449456 139.945 1.00449C139.39 1.55953 139.078 2.31191 139.077 3.09685V150.309C139.078 151.094 139.39 151.846 139.945 152.401C140.5 152.957 141.253 153.269 142.038 153.27H246.767C247.552 153.269 248.304 152.957 248.86 152.401C249.415 151.846 249.727 151.094 249.728 150.309V3.09685C249.727 2.31191 249.415 1.55953 248.86 1.00449C248.304 0.449456 247.552 0.137005 246.767 0.135572H142.038Z" fill="#DBDBDB"/>
<path d="M272.09 177.595H0.910645V177.731H272.09V177.595Z" fill="#DBDBDB"/>
<path d="M234.586 46.5289H188.713V162.1H234.586V46.5289Z" fill="#DBDBDB"/>
<path d="M234.586 45.5146V163.114H243.036V45.5146H234.586Z" fill="#DBDBDB"/>
<path d="M180.67 45.5146V163.114H189.109V45.5146H180.67Z" fill="#DBDBDB"/>
<path d="M179.232 45.5146V163.114H235.6V45.5146H179.232ZM233.582 47.5431V68.63H181.261V47.5431H233.582ZM181.261 114.855V93.7683H233.582V114.855H181.261ZM233.582 116.884V137.97H181.261V116.884H233.582ZM181.272 91.7453V70.6584H233.582V91.7453H181.272ZM181.272 161.086V139.999H233.582V161.107L181.272 161.086Z" fill="#DBDBDB"/>
<path d="M215.3 68.8198H217.247V52.4569H215.3V68.8198Z" fill="#DBDBDB"/>
<path d="M217.252 68.8198H219.199V52.4569H217.252V68.8198Z" fill="#DBDBDB"/>
<path d="M211.394 68.8198H215.294V53.6067H211.394V68.8198Z" fill="#DBDBDB"/>
<path d="M206.931 68.8198H209.453V52.4569H206.931V68.8198Z" fill="#DBDBDB"/>
<path d="M209.453 68.8198H211.4V52.4569H209.453V68.8198Z" fill="#DBDBDB"/>
<path d="M192.135 68.8198H194.657V52.4569H192.135V68.8198Z" fill="#DBDBDB"/>
<path d="M194.663 68.8198H196.61V52.4569H194.663V68.8198Z" fill="#DBDBDB"/>
<path d="M200.504 68.8198H203.026V52.4569H200.504V68.8198Z" fill="#DBDBDB"/>
<path d="M203.031 68.8198H204.979V52.4569H203.031V68.8198Z" fill="#DBDBDB"/>
<path d="M188.241 68.8198H192.141V52.8474H188.241V68.8198Z" fill="#DBDBDB"/>
<path d="M186.289 68.8198H188.241V52.8474H186.289V68.8198Z" fill="#DBDBDB"/>
<path d="M197.906 68.8198H200.504V52.8474H197.906V68.8198Z" fill="#DBDBDB"/>
<path d="M196.605 68.8198H197.906V52.8474H196.605V68.8198Z" fill="#DBDBDB"/>
<path d="M203.031 68.8198H206.931V53.6067H203.031V68.8198Z" fill="#DBDBDB"/>
<path d="M225.045 68.8198H227.567V52.4569H225.045V68.8198Z" fill="#DBDBDB"/>
<path d="M227.568 68.8198H229.515V52.4569H227.568V68.8198Z" fill="#DBDBDB"/>
<path d="M221.146 68.8198H225.045V52.8474H221.146V68.8198Z" fill="#DBDBDB"/>
<path d="M219.194 68.8198H221.146V52.8474H219.194V68.8198Z" fill="#DBDBDB"/>
<path d="M230.816 68.8198H233.414V52.8474H230.816V68.8198Z" fill="#DBDBDB"/>
<path d="M229.515 68.8198H230.816V52.8474H229.515V68.8198Z" fill="white"/>
<path d="M204.404 75.3715H202.457V91.7344H204.404V75.3715Z" fill="#DBDBDB"/>
<path d="M202.456 75.3715H200.509V91.7344H202.456V75.3715Z" fill="#DBDBDB"/>
<path d="M208.308 76.5214H204.409V91.7345H208.308V76.5214Z" fill="#DBDBDB"/>
<path d="M212.777 75.3715H210.255V91.7344H212.777V75.3715Z" fill="#DBDBDB"/>
<path d="M210.261 75.3715H208.309V91.7344H210.261V75.3715Z" fill="#DBDBDB"/>
<path d="M227.567 75.3715H225.045V91.7344H227.567V75.3715Z" fill="#DBDBDB"/>
<path d="M225.046 75.3715H223.099V91.7344H225.046V75.3715Z" fill="#DBDBDB"/>
<path d="M219.199 75.3715H216.677V91.7344H219.199V75.3715Z" fill="#DBDBDB"/>
<path d="M216.672 75.3715H214.725V91.7344H216.672V75.3715Z" fill="#DBDBDB"/>
<path d="M231.467 75.762H227.567V91.7344H231.467V75.762Z" fill="#DBDBDB"/>
<path d="M233.42 75.762H231.467V91.7344H233.42V75.762Z" fill="#DBDBDB"/>
<path d="M221.797 75.762H219.199V91.7344H221.797V75.762Z" fill="#DBDBDB"/>
<path d="M223.099 75.762H221.797V91.7344H223.099V75.762Z" fill="#DBDBDB"/>
<path d="M216.677 76.5214H212.777V91.7345H216.677V76.5214Z" fill="#DBDBDB"/>
<path d="M194.663 75.3715H192.141V91.7344H194.663V75.3715Z" fill="#DBDBDB"/>
<path d="M192.136 75.3715H190.188V91.7344H192.136V75.3715Z" fill="#DBDBDB"/>
<path d="M198.557 75.762H194.657V91.7344H198.557V75.762Z" fill="#DBDBDB"/>
<path d="M200.509 75.762H198.557V91.7344H200.509V75.762Z" fill="#DBDBDB"/>
<path d="M188.886 75.762H186.289V91.7344H188.886V75.762Z" fill="#DBDBDB"/>
<path d="M190.194 75.762H188.892V91.7344H190.194V75.762Z" fill="white"/>
<path d="M204.404 98.6875H202.457V115.05H204.404V98.6875Z" fill="#DBDBDB"/>
<path d="M202.456 98.6875H200.509V115.05H202.456V98.6875Z" fill="#DBDBDB"/>
<path d="M208.308 99.8373H204.409V115.05H208.308V99.8373Z" fill="#DBDBDB"/>
<path d="M212.777 98.6875H210.255V115.05H212.777V98.6875Z" fill="#DBDBDB"/>
<path d="M210.261 98.6875H208.309V115.05H210.261V98.6875Z" fill="#DBDBDB"/>
<path d="M227.567 98.6875H225.045V115.05H227.567V98.6875Z" fill="#DBDBDB"/>
<path d="M225.046 98.6875H223.099V115.05H225.046V98.6875Z" fill="#DBDBDB"/>
<path d="M219.199 98.6875H216.677V115.05H219.199V98.6875Z" fill="#DBDBDB"/>
<path d="M216.672 98.6875H214.725V115.05H216.672V98.6875Z" fill="#DBDBDB"/>
<path d="M231.467 99.078H227.567V115.05H231.467V99.078Z" fill="#DBDBDB"/>
<path d="M233.42 99.078H231.467V115.05H233.42V99.078Z" fill="#DBDBDB"/>
<path d="M221.797 99.078H219.199V115.05H221.797V99.078Z" fill="#DBDBDB"/>
<path d="M223.099 99.078H221.797V115.05H223.099V99.078Z" fill="#DBDBDB"/>
<path d="M216.677 99.8373H212.777V115.05H216.677V99.8373Z" fill="#DBDBDB"/>
<path d="M194.663 98.6875H192.141V115.05H194.663V98.6875Z" fill="#DBDBDB"/>
<path d="M192.136 98.6875H190.188V115.05H192.136V98.6875Z" fill="#DBDBDB"/>
<path d="M198.557 99.078H194.657V115.05H198.557V99.078Z" fill="#DBDBDB"/>
<path d="M200.509 99.078H198.557V115.05H200.509V99.078Z" fill="#DBDBDB"/>
<path d="M188.886 99.078H186.289V115.05H188.886V99.078Z" fill="#DBDBDB"/>
<path d="M190.194 99.078H188.892V115.05H190.194V99.078Z" fill="white"/>
<path d="M215.3 138.366H217.247V122.004H215.3V138.366Z" fill="#DBDBDB"/>
<path d="M217.252 138.366H219.199V122.004H217.252V138.366Z" fill="#DBDBDB"/>
<path d="M211.394 137.217H215.294V122.003H211.394V137.217Z" fill="#DBDBDB"/>
<path d="M206.931 138.366H209.453V122.004H206.931V138.366Z" fill="#DBDBDB"/>
<path d="M209.453 138.366H211.4V122.004H209.453V138.366Z" fill="#DBDBDB"/>
<path d="M192.135 138.366H194.657V122.004H192.135V138.366Z" fill="#DBDBDB"/>
<path d="M194.663 138.366H196.61V122.004H194.663V138.366Z" fill="#DBDBDB"/>
<path d="M200.504 138.366H203.026V122.004H200.504V138.366Z" fill="#DBDBDB"/>
<path d="M203.031 138.366H204.979V122.004H203.031V138.366Z" fill="#DBDBDB"/>
<path d="M188.241 137.981H192.141V122.009H188.241V137.981Z" fill="#DBDBDB"/>
<path d="M186.289 137.981H188.241V122.009H186.289V137.981Z" fill="#DBDBDB"/>
<path d="M197.906 137.981H200.504V122.009H197.906V137.981Z" fill="#DBDBDB"/>
<path d="M196.605 137.981H197.906V122.009H196.605V137.981Z" fill="#DBDBDB"/>
<path d="M203.031 137.217H206.931V122.003H203.031V137.217Z" fill="#DBDBDB"/>
<path d="M225.045 138.366H227.567V122.004H225.045V138.366Z" fill="#DBDBDB"/>
<path d="M227.568 138.366H229.515V122.004H227.568V138.366Z" fill="#DBDBDB"/>
<path d="M221.146 137.981H225.045V122.009H221.146V137.981Z" fill="#DBDBDB"/>
<path d="M219.194 137.981H221.146V122.009H219.194V137.981Z" fill="#DBDBDB"/>
<path d="M230.816 137.981H233.414V122.009H230.816V137.981Z" fill="#DBDBDB"/>
<path d="M229.515 137.981H230.816V122.009H229.515V137.981Z" fill="white"/>
<path d="M204.404 145.325H202.457V161.688H204.404V145.325Z" fill="#DBDBDB"/>
<path d="M202.456 145.325H200.509V161.688H202.456V145.325Z" fill="#DBDBDB"/>
<path d="M208.308 145.325H204.409V160.538H208.308V145.325Z" fill="#DBDBDB"/>
<path d="M212.777 145.325H210.255V161.688H212.777V145.325Z" fill="#DBDBDB"/>
<path d="M210.261 145.325H208.309V161.688H210.261V145.325Z" fill="#DBDBDB"/>
<path d="M227.567 145.325H225.045V161.688H227.567V145.325Z" fill="#DBDBDB"/>
<path d="M225.046 145.325H223.099V161.688H225.046V145.325Z" fill="#DBDBDB"/>
<path d="M219.199 145.325H216.677V161.688H219.199V145.325Z" fill="#DBDBDB"/>
<path d="M216.672 145.325H214.725V161.688H216.672V145.325Z" fill="#DBDBDB"/>
<path d="M231.467 145.325H227.567V161.297H231.467V145.325Z" fill="#DBDBDB"/>
<path d="M233.42 145.325H231.467V161.297H233.42V145.325Z" fill="#DBDBDB"/>
<path d="M221.797 145.325H219.199V161.297H221.797V145.325Z" fill="#DBDBDB"/>
<path d="M223.099 145.325H221.797V161.297H223.099V145.325Z" fill="#DBDBDB"/>
<path d="M216.677 145.325H212.777V160.538H216.677V145.325Z" fill="#DBDBDB"/>
<path d="M194.663 145.325H192.141V161.688H194.663V145.325Z" fill="#DBDBDB"/>
<path d="M192.136 145.325H190.188V161.688H192.136V145.325Z" fill="#DBDBDB"/>
<path d="M198.557 145.325H194.657V161.297H198.557V145.325Z" fill="#DBDBDB"/>
<path d="M200.509 145.325H198.557V161.297H200.509V145.325Z" fill="#DBDBDB"/>
<path d="M188.886 145.325H186.289V161.297H188.886V145.325Z" fill="#DBDBDB"/>
<path d="M190.194 145.325H188.892V161.297H190.194V145.325Z" fill="white"/>
<path d="M233.469 24.7587H199.229V36.094H233.469V24.7587Z" fill="#DBDBDB"/>
<path d="M199.804 0.13562H199.262V24.7587H199.804V0.13562Z" fill="#DBDBDB"/>
<path d="M233.414 0.13562H232.872V24.7587H233.414V0.13562Z" fill="#DBDBDB"/>
<path d="M178.527 40.3514H126V172.687H178.527V40.3514Z" fill="#DBDBDB"/>
<path d="M178.527 39.1908V173.847H188.203V39.1908H178.527Z" fill="#DBDBDB"/>
<path d="M116.786 39.1908V173.847H126.467V39.1908H116.786Z" fill="#DBDBDB"/>
<path d="M115.142 39.1908V173.847H179.683V39.1908H115.142ZM177.367 41.5121V65.6525H117.463V41.5121H177.367ZM117.463 118.592V94.4463H177.367V118.592H117.463ZM177.367 120.913V145.059H117.463V120.913H177.367ZM117.463 92.125V67.9792H177.367V92.125H117.463ZM117.463 171.526V147.38H177.367V171.526H117.463Z" fill="#DBDBDB"/>
<path d="M156.437 65.8802H158.672V47.1472H156.437V65.8802Z" fill="#DBDBDB"/>
<path d="M158.666 65.8802H160.901V47.1472H158.666V65.8802Z" fill="#DBDBDB"/>
<path d="M151.974 65.8749H156.438V48.4543H151.974V65.8749Z" fill="#DBDBDB"/>
<path d="M146.859 65.8802H149.745V47.1472H146.859V65.8802Z" fill="#DBDBDB"/>
<path d="M149.739 65.8802H151.974V47.1472H149.739V65.8802Z" fill="#DBDBDB"/>
<path d="M129.921 65.8802H132.807V47.1472H129.921V65.8802Z" fill="#DBDBDB"/>
<path d="M132.807 65.8802H135.041V47.1472H132.807V65.8802Z" fill="#DBDBDB"/>
<path d="M139.505 65.8802H142.39V47.1472H139.505V65.8802Z" fill="#DBDBDB"/>
<path d="M142.39 65.8802H144.625V47.1472H142.39V65.8802Z" fill="#DBDBDB"/>
<path d="M125.458 65.8802H129.921V47.5865H125.458V65.8802Z" fill="#DBDBDB"/>
<path d="M123.223 65.8802H125.458V47.5865H123.223V65.8802Z" fill="#DBDBDB"/>
<path d="M136.527 65.8802H139.505V47.5865H136.527V65.8802Z" fill="#DBDBDB"/>
<path d="M135.041 65.8802H136.527V47.5865H135.041V65.8802Z" fill="#DBDBDB"/>
<path d="M142.39 65.8749H146.854V48.4543H142.39V65.8749Z" fill="#DBDBDB"/>
<path d="M167.604 65.8802H170.49V47.1472H167.604V65.8802Z" fill="#DBDBDB"/>
<path d="M170.484 65.8802H172.719V47.1472H170.484V65.8802Z" fill="#DBDBDB"/>
<path d="M163.136 65.8802H167.599V47.5865H163.136V65.8802Z" fill="#DBDBDB"/>
<path d="M160.906 65.8802H163.141V47.5865H160.906V65.8802Z" fill="#DBDBDB"/>
<path d="M174.21 65.8802H177.188V47.5865H174.21V65.8802Z" fill="#DBDBDB"/>
<path d="M172.719 65.8802H174.205V47.5865H172.719V65.8802Z" fill="white"/>
<path d="M143.974 73.3756H141.739V92.1087H143.974V73.3756Z" fill="#DBDBDB"/>
<path d="M141.739 73.3756H139.505V92.1087H141.739V73.3756Z" fill="#DBDBDB"/>
<path d="M148.432 74.6936H143.968V92.1141H148.432V74.6936Z" fill="#DBDBDB"/>
<path d="M153.552 73.3756H150.667V92.1087H153.552V73.3756Z" fill="#DBDBDB"/>
<path d="M150.672 73.3756H148.438V92.1087H150.672V73.3756Z" fill="#DBDBDB"/>
<path d="M170.484 73.3756H167.599V92.1087H170.484V73.3756Z" fill="#DBDBDB"/>
<path d="M167.605 73.3756H165.37V92.1087H167.605V73.3756Z" fill="#DBDBDB"/>
<path d="M160.901 73.3756H158.016V92.1087H160.901V73.3756Z" fill="#DBDBDB"/>
<path d="M158.021 73.3756H155.787V92.1087H158.021V73.3756Z" fill="#DBDBDB"/>
<path d="M174.948 73.8203H170.484V92.1141H174.948V73.8203Z" fill="#DBDBDB"/>
<path d="M177.188 73.8203H174.954V92.1141H177.188V73.8203Z" fill="#DBDBDB"/>
<path d="M163.878 73.8203H160.901V92.1141H163.878V73.8203Z" fill="#DBDBDB"/>
<path d="M165.364 73.8203H163.878V92.1141H165.364V73.8203Z" fill="#DBDBDB"/>
<path d="M158.015 74.6936H153.552V92.1141H158.015V74.6936Z" fill="#DBDBDB"/>
<path d="M132.807 73.3756H129.921V92.1087H132.807V73.3756Z" fill="#DBDBDB"/>
<path d="M129.922 73.3756H127.687V92.1087H129.922V73.3756Z" fill="#DBDBDB"/>
<path d="M137.27 73.8203H132.807V92.1141H137.27V73.8203Z" fill="#DBDBDB"/>
<path d="M139.505 73.8203H137.271V92.1141H139.505V73.8203Z" fill="#DBDBDB"/>
<path d="M126.201 73.8203H123.223V92.1141H126.201V73.8203Z" fill="#DBDBDB"/>
<path d="M127.687 73.8203H126.201V92.1141H127.687V73.8203Z" fill="white"/>
<path d="M143.974 100.076H141.739V118.809H143.974V100.076Z" fill="#DBDBDB"/>
<path d="M141.739 100.076H139.505V118.809H141.739V100.076Z" fill="#DBDBDB"/>
<path d="M148.432 101.394H143.968V118.814H148.432V101.394Z" fill="#DBDBDB"/>
<path d="M153.552 100.076H150.667V118.809H153.552V100.076Z" fill="#DBDBDB"/>
<path d="M150.672 100.076H148.438V118.809H150.672V100.076Z" fill="#DBDBDB"/>
<path d="M170.484 100.076H167.599V118.809H170.484V100.076Z" fill="#DBDBDB"/>
<path d="M167.605 100.076H165.37V118.809H167.605V100.076Z" fill="#DBDBDB"/>
<path d="M160.901 100.076H158.016V118.809H160.901V100.076Z" fill="#DBDBDB"/>
<path d="M158.021 100.076H155.787V118.809H158.021V100.076Z" fill="#DBDBDB"/>
<path d="M174.948 100.521H170.484V118.814H174.948V100.521Z" fill="#DBDBDB"/>
<path d="M177.188 100.521H174.954V118.814H177.188V100.521Z" fill="#DBDBDB"/>
<path d="M163.878 100.521H160.901V118.814H163.878V100.521Z" fill="#DBDBDB"/>
<path d="M165.364 100.521H163.878V118.814H165.364V100.521Z" fill="#DBDBDB"/>
<path d="M158.015 101.394H153.552V118.814H158.015V101.394Z" fill="#DBDBDB"/>
<path d="M132.807 100.076H129.921V118.809H132.807V100.076Z" fill="#DBDBDB"/>
<path d="M129.922 100.076H127.687V118.809H129.922V100.076Z" fill="#DBDBDB"/>
<path d="M137.27 100.521H132.807V118.814H137.27V100.521Z" fill="#DBDBDB"/>
<path d="M139.505 100.521H137.271V118.814H139.505V100.521Z" fill="#DBDBDB"/>
<path d="M126.201 100.521H123.223V118.814H126.201V100.521Z" fill="#DBDBDB"/>
<path d="M127.687 100.521H126.201V118.814H127.687V100.521Z" fill="white"/>
<path d="M156.437 145.509H158.672V126.776H156.437V145.509Z" fill="#DBDBDB"/>
<path d="M158.666 145.509H160.901V126.776H158.666V145.509Z" fill="#DBDBDB"/>
<path d="M151.974 144.197H156.438V126.776H151.974V144.197Z" fill="#DBDBDB"/>
<path d="M146.859 145.509H149.745V126.776H146.859V145.509Z" fill="#DBDBDB"/>
<path d="M149.739 145.509H151.974V126.776H149.739V145.509Z" fill="#DBDBDB"/>
<path d="M129.921 145.509H132.807V126.776H129.921V145.509Z" fill="#DBDBDB"/>
<path d="M132.807 145.509H135.041V126.776H132.807V145.509Z" fill="#DBDBDB"/>
<path d="M139.505 145.509H142.39V126.776H139.505V145.509Z" fill="#DBDBDB"/>
<path d="M142.39 145.509H144.625V126.776H142.39V145.509Z" fill="#DBDBDB"/>
<path d="M125.458 145.07H129.921V126.776H125.458V145.07Z" fill="#DBDBDB"/>
<path d="M123.223 145.07H125.458V126.776H123.223V145.07Z" fill="#DBDBDB"/>
<path d="M136.527 145.07H139.505V126.776H136.527V145.07Z" fill="#DBDBDB"/>
<path d="M135.041 145.07H136.527V126.776H135.041V145.07Z" fill="#DBDBDB"/>
<path d="M142.39 144.197H146.854V126.776H142.39V144.197Z" fill="#DBDBDB"/>
<path d="M167.604 145.509H170.49V126.776H167.604V145.509Z" fill="#DBDBDB"/>
<path d="M170.484 145.509H172.719V126.776H170.484V145.509Z" fill="#DBDBDB"/>
<path d="M163.136 145.07H167.599V126.776H163.136V145.07Z" fill="#DBDBDB"/>
<path d="M160.906 145.07H163.141V126.776H160.906V145.07Z" fill="#DBDBDB"/>
<path d="M174.21 145.07H177.188V126.776H174.21V145.07Z" fill="#DBDBDB"/>
<path d="M172.719 145.07H174.205V126.776H172.719V145.07Z" fill="white"/>
<path d="M143.974 153.477H141.739V172.21H143.974V153.477Z" fill="#DBDBDB"/>
<path d="M141.739 153.477H139.505V172.21H141.739V153.477Z" fill="#DBDBDB"/>
<path d="M148.432 153.477H143.968V170.897H148.432V153.477Z" fill="#DBDBDB"/>
<path d="M153.552 153.477H150.667V172.21H153.552V153.477Z" fill="#DBDBDB"/>
<path d="M150.672 153.477H148.438V172.21H150.672V153.477Z" fill="#DBDBDB"/>
<path d="M170.484 153.477H167.599V172.21H170.484V153.477Z" fill="#DBDBDB"/>
<path d="M167.605 153.477H165.37V172.21H167.605V153.477Z" fill="#DBDBDB"/>
<path d="M160.901 153.477H158.016V172.21H160.901V153.477Z" fill="#DBDBDB"/>
<path d="M158.021 153.477H155.787V172.21H158.021V153.477Z" fill="#DBDBDB"/>
<path d="M174.948 153.477H170.484V171.77H174.948V153.477Z" fill="#DBDBDB"/>
<path d="M177.188 153.477H174.954V171.77H177.188V153.477Z" fill="#DBDBDB"/>
<path d="M163.878 153.477H160.901V171.77H163.878V153.477Z" fill="#DBDBDB"/>
<path d="M165.364 153.477H163.878V171.77H165.364V153.477Z" fill="#DBDBDB"/>
<path d="M158.015 153.477H153.552V170.897H158.015V153.477Z" fill="#DBDBDB"/>
<path d="M132.807 153.477H129.921V172.21H132.807V153.477Z" fill="#DBDBDB"/>
<path d="M129.922 153.477H127.687V172.21H129.922V153.477Z" fill="#DBDBDB"/>
<path d="M137.27 153.477H132.807V171.77H137.27V153.477Z" fill="#DBDBDB"/>
<path d="M139.505 153.477H137.271V171.77H139.505V153.477Z" fill="#DBDBDB"/>
<path d="M126.201 153.477H123.223V171.77H126.201V153.477Z" fill="#DBDBDB"/>
<path d="M127.687 153.477H126.201V171.77H127.687V153.477Z" fill="white"/>
<path d="M169.085 15.4247H129.878V28.4033H169.085V15.4247Z" fill="#DBDBDB"/>
<path d="M130.496 0.13562H129.954V15.4193H130.496V0.13562Z" fill="#DBDBDB"/>
<path d="M169.02 0H168.478V15.4192H169.02V0Z" fill="#DBDBDB"/>
<path d="M133.886 200C191.963 200 239.044 197.251 239.044 193.861C239.044 190.47 191.963 187.721 133.886 187.721C75.8093 187.721 28.7285 190.47 28.7285 193.861C28.7285 197.251 75.8093 200 133.886 200Z" fill="#DBDBDB"/>
<path d="M226.283 155.001H229.325L234.548 190.471C234.678 191.382 233.973 191.74 233.057 191.74C232.308 191.74 231.679 191.648 231.565 190.91L226.283 155.001Z" fill="#0D1A2E"/>
<path opacity="0.2" d="M226.283 155.001H229.325L234.548 190.471C234.678 191.382 233.973 191.74 233.057 191.74C232.308 191.74 231.679 191.648 231.565 190.91L226.283 155.001Z" fill="white"/>
<path d="M216.64 155.001H219.682L222.302 190.568C222.367 191.447 221.673 191.74 220.789 191.74C219.997 191.74 219.335 191.583 219.276 190.791L216.64 155.001Z" fill="#0D1A2E"/>
<path opacity="0.2" d="M216.64 155.001H219.682L222.302 190.568C222.367 191.447 221.673 191.74 220.789 191.74C219.997 191.74 219.335 191.583 219.276 190.791L216.64 155.001Z" fill="white"/>
<path d="M209.426 155.001H206.384L203.753 190.568C203.688 191.447 204.388 191.74 205.266 191.74C206.064 191.74 206.72 191.583 206.78 190.791L209.426 155.001Z" fill="#0D1A2E"/>
<path opacity="0.2" d="M209.426 155.001H206.384L203.753 190.568C203.688 191.447 204.388 191.74 205.266 191.74C206.064 191.74 206.72 191.583 206.78 190.791L209.426 155.001Z" fill="white"/>
<path d="M199.788 155.001H196.746L191.523 190.471C191.387 191.382 192.092 191.74 193.009 191.74C193.757 191.74 194.392 191.648 194.5 190.91L199.788 155.001Z" fill="#0D1A2E"/>
<path opacity="0.2" d="M199.788 155.001H196.746L191.523 190.471C191.387 191.382 192.092 191.74 193.009 191.74C193.757 191.74 194.392 191.648 194.5 190.91L199.788 155.001Z" fill="white"/>
<path d="M221.184 114.069L208.504 152.75H236.24L241.035 111.997H224.048C223.413 111.996 222.794 112.196 222.28 112.568C221.766 112.94 221.382 113.466 221.184 114.069Z" fill="#0D1A2E"/>
<path opacity="0.2" d="M221.184 114.069L208.504 152.75H236.24L241.035 111.997H224.048C223.413 111.996 222.794 112.196 222.28 112.568C221.766 112.94 221.382 113.466 221.184 114.069Z" fill="white"/>
<path d="M216.84 149.647H189.37C189.068 149.647 188.769 149.707 188.491 149.823C188.212 149.938 187.959 150.108 187.746 150.321C187.533 150.535 187.364 150.788 187.249 151.067C187.134 151.346 187.075 151.645 187.076 151.947V153.547C187.075 153.849 187.134 154.148 187.249 154.427C187.364 154.706 187.533 154.959 187.746 155.173C187.959 155.386 188.212 155.556 188.491 155.671C188.769 155.787 189.068 155.847 189.37 155.847H216.84V149.647Z" fill="#0D1A2E"/>
<path opacity="0.1" d="M216.84 149.647H189.37C189.068 149.647 188.769 149.707 188.491 149.823C188.212 149.938 187.959 150.108 187.746 150.321C187.533 150.535 187.364 150.788 187.249 151.067C187.134 151.346 187.075 151.645 187.076 151.947V153.547C187.075 153.849 187.134 154.148 187.249 154.427C187.364 154.706 187.533 154.959 187.746 155.173C187.959 155.386 188.212 155.556 188.491 155.671C188.769 155.787 189.068 155.847 189.37 155.847H216.84V149.647Z" fill="white"/>
<path d="M238.719 114.259L235.139 145.33C235.006 146.522 234.438 147.623 233.545 148.424C232.652 149.224 231.495 149.667 230.296 149.669H211.151C210.849 149.669 210.55 149.729 210.271 149.844C209.993 149.96 209.74 150.129 209.526 150.343C209.313 150.557 209.145 150.81 209.03 151.089C208.915 151.368 208.856 151.667 208.856 151.969V153.569C208.856 153.87 208.915 154.169 209.03 154.448C209.145 154.727 209.313 154.981 209.526 155.194C209.74 155.408 209.993 155.578 210.271 155.693C210.55 155.809 210.849 155.868 211.151 155.868H234.331C235.541 155.868 236.708 155.417 237.605 154.604C238.502 153.791 239.065 152.674 239.185 151.47L243.085 112.019H241.257C240.633 112.018 240.031 112.245 239.564 112.658C239.096 113.07 238.795 113.64 238.719 114.259Z" fill="#0D1A2E"/>
<path opacity="0.3" d="M238.719 114.259L235.139 145.33C235.006 146.522 234.438 147.623 233.545 148.424C232.652 149.224 231.495 149.667 230.296 149.669H211.151C210.849 149.669 210.55 149.729 210.271 149.844C209.993 149.96 209.74 150.129 209.526 150.343C209.313 150.557 209.145 150.81 209.03 151.089C208.915 151.368 208.856 151.667 208.856 151.969V153.569C208.856 153.87 208.915 154.169 209.03 154.448C209.145 154.727 209.313 154.981 209.526 155.194C209.74 155.408 209.993 155.578 210.271 155.693C210.55 155.809 210.849 155.868 211.151 155.868H234.331C235.541 155.868 236.708 155.417 237.605 154.604C238.502 153.791 239.065 152.674 239.185 151.47L243.085 112.019H241.257C240.633 112.018 240.031 112.245 239.564 112.658C239.096 113.07 238.795 113.64 238.719 114.259Z" fill="white"/>
<path d="M194.137 179.618L194.528 186.875L190.465 187.189L189.451 180.296L194.137 179.618Z" fill="#FF8B7B"/>
<path d="M188.708 187.596C188.271 187.671 187.822 187.584 187.444 187.352C187.399 187.288 187.375 187.211 187.375 187.133C187.375 187.054 187.399 186.977 187.444 186.913C187.51 186.793 187.618 186.702 187.748 186.658C188.442 186.419 189.972 187.168 190.042 187.2C190.061 187.209 190.076 187.222 190.086 187.24C190.096 187.258 190.099 187.278 190.096 187.298C190.094 187.318 190.085 187.338 190.072 187.353C190.058 187.369 190.04 187.38 190.02 187.385C189.59 187.494 189.151 187.565 188.708 187.596ZM187.987 186.815C187.922 186.815 187.858 186.826 187.797 186.848C187.755 186.858 187.716 186.877 187.683 186.904C187.65 186.932 187.624 186.966 187.607 187.005C187.542 187.13 187.569 187.19 187.607 187.222C187.819 187.488 188.887 187.428 189.668 187.276C189.143 187.016 188.572 186.859 187.987 186.815Z" fill="#DE4589"/>
<path d="M189.983 187.39C189.969 187.396 189.953 187.396 189.939 187.39C189.397 187.2 188.345 186.343 188.404 185.861C188.404 185.747 188.486 185.6 188.757 185.557C188.948 185.532 189.142 185.58 189.299 185.693C189.869 186.099 190.053 187.238 190.064 187.287C190.066 187.305 190.064 187.324 190.057 187.341C190.051 187.358 190.04 187.373 190.026 187.385C190.012 187.39 189.997 187.391 189.983 187.39ZM188.838 185.763H188.779C188.6 185.79 188.594 185.861 188.589 185.888C188.589 186.175 189.294 186.853 189.836 187.13C189.756 186.652 189.53 186.211 189.191 185.866C189.089 185.792 188.964 185.755 188.838 185.763Z" fill="#DE4589"/>
<path d="M190.395 186.772L195.016 186.479C195.1 186.475 195.184 186.499 195.253 186.548C195.322 186.597 195.372 186.669 195.395 186.75L196.48 190.455C196.503 190.533 196.511 190.614 196.503 190.695C196.494 190.776 196.47 190.855 196.431 190.926C196.392 190.998 196.34 191.061 196.276 191.112C196.213 191.163 196.14 191.202 196.062 191.225C196.02 191.239 195.976 191.248 195.932 191.252C194.267 191.328 192.776 191.328 190.704 191.463C188.258 191.621 188.898 191.87 186.023 192.092C184.288 192.228 183.854 190.276 184.575 190.135C187.916 189.495 188.198 188.459 189.418 187.173C189.685 186.927 190.032 186.785 190.395 186.772Z" fill="#0D1A2E"/>
<path opacity="0.2" d="M189.451 180.296L189.956 183.735L194.343 183.415L194.137 179.618L189.451 180.296Z" fill="#0D1A2E"/>
<path d="M211.08 134.293C211.08 134.293 188.16 137.634 185.085 145.141C182.01 152.647 188.67 180.746 188.67 180.746L194.94 180.204C194.94 180.204 194.891 162.93 193.622 150.065L211.08 149.214L227.102 132.905L211.08 134.293Z" fill="#DE4589"/>
<path opacity="0.5" d="M211.08 134.293C211.08 134.293 188.16 137.634 185.085 145.141C182.01 152.647 188.67 180.746 188.67 180.746L194.94 180.204C194.94 180.204 194.891 162.93 193.622 150.065L211.08 149.214L227.102 132.905L211.08 134.293Z" fill="#0D1A2E"/>
<path d="M188.242 180.394L195.336 179.618V181.565L188.632 182.151L188.242 180.394Z" fill="#DE4589"/>
<path d="M209.713 180.432L210.104 187.694L206.042 188.003L205.027 181.11L209.713 180.432Z" fill="#FF8B7B"/>
<path d="M204.295 188.41C203.857 188.487 203.405 188.4 203.026 188.166C202.982 188.101 202.958 188.025 202.958 187.946C202.958 187.868 202.982 187.791 203.026 187.726C203.09 187.607 203.197 187.516 203.325 187.472C204.019 187.233 205.548 187.987 205.619 188.014C205.638 188.023 205.653 188.038 205.663 188.056C205.673 188.075 205.676 188.096 205.673 188.117C205.669 188.137 205.66 188.155 205.647 188.171C205.633 188.186 205.616 188.197 205.597 188.204C205.17 188.308 204.734 188.377 204.295 188.41ZM203.569 187.629C203.504 187.63 203.439 187.643 203.379 187.667C203.338 187.676 203.299 187.694 203.266 187.72C203.233 187.747 203.207 187.78 203.189 187.819C203.124 187.949 203.151 188.008 203.189 188.036C203.401 188.301 204.469 188.242 205.255 188.095C204.726 187.834 204.152 187.676 203.563 187.629H203.569Z" fill="#DE4589"/>
<path d="M205.559 188.225H205.516C204.973 188.036 203.921 187.179 203.981 186.701C203.981 186.582 204.062 186.441 204.339 186.392C204.438 186.376 204.539 186.38 204.637 186.403C204.735 186.427 204.827 186.469 204.908 186.528C205.451 186.94 205.657 188.074 205.668 188.128C205.67 188.145 205.667 188.163 205.661 188.179C205.654 188.195 205.643 188.209 205.63 188.22C205.607 188.23 205.583 188.232 205.559 188.225ZM204.415 186.598H204.361C204.176 186.625 204.171 186.701 204.165 186.728C204.165 187.016 204.87 187.688 205.413 187.97C205.336 187.493 205.112 187.051 204.773 186.707C204.669 186.631 204.543 186.595 204.415 186.604V186.598Z" fill="#DE4589"/>
<path d="M205.971 187.586L210.592 187.293C210.677 187.288 210.761 187.313 210.829 187.362C210.898 187.411 210.949 187.482 210.972 187.564L212.057 191.268C212.104 191.426 212.086 191.597 212.008 191.742C211.93 191.888 211.797 191.996 211.639 192.044H211.509C209.844 192.12 208.358 192.12 206.28 192.255C203.834 192.412 204.474 192.667 201.6 192.89C199.864 193.02 199.431 191.067 200.152 190.926C203.493 190.292 203.775 189.251 205.001 187.965C205.268 187.726 205.613 187.591 205.971 187.586Z" fill="#0D1A2E"/>
<path opacity="0.2" d="M209.93 184.461L209.713 180.432L205.027 181.11L205.564 184.76L209.93 184.461Z" fill="#0D1A2E"/>
<path d="M233.084 133.952C233.084 133.952 237.862 149.496 228.3 149.837C218.739 150.179 206.091 149.837 206.091 149.837C206.091 149.837 210.549 162.095 210.565 181.782L204.556 182.292C204.556 182.292 194.452 149.002 196.871 144.544C200.125 138.578 222.66 133.952 222.66 133.952H233.084Z" fill="#DE4589"/>
<path opacity="0.4" d="M233.084 133.952C233.084 133.952 237.862 149.496 228.3 149.837C218.739 150.179 206.091 149.837 206.091 149.837C206.091 149.837 210.549 162.095 210.565 181.782L204.556 182.292C204.556 182.292 194.452 149.002 196.871 144.544C200.125 138.578 222.66 133.952 222.66 133.952H233.084Z" fill="#0D1A2E"/>
<path d="M203.856 181.484L204.339 183.404L211.048 182.84V180.99L203.856 181.484Z" fill="#DE4589"/>
<path d="M218.044 96.7892C218.044 96.7892 212.197 95.5147 209.502 104.382C207.875 109.67 208.168 116.905 208.168 116.905L198.497 117.095L197.299 121.022C197.299 121.022 209.773 121.19 213.027 120.767C216.281 120.344 218.044 96.7892 218.044 96.7892Z" fill="#DE4589"/>
<path d="M211.557 134.147C211.557 134.147 208.482 95.5201 217.881 95.5201H231.375C234.629 95.5201 236.5 99.9621 235.817 107.994C235.134 116.027 234.45 135.839 234.45 135.839L211.557 134.147Z" fill="#DE4589"/>
<path opacity="0.2" d="M211.557 134.147C211.557 134.147 208.482 95.5201 217.881 95.5201H231.375C234.629 95.5201 236.5 99.9621 235.817 107.994C235.134 116.027 234.45 135.839 234.45 135.839L211.557 134.147Z" fill="white"/>
<path d="M196.854 116.255L197.939 116.396C198.176 116.426 198.402 116.51 198.602 116.641C198.802 116.771 198.97 116.945 199.094 117.149L200.618 119.699C200.741 119.9 200.822 120.125 200.857 120.359C200.891 120.593 200.878 120.831 200.819 121.06L200.575 122.02C200.511 122.27 200.395 122.503 200.233 122.703C200.071 122.904 199.868 123.067 199.637 123.182C199.407 123.297 199.154 123.361 198.896 123.369C198.639 123.377 198.382 123.329 198.145 123.229L196.36 122.475C196.036 122.34 195.743 122.139 195.499 121.886C195.255 121.634 195.064 121.334 194.939 121.006L194.495 119.85C194.348 119.444 194.348 118.999 194.495 118.592L194.869 117.507C195.004 117.101 195.275 116.754 195.637 116.526C195.999 116.297 196.429 116.201 196.854 116.255Z" fill="#CE7A63"/>
<path d="M197.646 116.938L200.976 124.623L206.101 126.586L212.935 123.175L212.897 115.403L209.377 114.888L206.465 116.314L204.886 117.833L202.815 115.208L200.125 114.888L198.394 115.658L197.646 116.938Z" fill="#DE4589"/>
<path opacity="0.1" d="M197.646 116.938L200.976 124.623L206.101 126.586L212.935 123.175L212.897 115.403L209.377 114.888L206.465 116.314L204.886 117.833L202.815 115.208L200.125 114.888L198.394 115.658L197.646 116.938Z" fill="#0D1A2E"/>
<path opacity="0.2" d="M207.045 126.115L205.982 116.775L204.886 117.833L203.455 116.021L205.185 126.239L206.101 126.587L207.045 126.115Z" fill="#0D1A2E"/>
<path d="M197.391 115.658C197.391 115.658 202.088 110.874 204.984 116.938C204.984 116.938 209.865 111.216 212.892 115.403L212.501 116.938C212.501 116.938 210.928 113.141 204.881 118.76C204.881 118.76 201.828 112.838 197.641 116.938L197.391 115.658Z" fill="#DE4589"/>
<path opacity="0.8" d="M197.391 115.658C197.391 115.658 202.088 110.874 204.984 116.938C204.984 116.938 209.865 111.216 212.892 115.403L212.501 116.938C212.501 116.938 210.928 113.141 204.881 118.76C204.881 118.76 201.828 112.838 197.641 116.938L197.391 115.658Z" fill="white"/>
<path d="M221.743 117.616H216.585L215.229 116.358C214.943 116.089 214.597 115.894 214.219 115.789C213.841 115.685 213.443 115.673 213.06 115.756L212.431 115.886C212.01 115.973 211.573 115.945 211.167 115.804C210.685 115.643 210.166 115.636 209.68 115.784C209.194 115.931 208.766 116.227 208.455 116.629L208.358 116.759C208.05 117.159 207.875 117.645 207.857 118.15C207.838 118.654 207.977 119.152 208.255 119.574L209.556 121.553C209.833 121.985 210.239 122.318 210.716 122.506C211.193 122.694 211.717 122.727 212.214 122.6L215.853 121.678L222.063 122.513L221.743 117.616Z" fill="#CE7A63"/>
<path d="M230.519 104.914C230.117 102.489 228.468 95.5201 232.91 95.5201C237.352 95.5201 238.079 102.354 238.334 106.579C238.589 110.804 239.375 123.728 236.419 123.739C233.464 123.75 220.783 122.725 220.783 122.725L220.913 117.084L232.059 116.189C232.059 116.189 231.028 107.989 230.519 104.914Z" fill="#DE4589"/>
<path opacity="0.3" d="M230.519 104.914C230.117 102.489 228.468 95.5201 232.91 95.5201C237.352 95.5201 238.079 102.354 238.334 106.579C238.589 110.804 239.375 123.728 236.419 123.739C233.464 123.75 220.783 122.725 220.783 122.725L220.913 117.084L232.059 116.189C232.059 116.189 231.028 107.989 230.519 104.914Z" fill="white"/>
<path d="M218.728 95.7262L218.809 96.0733L221.629 97.8685L227.107 95.7967L227.177 95.7479C225.062 93.611 225.854 89.6898 226.559 86.5278L223.929 88.6973L220.344 91.6857C220.455 92.1665 220.536 92.6537 220.588 93.1446C220.756 94.7066 220.327 95.2381 218.728 95.7262Z" fill="#CE7A63"/>
<path d="M215.473 80.2148C215.473 80.2148 212.42 82.265 213.174 83.5178C214.394 85.5408 216.119 82.1402 216.119 82.1402L215.473 80.2148Z" fill="#0D1A2E"/>
<path opacity="0.2" d="M225.214 91.5934C225.31 90.9654 225.329 90.3277 225.268 89.6952L220.495 92.4721C220.528 92.6999 220.56 92.9276 220.588 93.1609C220.67 93.6311 220.631 94.1147 220.474 94.5656C222.231 94.3974 224.693 93.3127 225.214 91.5934Z" fill="#0D1A2E"/>
<path d="M226.293 81.6738C226.836 85.9801 227.378 88.4587 225.637 91.0999C223.05 95.0646 217.502 94.2402 215.696 90.2105C214.068 86.593 213.483 80.166 217.285 77.5898C218.101 77.013 219.055 76.6598 220.05 76.5653C221.045 76.4708 222.048 76.6383 222.959 77.0512C223.87 77.464 224.656 78.1078 225.241 78.9187C225.826 79.7296 226.189 80.6794 226.293 81.6738Z" fill="#CE7A63"/>
<path d="M220.073 85.3889C220.138 85.7414 220.008 86.056 219.785 86.1048C219.563 86.1536 219.324 85.915 219.243 85.5624C219.162 85.2099 219.308 84.9007 219.53 84.8519C219.753 84.8031 220.024 85.0472 220.073 85.3889Z" fill="#0D1A2E"/>
<path d="M216.037 86.159C216.102 86.5007 215.972 86.8261 215.744 86.8695C215.517 86.9129 215.289 86.6796 215.202 86.3271C215.115 85.9746 215.267 85.66 215.489 85.6112C215.712 85.5624 215.972 85.8119 216.037 86.159Z" fill="#0D1A2E"/>
<path d="M217.616 85.0201C217.426 86.0019 217.126 86.959 216.721 87.8729C216.958 87.9775 217.215 88.0315 217.475 88.0315C217.734 88.0315 217.991 87.9775 218.228 87.8729L217.616 85.0201Z" fill="#BA4D3C"/>
<path d="M220.968 82.8453C221.001 82.8453 221.034 82.8338 221.06 82.8127C221.103 82.783 221.134 82.7373 221.144 82.6856C221.154 82.6338 221.143 82.5801 221.114 82.5361C220.931 82.2736 220.688 82.0588 220.405 81.9097C220.122 81.7606 219.807 81.6816 219.487 81.6792C219.433 81.6834 219.383 81.7084 219.348 81.749C219.312 81.7895 219.294 81.8423 219.297 81.8961C219.299 81.9232 219.305 81.9498 219.317 81.9742C219.329 81.9987 219.345 82.0206 219.365 82.0388C219.385 82.0569 219.409 82.0709 219.434 82.0799C219.46 82.089 219.487 82.0929 219.514 82.0914C219.769 82.0886 220.021 82.149 220.248 82.2673C220.474 82.3856 220.667 82.5581 220.81 82.7693C220.828 82.7944 220.852 82.8145 220.879 82.8278C220.907 82.8411 220.937 82.8471 220.968 82.8453Z" fill="#0D1A2E"/>
<path d="M214.155 83.7347C214.189 83.732 214.221 83.7213 214.249 83.7033C214.278 83.6854 214.301 83.6607 214.318 83.6316C214.442 83.4007 214.618 83.2015 214.831 83.0492C215.045 82.8968 215.29 82.7955 215.549 82.753C215.604 82.7488 215.656 82.7232 215.692 82.6817C215.729 82.6401 215.747 82.5859 215.744 82.5306C215.738 82.477 215.711 82.4278 215.67 82.3926C215.629 82.3575 215.576 82.339 215.522 82.3408C215.196 82.3858 214.885 82.5076 214.616 82.6962C214.346 82.8848 214.125 83.1348 213.971 83.4255C213.95 83.4565 213.938 83.4929 213.937 83.5303C213.936 83.5677 213.946 83.6047 213.965 83.6367C213.985 83.6687 214.013 83.6944 214.047 83.7109C214.08 83.7273 214.118 83.7337 214.155 83.7293V83.7347Z" fill="#0D1A2E"/>
<path d="M220.723 88.8438C220.89 88.6786 221.039 88.4969 221.168 88.3014C221.177 88.2891 221.184 88.275 221.188 88.26C221.191 88.245 221.192 88.2295 221.189 88.2143C221.187 88.1991 221.181 88.1845 221.173 88.1715C221.165 88.1585 221.154 88.1474 221.141 88.1387C221.128 88.1293 221.114 88.1226 221.098 88.1188C221.083 88.1151 221.067 88.1145 221.051 88.117C221.036 88.1195 221.021 88.1251 221.007 88.1335C220.994 88.1419 220.982 88.1529 220.973 88.1658C220.689 88.5902 220.31 88.942 219.865 89.1926C219.42 89.4432 218.923 89.5857 218.413 89.6085C218.396 89.6078 218.38 89.6103 218.365 89.6159C218.349 89.6215 218.335 89.6301 218.323 89.6412C218.311 89.6523 218.301 89.6656 218.294 89.6805C218.287 89.6954 218.283 89.7114 218.283 89.7278C218.283 89.76 218.295 89.7909 218.317 89.8142C218.34 89.8374 218.37 89.8512 218.402 89.8526C219.277 89.827 220.108 89.4657 220.723 88.8438Z" fill="#0D1A2E"/>
<path d="M224.542 75.4149C224.542 75.4149 225.42 70.5337 223.354 70.729C221.288 70.9242 224.542 75.4149 224.542 75.4149Z" fill="#0D1A2E"/>
<path d="M221.77 83.4527C221.517 83.1388 221.177 82.9076 220.792 82.7886C220.407 82.6696 219.995 82.6682 219.609 82.7848C219.223 82.9013 218.881 83.1304 218.627 83.4427C218.372 83.7549 218.216 84.1361 218.18 84.5374L217.068 84.8086C216.886 84.3361 216.534 83.9489 216.08 83.7228C215.627 83.4968 215.106 83.4483 214.619 83.587C214.132 83.7257 213.715 84.0415 213.449 84.4723C213.183 84.9032 213.088 85.4179 213.182 85.9153C213.276 86.4128 213.553 86.857 213.958 87.1608C214.363 87.4645 214.867 87.6058 215.371 87.5568C215.875 87.5078 216.342 87.2721 216.681 86.8961C217.02 86.52 217.207 86.0308 217.203 85.5245C217.208 85.4631 217.208 85.4015 217.203 85.3401L218.212 85.0961C218.257 85.3837 218.363 85.6584 218.522 85.9018C218.682 86.1451 218.892 86.3514 219.138 86.5069C219.384 86.6623 219.661 86.7632 219.949 86.8029C220.238 86.8426 220.531 86.82 220.81 86.7368C221.089 86.6536 221.347 86.5116 221.566 86.3205C221.786 86.1293 221.962 85.8933 222.083 85.6285C222.203 85.3636 222.266 85.0759 222.266 84.7848C222.267 84.4937 222.205 84.206 222.085 83.9408C224.14 83.1381 227.047 82.2432 227.6 82.5903L227.893 82.1294C226.906 81.5002 222.952 83.008 221.77 83.4527ZM215.142 86.9997C214.846 87.0008 214.556 86.9139 214.309 86.7501C214.062 86.5863 213.87 86.3528 213.755 86.0794C213.641 85.806 213.611 85.5048 213.668 85.2141C213.725 84.9234 213.867 84.6562 214.077 84.4463C214.286 84.2364 214.552 84.0933 214.843 84.0351C215.133 83.9769 215.435 84.0062 215.708 84.1193C215.982 84.2325 216.216 84.4243 216.381 84.6706C216.546 84.9169 216.634 85.2065 216.634 85.5028C216.632 85.8984 216.475 86.2775 216.196 86.5578C215.916 86.8381 215.538 86.9969 215.142 86.9997ZM220.175 86.2296C219.879 86.2306 219.589 86.1436 219.342 85.9796C219.095 85.8155 218.902 85.5818 218.788 85.308C218.674 85.0343 218.644 84.7328 218.702 84.442C218.759 84.1511 218.902 83.8839 219.112 83.6742C219.321 83.4645 219.588 83.3219 219.879 83.2643C220.17 83.2067 220.472 83.2368 220.745 83.3507C221.019 83.4647 221.253 83.6574 221.417 83.9044C221.581 84.1514 221.668 84.4416 221.667 84.7381C221.666 85.1295 221.511 85.5048 221.236 85.7836C220.961 86.0624 220.588 86.2225 220.197 86.2296H220.175Z" fill="#0D1A2E"/>
<path opacity="0.2" d="M221.77 83.4527C221.517 83.1388 221.177 82.9076 220.792 82.7886C220.407 82.6696 219.995 82.6682 219.609 82.7848C219.223 82.9013 218.881 83.1304 218.627 83.4427C218.372 83.7549 218.216 84.1361 218.18 84.5374L217.068 84.8086C216.886 84.3361 216.534 83.9489 216.08 83.7228C215.627 83.4968 215.106 83.4483 214.619 83.587C214.132 83.7257 213.715 84.0415 213.449 84.4723C213.183 84.9032 213.088 85.4179 213.182 85.9153C213.276 86.4128 213.553 86.857 213.958 87.1608C214.363 87.4645 214.867 87.6058 215.371 87.5568C215.875 87.5078 216.342 87.2721 216.681 86.8961C217.02 86.52 217.207 86.0308 217.203 85.5245C217.208 85.4631 217.208 85.4015 217.203 85.3401L218.212 85.0961C218.257 85.3837 218.363 85.6584 218.522 85.9018C218.682 86.1451 218.892 86.3514 219.138 86.5069C219.384 86.6623 219.661 86.7632 219.949 86.8029C220.238 86.8426 220.531 86.82 220.81 86.7368C221.089 86.6536 221.347 86.5116 221.566 86.3205C221.786 86.1293 221.962 85.8933 222.083 85.6285C222.203 85.3636 222.266 85.0759 222.266 84.7848C222.267 84.4937 222.205 84.206 222.085 83.9408C224.14 83.1381 227.047 82.2432 227.6 82.5903L227.893 82.1294C226.906 81.5002 222.952 83.008 221.77 83.4527ZM215.142 86.9997C214.846 87.0008 214.556 86.9139 214.309 86.7501C214.062 86.5863 213.87 86.3528 213.755 86.0794C213.641 85.806 213.611 85.5048 213.668 85.2141C213.725 84.9234 213.867 84.6562 214.077 84.4463C214.286 84.2364 214.552 84.0933 214.843 84.0351C215.133 83.9769 215.435 84.0062 215.708 84.1193C215.982 84.2325 216.216 84.4243 216.381 84.6706C216.546 84.9169 216.634 85.2065 216.634 85.5028C216.632 85.8984 216.475 86.2775 216.196 86.5578C215.916 86.8381 215.538 86.9969 215.142 86.9997ZM220.175 86.2296C219.879 86.2306 219.589 86.1436 219.342 85.9796C219.095 85.8155 218.902 85.5818 218.788 85.308C218.674 85.0343 218.644 84.7328 218.702 84.442C218.759 84.1511 218.902 83.8839 219.112 83.6742C219.321 83.4645 219.588 83.3219 219.879 83.2643C220.17 83.2067 220.472 83.2368 220.745 83.3507C221.019 83.4647 221.253 83.6574 221.417 83.9044C221.581 84.1514 221.668 84.4416 221.667 84.7381C221.666 85.1295 221.511 85.5048 221.236 85.7836C220.961 86.0624 220.588 86.2225 220.197 86.2296H220.175Z" fill="white"/>
<path d="M220.631 78.3545C220.631 78.3545 213.814 83.1707 212.36 81.1694C210.907 79.1681 213.938 78.9999 213.938 78.9999C213.938 78.9999 211.357 77.183 212.724 75.7458C214.09 74.3085 215.745 75.7458 215.745 75.7458C215.745 75.7458 222.003 70.2951 224.135 74.3845C224.135 74.3845 228.88 73.4407 229.211 77.2752C229.542 81.1097 229.211 81.7009 229.211 81.7009C229.211 81.7009 231.722 82.01 231.381 82.8832C231.039 83.7564 229.211 83.073 229.211 83.073C229.211 83.073 232.178 85.3184 230.838 85.6275C229.499 85.9367 226.006 85.1991 225.149 82.292C224.292 79.385 225.29 78.9891 225.29 78.9891C225.29 78.9891 217.122 82.3517 220.631 78.3545Z" fill="#0D1A2E"/>
<path d="M228.663 85.2967C228.426 86.3425 227.832 87.2728 226.982 87.9271C225.897 88.7298 225.067 87.759 225.127 86.3868C225.181 85.1557 225.816 83.252 227.02 83.0025C228.224 82.753 228.956 83.9842 228.663 85.2967Z" fill="#CE7A63"/>
<path d="M219.319 95.5202C219.319 95.5202 218.803 96.9303 221.683 96.9737C224.563 97.0171 227.221 95.2653 227.221 95.2653C227.221 95.2653 228.376 94.8802 228.729 95.5202C228.729 95.5202 225.767 98.3838 221.678 98.297C217.589 98.2103 218.223 95.4659 218.223 95.4659C218.223 95.4659 218.972 95.2653 219.319 95.5202Z" fill="#DE4589"/>
<path d="M125.447 26.4998H59.2632V193.248H125.447V26.4998Z" fill="#DE4589"/>
<path opacity="0.2" d="M125.447 26.4998H59.2632V193.248H125.447V26.4998Z" fill="white"/>
<path d="M125.447 25.0408V194.734H137.639V25.0408H125.447Z" fill="#DE4589"/>
<path opacity="0.3" d="M125.447 25.0408V194.734H137.639V25.0408H125.447Z" fill="white"/>
<path d="M47.6567 25.0408V194.734H59.849V25.0408H47.6567Z" fill="#DE4589"/>
<path opacity="0.4" d="M47.6567 25.0408V194.734H59.849V25.0408H47.6567Z" fill="white"/>
<path d="M45.585 25.0408V194.734H126.939V25.0408H45.585ZM123.983 27.9641V58.3904H48.5083V27.9641H123.983ZM48.5083 125.084V94.6633H123.983V125.084H48.5083ZM123.983 128.024V158.445H48.5083V128.024H123.983ZM48.5083 91.74V61.3137H123.983V91.74H48.5083ZM48.5083 191.783V161.363H123.983V191.783H48.5083Z" fill="#DE4589"/>
<path opacity="0.6" d="M45.585 25.0408V194.734H126.939V25.0408H45.585ZM123.983 27.9641V58.3904H48.5083V27.9641H123.983ZM48.5083 125.084V94.6633H123.983V125.084H48.5083ZM123.983 128.024V158.445H48.5083V128.024H123.983ZM48.5083 91.74V61.3137H123.983V91.74H48.5083ZM48.5083 191.783V161.363H123.983V191.783H48.5083Z" fill="white"/>
<path d="M96.2574 58.3904H99.0723V34.7815H96.2574V58.3904Z" fill="#DE4589"/>
<path opacity="0.1" d="M96.2574 58.3904H99.0723V34.7815H96.2574V58.3904Z" fill="white"/>
<path d="M99.0724 58.3904H101.887V34.7815H99.0724V58.3904Z" fill="#DE4589"/>
<path opacity="0.4" d="M99.0724 58.3904H101.887V34.7815H99.0724V58.3904Z" fill="white"/>
<path d="M90.6384 58.385H96.2627V36.4358H90.6384V58.385Z" fill="#DE4589"/>
<path opacity="0.6" d="M90.6384 58.385H96.2627V36.4358H90.6384V58.385Z" fill="white"/>
<path d="M84.1899 58.3904H87.8237V34.7815H84.1899V58.3904Z" fill="#DE4589"/>
<path d="M87.8185 58.3904H90.6333V34.7815H87.8185V58.3904Z" fill="#DE4589"/>
<path opacity="0.7" d="M87.8185 58.3904H90.6333V34.7815H87.8185V58.3904Z" fill="white"/>
<path d="M62.8535 58.3904H66.4873V34.7815H62.8535V58.3904Z" fill="#DE4589"/>
<path opacity="0.7" d="M62.8535 58.3904H66.4873V34.7815H62.8535V58.3904Z" fill="white"/>
<path d="M66.482 58.3904H69.2969V34.7815H66.482V58.3904Z" fill="#DE4589"/>
<path opacity="0.6" d="M66.482 58.3904H69.2969V34.7815H66.482V58.3904Z" fill="white"/>
<path d="M74.9267 58.3904H78.5605V34.7815H74.9267V58.3904Z" fill="#DE4589"/>
<path opacity="0.6" d="M74.9267 58.3904H78.5605V34.7815H74.9267V58.3904Z" fill="white"/>
<path d="M78.5602 58.3904H81.375V34.7815H78.5602V58.3904Z" fill="#DE4589"/>
<path opacity="0.1" d="M78.5602 58.3904H81.375V34.7815H78.5602V58.3904Z" fill="#0D1A2E"/>
<path d="M57.2239 58.3904H62.8481V35.3402H57.2239V58.3904Z" fill="#DE4589"/>
<path opacity="0.1" d="M57.2239 58.3904H62.8481V35.3402H57.2239V58.3904Z" fill="white"/>
<path d="M54.4093 58.3904H57.2241V35.3402H54.4093V58.3904Z" fill="#DE4589"/>
<path opacity="0.6" d="M54.4093 58.3904H57.2241V35.3402H54.4093V58.3904Z" fill="white"/>
<path d="M71.1736 58.3904H74.9268V35.3402H71.1736V58.3904Z" fill="#DE4589"/>
<path opacity="0.1" d="M71.1736 58.3904H74.9268V35.3402H71.1736V58.3904Z" fill="white"/>
<path d="M69.2968 58.3904H71.1733V35.3402H69.2968V58.3904Z" fill="#DE4589"/>
<path opacity="0.3" d="M69.2968 58.3904H71.1733V35.3402H69.2968V58.3904Z" fill="white"/>
<path d="M78.5603 58.385H84.1846V36.4358H78.5603V58.385Z" fill="#DE4589"/>
<path opacity="0.1" d="M78.5603 58.385H84.1846V36.4358H78.5603V58.385Z" fill="white"/>
<path d="M110.326 58.3904H113.96V34.7815H110.326V58.3904Z" fill="#DE4589"/>
<path opacity="0.3" d="M110.326 58.3904H113.96V34.7815H110.326V58.3904Z" fill="white"/>
<path d="M113.96 58.3904H116.775V34.7815H113.96V58.3904Z" fill="#DE4589"/>
<path opacity="0.2" d="M113.96 58.3904H116.775V34.7815H113.96V58.3904Z" fill="white"/>
<path d="M104.702 58.3904H110.326V35.3402H104.702V58.3904Z" fill="#DE4589"/>
<path opacity="0.1" d="M104.702 58.3904H110.326V35.3402H104.702V58.3904Z" fill="white"/>
<path d="M101.887 58.3904H104.702V35.3402H101.887V58.3904Z" fill="#DE4589"/>
<path opacity="0.6" d="M101.887 58.3904H104.702V35.3402H101.887V58.3904Z" fill="white"/>
<path d="M118.646 58.3904H122.399V35.3402H118.646V58.3904Z" fill="#DE4589"/>
<path opacity="0.1" d="M118.646 58.3904H122.399V35.3402H118.646V58.3904Z" fill="white"/>
<path d="M116.775 58.3904H118.651V35.3402H116.775V58.3904Z" fill="#DE4589"/>
<path opacity="0.6" d="M116.775 58.3904H118.651V35.3402H116.775V58.3904Z" fill="white"/>
<path d="M81.5163 68.207H78.772V91.7454H81.5163V68.207Z" fill="#DE4589"/>
<path opacity="0.1" d="M81.5163 68.207H78.772V91.7454H81.5163V68.207Z" fill="white"/>
<path d="M78.7663 68.207H76.022V91.7454H78.7663V68.207Z" fill="#DE4589"/>
<path opacity="0.4" d="M78.7663 68.207H76.022V91.7454H78.7663V68.207Z" fill="white"/>
<path d="M87.0102 69.8612H81.5161V91.7454H87.0102V69.8612Z" fill="#DE4589"/>
<path opacity="0.6" d="M87.0102 69.8612H81.5161V91.7454H87.0102V69.8612Z" fill="white"/>
<path d="M93.3014 68.207H89.7544V91.7454H93.3014V68.207Z" fill="#DE4589"/>
<path d="M89.7546 68.207H87.0103V91.7454H89.7546V68.207Z" fill="#DE4589"/>
<path opacity="0.1" d="M89.7546 68.207H87.0103V91.7454H89.7546V68.207Z" fill="#0D1A2E"/>
<path d="M114.133 68.207H110.586V91.7454H114.133V68.207Z" fill="#DE4589"/>
<path opacity="0.1" d="M114.133 68.207H110.586V91.7454H114.133V68.207Z" fill="#0D1A2E"/>
<path d="M110.587 68.207H107.842V91.7454H110.587V68.207Z" fill="#DE4589"/>
<path opacity="0.6" d="M110.587 68.207H107.842V91.7454H110.587V68.207Z" fill="white"/>
<path d="M102.343 68.207H98.7959V91.7454H102.343V68.207Z" fill="#DE4589"/>
<path opacity="0.6" d="M102.343 68.207H98.7959V91.7454H102.343V68.207Z" fill="white"/>
<path d="M98.7956 68.207H96.0513V91.7454H98.7956V68.207Z" fill="#DE4589"/>
<path opacity="0.1" d="M98.7956 68.207H96.0513V91.7454H98.7956V68.207Z" fill="#0D1A2E"/>
<path d="M119.628 68.7657H114.134V91.7455H119.628V68.7657Z" fill="#DE4589"/>
<path opacity="0.1" d="M119.628 68.7657H114.134V91.7455H119.628V68.7657Z" fill="white"/>
<path d="M122.372 68.7657H119.627V91.7455H122.372V68.7657Z" fill="#DE4589"/>
<path opacity="0.6" d="M122.372 68.7657H119.627V91.7455H122.372V68.7657Z" fill="white"/>
<path d="M106.009 68.7657H102.348V91.7455H106.009V68.7657Z" fill="#DE4589"/>
<path opacity="0.1" d="M106.009 68.7657H102.348V91.7455H106.009V68.7657Z" fill="white"/>
<path d="M107.842 68.7657H106.009V91.7455H107.842V68.7657Z" fill="#DE4589"/>
<path opacity="0.3" d="M107.842 68.7657H106.009V91.7455H107.842V68.7657Z" fill="white"/>
<path d="M98.8012 69.8612H93.3071V91.7454H98.8012V69.8612Z" fill="#DE4589"/>
<path opacity="0.1" d="M98.8012 69.8612H93.3071V91.7454H98.8012V69.8612Z" fill="white"/>
<path d="M67.7838 68.207H64.2368V91.7454H67.7838V68.207Z" fill="#DE4589"/>
<path opacity="0.1" d="M67.7838 68.207H64.2368V91.7454H67.7838V68.207Z" fill="white"/>
<path d="M64.2311 68.207H61.4868V91.7454H64.2311V68.207Z" fill="#DE4589"/>
<path opacity="0.2" d="M64.2311 68.207H61.4868V91.7454H64.2311V68.207Z" fill="white"/>
<path d="M73.2778 68.7657H67.7837V91.7455H73.2778V68.7657Z" fill="#DE4589"/>
<path opacity="0.1" d="M73.2778 68.7657H67.7837V91.7455H73.2778V68.7657Z" fill="white"/>
<path d="M76.0222 68.7657H73.2778V91.7455H76.0222V68.7657Z" fill="#DE4589"/>
<path opacity="0.6" d="M76.0222 68.7657H73.2778V91.7455H76.0222V68.7657Z" fill="white"/>
<path d="M59.659 68.7657H55.998V91.7455H59.659V68.7657Z" fill="#DE4589"/>
<path opacity="0.1" d="M59.659 68.7657H55.998V91.7455H59.659V68.7657Z" fill="white"/>
<path d="M61.4923 68.7657H59.6592V91.7455H61.4923V68.7657Z" fill="#DE4589"/>
<path opacity="0.6" d="M61.4923 68.7657H59.6592V91.7455H61.4923V68.7657Z" fill="white"/>
<path d="M96.8377 158.439H99.582V135.134H96.8377V158.439Z" fill="#DE4589"/>
<path opacity="0.1" d="M96.8377 158.439H99.582V135.134H96.8377V158.439Z" fill="white"/>
<path d="M99.5877 158.439H102.332V135.134H99.5877V158.439Z" fill="#DE4589"/>
<path opacity="0.4" d="M99.5877 158.439H102.332V135.134H99.5877V158.439Z" fill="white"/>
<path d="M91.3438 158.439H96.8379V136.772H91.3438V158.439Z" fill="#DE4589"/>
<path opacity="0.6" d="M91.3438 158.439H96.8379V136.772H91.3438V158.439Z" fill="white"/>
<path d="M85.0526 158.439H88.5996V135.134H85.0526V158.439Z" fill="#DE4589"/>
<path d="M88.5994 158.439H91.3438V135.134H88.5994V158.439Z" fill="#DE4589"/>
<path opacity="0.6" d="M88.5994 158.439H91.3438V135.134H88.5994V158.439Z" fill="white"/>
<path d="M64.2206 158.439H67.7676V135.134H64.2206V158.439Z" fill="#DE4589"/>
<path opacity="0.3" d="M64.2206 158.439H67.7676V135.134H64.2206V158.439Z" fill="white"/>
<path d="M67.7674 158.439H70.5117V135.134H67.7674V158.439Z" fill="#DE4589"/>
<path opacity="0.6" d="M67.7674 158.439H70.5117V135.134H67.7674V158.439Z" fill="white"/>
<path d="M76.0057 158.439H79.5527V135.134H76.0057V158.439Z" fill="#DE4589"/>
<path opacity="0.6" d="M76.0057 158.439H79.5527V135.134H76.0057V158.439Z" fill="white"/>
<path d="M79.5584 158.439H82.3027V135.134H79.5584V158.439Z" fill="#DE4589"/>
<path opacity="0.1" d="M79.5584 158.439H82.3027V135.134H79.5584V158.439Z" fill="#0D1A2E"/>
<path d="M58.7208 158.439H64.2148V135.682H58.7208V158.439Z" fill="#DE4589"/>
<path opacity="0.1" d="M58.7208 158.439H64.2148V135.682H58.7208V158.439Z" fill="white"/>
<path d="M55.9817 158.439H58.7261V135.682H55.9817V158.439Z" fill="#DE4589"/>
<path opacity="0.6" d="M55.9817 158.439H58.7261V135.682H55.9817V158.439Z" fill="white"/>
<path d="M72.3449 158.439H76.0059V135.682H72.3449V158.439Z" fill="#DE4589"/>
<path opacity="0.1" d="M72.3449 158.439H76.0059V135.682H72.3449V158.439Z" fill="white"/>
<path d="M70.5116 158.439H72.3447V135.682H70.5116V158.439Z" fill="#DE4589"/>
<path opacity="0.3" d="M70.5116 158.439H72.3447V135.682H70.5116V158.439Z" fill="white"/>
<path d="M79.5582 158.439H85.0522V136.772H79.5582V158.439Z" fill="#DE4589"/>
<path opacity="0.1" d="M79.5582 158.439H85.0522V136.772H79.5582V158.439Z" fill="white"/>
<path d="M110.57 158.439H114.117V135.134H110.57V158.439Z" fill="#DE4589"/>
<path opacity="0.1" d="M110.57 158.439H114.117V135.134H110.57V158.439Z" fill="#0D1A2E"/>
<path d="M114.123 158.439H116.867V135.134H114.123V158.439Z" fill="#DE4589"/>
<path opacity="0.2" d="M114.123 158.439H116.867V135.134H114.123V158.439Z" fill="white"/>
<path d="M105.076 158.439H110.57V135.682H105.076V158.439Z" fill="#DE4589"/>
<path opacity="0.1" d="M105.076 158.439H110.57V135.682H105.076V158.439Z" fill="white"/>
<path d="M102.326 158.439H105.071V135.682H102.326V158.439Z" fill="#DE4589"/>
<path opacity="0.6" d="M102.326 158.439H105.071V135.682H102.326V158.439Z" fill="white"/>
<path d="M118.695 158.439H122.356V135.682H118.695V158.439Z" fill="#DE4589"/>
<path opacity="0.1" d="M118.695 158.439H122.356V135.682H118.695V158.439Z" fill="white"/>
<path d="M116.862 158.439H118.695V135.682H116.862V158.439Z" fill="#DE4589"/>
<path opacity="0.6" d="M116.862 158.439H118.695V135.682H116.862V158.439Z" fill="white"/>
<path d="M96.8597 191.794H99.604V168.777H96.8597V191.794Z" fill="#DE4589"/>
<path opacity="0.1" d="M96.8597 191.794H99.604V168.777H96.8597V191.794Z" fill="white"/>
<path d="M99.5984 191.794H102.343V168.777H99.5984V191.794Z" fill="#DE4589"/>
<path opacity="0.4" d="M99.5984 191.794H102.343V168.777H99.5984V191.794Z" fill="white"/>
<path d="M91.3653 191.794H96.8594V170.398H91.3653V191.794Z" fill="#DE4589"/>
<path opacity="0.6" d="M91.3653 191.794H96.8594V170.398H91.3653V191.794Z" fill="white"/>
<path d="M85.0687 191.794H88.6157V168.777H85.0687V191.794Z" fill="#DE4589"/>
<path d="M88.6155 191.794H91.3599V168.777H88.6155V191.794Z" fill="#DE4589"/>
<path opacity="0.1" d="M88.6155 191.794H91.3599V168.777H88.6155V191.794Z" fill="#0D1A2E"/>
<path d="M64.2367 191.794H67.7837V168.777H64.2367V191.794Z" fill="#DE4589"/>
<path opacity="0.4" d="M64.2367 191.794H67.7837V168.777H64.2367V191.794Z" fill="white"/>
<path d="M67.7894 191.794H70.5337V168.777H67.7894V191.794Z" fill="#DE4589"/>
<path opacity="0.6" d="M67.7894 191.794H70.5337V168.777H67.7894V191.794Z" fill="white"/>
<path d="M76.0277 191.794H79.5747V168.777H76.0277V191.794Z" fill="#DE4589"/>
<path opacity="0.6" d="M76.0277 191.794H79.5747V168.777H76.0277V191.794Z" fill="white"/>
<path d="M79.5745 191.794H82.3188V168.777H79.5745V191.794Z" fill="#DE4589"/>
<path opacity="0.1" d="M79.5745 191.794H82.3188V168.777H79.5745V191.794Z" fill="#0D1A2E"/>
<path d="M58.7427 191.8H64.2368V169.33H58.7427V191.8Z" fill="#DE4589"/>
<path opacity="0.1" d="M58.7427 191.8H64.2368V169.33H58.7427V191.8Z" fill="white"/>
<path d="M55.9983 191.8H58.7427V169.33H55.9983V191.8Z" fill="#DE4589"/>
<path opacity="0.6" d="M55.9983 191.8H58.7427V169.33H55.9983V191.8Z" fill="white"/>
<path d="M72.3664 191.8H76.0273V169.33H72.3664V191.8Z" fill="#DE4589"/>
<path opacity="0.1" d="M72.3664 191.8H76.0273V169.33H72.3664V191.8Z" fill="white"/>
<path d="M70.5282 191.8H72.3613V169.33H70.5282V191.8Z" fill="#DE4589"/>
<path opacity="0.3" d="M70.5282 191.8H72.3613V169.33H70.5282V191.8Z" fill="white"/>
<path d="M79.5694 191.794H85.0635V170.398H79.5694V191.794Z" fill="#DE4589"/>
<path opacity="0.1" d="M79.5694 191.794H85.0635V170.398H79.5694V191.794Z" fill="white"/>
<path d="M110.592 191.794H114.139V168.777H110.592V191.794Z" fill="#DE4589"/>
<path opacity="0.1" d="M110.592 191.794H114.139V168.777H110.592V191.794Z" fill="#0D1A2E"/>
<path d="M114.134 191.794H116.878V168.777H114.134V191.794Z" fill="#DE4589"/>
<path opacity="0.2" d="M114.134 191.794H116.878V168.777H114.134V191.794Z" fill="white"/>
<path d="M105.092 191.8H110.586V169.33H105.092V191.8Z" fill="#DE4589"/>
<path opacity="0.1" d="M105.092 191.8H110.586V169.33H105.092V191.8Z" fill="white"/>
<path d="M102.348 191.8H105.093V169.33H102.348V191.8Z" fill="#DE4589"/>
<path opacity="0.6" d="M102.348 191.8H105.093V169.33H102.348V191.8Z" fill="white"/>
<path d="M118.717 191.8H122.377V169.33H118.717V191.8Z" fill="#DE4589"/>
<path opacity="0.1" d="M118.717 191.8H122.377V169.33H118.717V191.8Z" fill="white"/>
<path d="M116.878 191.8H118.711V169.33H116.878V191.8Z" fill="#DE4589"/>
<path opacity="0.6" d="M116.878 191.8H118.711V169.33H116.878V191.8Z" fill="white"/>
<path d="M80.1329 101.161H77.2964V125.084H80.1329V101.161Z" fill="#DE4589"/>
<path opacity="0.1" d="M80.1329 101.161H77.2964V125.084H80.1329V101.161Z" fill="white"/>
<path d="M77.2911 101.161H74.4546V125.084H77.2911V101.161Z" fill="#DE4589"/>
<path opacity="0.4" d="M77.2911 101.161H74.4546V125.084H77.2911V101.161Z" fill="white"/>
<path d="M85.8118 102.842H80.1333V125.084H85.8118V102.842Z" fill="#DE4589"/>
<path opacity="0.6" d="M85.8118 102.842H80.1333V125.084H85.8118V102.842Z" fill="white"/>
<path d="M92.3256 101.161H88.6538V125.084H92.3256V101.161Z" fill="#DE4589"/>
<path d="M88.6481 101.161H85.8115V125.084H88.6481V101.161Z" fill="#DE4589"/>
<path opacity="0.1" d="M88.6481 101.161H85.8115V125.084H88.6481V101.161Z" fill="#0D1A2E"/>
<path d="M113.863 101.161H110.191V125.084H113.863V101.161Z" fill="#DE4589"/>
<path opacity="0.1" d="M113.863 101.161H110.191V125.084H113.863V101.161Z" fill="#0D1A2E"/>
<path d="M110.185 101.161H107.349V125.084H110.185V101.161Z" fill="#DE4589"/>
<path opacity="0.6" d="M110.185 101.161H107.349V125.084H110.185V101.161Z" fill="white"/>
<path d="M101.67 101.161H97.9985V125.084H101.67V101.161Z" fill="#DE4589"/>
<path opacity="0.6" d="M101.67 101.161H97.9985V125.084H101.67V101.161Z" fill="white"/>
<path d="M97.9986 101.161H95.1621V125.084H97.9986V101.161Z" fill="#DE4589"/>
<path opacity="0.1" d="M97.9986 101.161H95.1621V125.084H97.9986V101.161Z" fill="#0D1A2E"/>
<path d="M119.535 101.73H113.857V125.09H119.535V101.73Z" fill="#DE4589"/>
<path opacity="0.1" d="M119.535 101.73H113.857V125.09H119.535V101.73Z" fill="white"/>
<path d="M122.372 101.73H119.536V125.09H122.372V101.73Z" fill="#DE4589"/>
<path opacity="0.6" d="M122.372 101.73H119.536V125.09H122.372V101.73Z" fill="white"/>
<path d="M105.456 101.73H101.67V125.09H105.456V101.73Z" fill="#DE4589"/>
<path opacity="0.1" d="M105.456 101.73H101.67V125.09H105.456V101.73Z" fill="white"/>
<path d="M107.349 101.73H105.456V125.09H107.349V101.73Z" fill="#DE4589"/>
<path opacity="0.3" d="M107.349 101.73H105.456V125.09H107.349V101.73Z" fill="white"/>
<path d="M97.9983 102.842H92.3198V125.084H97.9983V102.842Z" fill="#DE4589"/>
<path opacity="0.1" d="M97.9983 102.842H92.3198V125.084H97.9983V102.842Z" fill="white"/>
<path d="M65.9398 101.161H62.2681V125.084H65.9398V101.161Z" fill="#DE4589"/>
<path opacity="0.2" d="M65.9398 101.161H62.2681V125.084H65.9398V101.161Z" fill="white"/>
<path d="M62.2677 101.161H59.4312V125.084H62.2677V101.161Z" fill="#DE4589"/>
<path opacity="0.2" d="M62.2677 101.161H59.4312V125.084H62.2677V101.161Z" fill="white"/>
<path d="M71.6184 101.73H65.9399V125.09H71.6184V101.73Z" fill="#DE4589"/>
<path opacity="0.1" d="M71.6184 101.73H65.9399V125.09H71.6184V101.73Z" fill="white"/>
<path d="M74.4547 101.73H71.6182V125.09H74.4547V101.73Z" fill="#DE4589"/>
<path opacity="0.6" d="M74.4547 101.73H71.6182V125.09H74.4547V101.73Z" fill="white"/>
<path d="M57.5386 101.73H53.7529V125.09H57.5386V101.73Z" fill="#DE4589"/>
<path opacity="0.1" d="M57.5386 101.73H53.7529V125.09H57.5386V101.73Z" fill="white"/>
<path d="M59.4314 101.73H57.5386V125.09H59.4314V101.73Z" fill="#DE4589"/>
<path opacity="0.6" d="M59.4314 101.73H57.5386V125.09H59.4314V101.73Z" fill="white"/>
<path d="M105.168 7.4574H61.27V21.9872H105.168V7.4574Z" fill="#DE4589"/>
<path d="M62.6259 0H62.0835V7.45742H62.6259V0Z" fill="#DE4589"/>
<path d="M104.962 0H104.42V7.45742H104.962V0Z" fill="#DE4589"/>
<g opacity="0.7">
<path opacity="0.7" d="M104.295 7.4574H61.27V21.0326H104.295V7.4574Z" fill="white"/>
</g>
<path d="M99.2513 10.077H68.6948V12.7183H99.2513V10.077Z" fill="#DE4589"/>
<path d="M99.2568 14.725H92.7051V15.7555H99.2568V14.725Z" fill="#DE4589"/>
<path d="M99.2566 17.7568H86.1099V18.7873H99.2566V17.7568Z" fill="#DE4589"/>
<path opacity="0.2" d="M51.7078 194.685C51.9144 194.734 52.1294 194.735 52.3364 194.688C52.5434 194.641 52.7368 194.547 52.9018 194.413C53.0668 194.28 53.1989 194.11 53.2881 193.917C53.3773 193.725 53.4211 193.514 53.4163 193.302V190.623H88.3767V192.733C88.4025 193.205 88.5874 193.656 88.9016 194.01C89.2157 194.365 89.6404 194.603 90.1068 194.685C90.3133 194.734 90.5284 194.735 90.7353 194.688C90.9423 194.641 91.1357 194.547 91.3007 194.413C91.4657 194.28 91.5979 194.11 91.6871 193.917C91.7763 193.725 91.8201 193.514 91.8152 193.302L91.1644 60.37C91.14 59.8969 90.9564 59.446 90.6432 59.0905C90.3301 58.735 89.9059 58.4959 89.4397 58.4121C89.2329 58.3633 89.0176 58.3624 88.8104 58.4095C88.6032 58.4566 88.4095 58.5505 88.2441 58.6839C88.0787 58.8174 87.9461 58.9869 87.8562 59.1795C87.7664 59.3721 87.7218 59.5826 87.7258 59.7951V61.9212H52.7763V60.37C52.7529 59.8966 52.5695 59.4452 52.2562 59.0895C51.9429 58.7338 51.5182 58.495 51.0516 58.4121C50.845 58.3631 50.63 58.3622 50.423 58.4093C50.216 58.4564 50.0226 58.5503 49.8576 58.6839C49.6926 58.8175 49.5604 58.9871 49.4713 59.1797C49.3821 59.3724 49.3382 59.5829 49.3431 59.7951L49.994 192.733C50.0171 193.204 50.1991 193.653 50.5103 194.008C50.8215 194.362 51.2436 194.601 51.7078 194.685ZM88.2302 162.735H53.2698L53.1613 140.249H88.1218L88.2302 162.735ZM52.9119 89.8255H87.8723L87.9862 112.317H53.0203L52.9119 89.8255ZM87.997 115.007L88.1055 137.493H53.1451L53.0366 115.007H87.997ZM87.7529 64.6058L87.8614 87.0974H52.901L52.7871 64.6058H87.7529ZM53.3946 187.916L53.2807 165.446H88.2302L88.3387 187.938L53.3946 187.916Z" fill="#0D1A2E"/>
<path d="M28.1152 194.685C28.5581 194.76 29.013 194.657 29.38 194.398C29.747 194.139 29.9962 193.745 30.0731 193.302L30.5341 190.623H65.4945L65.1311 192.732C65.0556 193.175 65.1592 193.63 65.4191 193.997C65.6789 194.364 66.0738 194.612 66.5169 194.688C66.9599 194.763 67.4148 194.66 67.7815 194.4C68.1481 194.14 68.3965 193.745 68.4721 193.302L91.2511 60.3699C91.3273 59.9276 91.2247 59.4731 90.9659 59.1065C90.707 58.7398 90.3131 58.491 89.8708 58.4147C89.4285 58.3385 88.974 58.4411 88.6073 58.6999C88.2407 58.9588 87.9918 59.3527 87.9156 59.795L87.5522 61.9211H52.5972L52.863 60.3699C52.913 59.9387 52.7959 59.5048 52.5358 59.1573C52.2757 58.8098 51.8924 58.5751 51.4646 58.5015C51.0368 58.4278 50.5971 58.5209 50.2358 58.7615C49.8745 59.0021 49.6191 59.3719 49.5221 59.795L26.743 192.732C26.7048 192.951 26.71 193.174 26.7583 193.391C26.8066 193.607 26.8971 193.812 27.0245 193.993C27.1519 194.174 27.3138 194.329 27.501 194.448C27.6881 194.566 27.8968 194.647 28.1152 194.685ZM70.2781 162.686H35.3177L39.1739 140.2H74.1289L70.2781 162.686ZM47.8082 89.8254H82.774L78.9179 112.295H43.9575L47.8082 89.8254ZM78.4677 115.007L74.617 137.493H39.6349L43.491 115.007H78.4677ZM87.1075 64.6058L83.2513 87.0973H48.2746L52.1308 64.6058H87.1075ZM30.9951 187.916L34.8513 165.446H69.79L65.9393 187.938L30.9951 187.916Z" fill="#0D1A2E"/>
<path opacity="0.2" d="M28.1152 194.685C28.5581 194.76 29.013 194.657 29.38 194.398C29.747 194.139 29.9962 193.745 30.0731 193.302L30.5341 190.623H65.4945L65.1311 192.732C65.0556 193.175 65.1592 193.63 65.4191 193.997C65.6789 194.364 66.0738 194.612 66.5169 194.688C66.9599 194.763 67.4148 194.66 67.7815 194.4C68.1481 194.14 68.3965 193.745 68.4721 193.302L91.2511 60.3699C91.3273 59.9276 91.2247 59.4731 90.9659 59.1065C90.707 58.7398 90.3131 58.491 89.8708 58.4147C89.4285 58.3385 88.974 58.4411 88.6073 58.6999C88.2407 58.9588 87.9918 59.3527 87.9156 59.795L87.5522 61.9211H52.5972L52.863 60.3699C52.913 59.9387 52.7959 59.5048 52.5358 59.1573C52.2757 58.8098 51.8924 58.5751 51.4646 58.5015C51.0368 58.4278 50.5971 58.5209 50.2358 58.7615C49.8745 59.0021 49.6191 59.3719 49.5221 59.795L26.743 192.732C26.7048 192.951 26.71 193.174 26.7583 193.391C26.8066 193.607 26.8971 193.812 27.0245 193.993C27.1519 194.174 27.3138 194.329 27.501 194.448C27.6881 194.566 27.8968 194.647 28.1152 194.685ZM70.2781 162.686H35.3177L39.1739 140.2H74.1289L70.2781 162.686ZM47.8082 89.8254H82.774L78.9179 112.295H43.9575L47.8082 89.8254ZM78.4677 115.007L74.617 137.493H39.6349L43.491 115.007H78.4677ZM87.1075 64.6058L83.2513 87.0973H48.2746L52.1308 64.6058H87.1075ZM30.9951 187.916L34.8513 165.446H69.79L65.9393 187.938L30.9951 187.916Z" fill="white"/>
<path d="M96.4845 69.8558H84.7913C84.5036 69.8558 84.2277 69.7416 84.0242 69.5381C83.8208 69.3347 83.7065 69.0588 83.7065 68.7711V54.2142C83.7065 54.5019 83.8208 54.7778 84.0242 54.9812C84.2277 55.1847 84.5036 55.2989 84.7913 55.2989H96.4845V69.8558Z" fill="#DE4589"/>
<path opacity="0.3" d="M96.4845 69.8558H84.7913C84.5036 69.8558 84.2277 69.7416 84.0242 69.5381C83.8208 69.3347 83.7065 69.0588 83.7065 68.7711V54.2142C83.7065 54.5019 83.8208 54.7778 84.0242 54.9812C84.2277 55.1847 84.5036 55.2989 84.7913 55.2989H96.4845V69.8558Z" fill="#0D1A2E"/>
<path d="M96.4845 55.3098H84.7913C84.5036 55.3098 84.2277 55.1955 84.0242 54.9921C83.8208 54.7887 83.7065 54.5128 83.7065 54.2251C83.7065 53.9374 83.8208 53.6615 84.0242 53.4581C84.2277 53.2547 84.5036 53.1404 84.7913 53.1404H96.4845V55.3098Z" fill="#0D1A2E"/>
<path opacity="0.5" d="M96.4845 55.3098H84.7913C84.5036 55.3098 84.2277 55.1955 84.0242 54.9921C83.8208 54.7887 83.7065 54.5128 83.7065 54.2251C83.7065 53.9374 83.8208 53.6615 84.0242 53.4581C84.2277 53.2547 84.5036 53.1404 84.7913 53.1404H96.4845V55.3098Z" fill="white"/>
<path d="M83.696 54.2143C83.696 54.5019 83.8103 54.7778 84.0137 54.9813C84.2171 55.1847 84.4931 55.299 84.7807 55.299H96.474V54.9193H84.7916C84.6017 54.9193 84.4196 54.8439 84.2854 54.7096C84.1511 54.5754 84.0757 54.3933 84.0757 54.2034C84.0757 54.0135 84.1511 53.8314 84.2854 53.6972C84.4196 53.5629 84.6017 53.4875 84.7916 53.4875H96.4848V53.1078H84.7916C84.6464 53.1064 84.5024 53.1341 84.3681 53.1893C84.2338 53.2445 84.1119 53.3261 84.0097 53.4293C83.9076 53.5325 83.8272 53.6551 83.7733 53.79C83.7194 53.9248 83.6931 54.0691 83.696 54.2143Z" fill="#DE4589"/>
<path d="M93.8924 58.4392H86.2939V63.2499H93.8924V58.4392Z" fill="#DE4589"/>
<path opacity="0.5" d="M93.8924 58.4392H86.2939V63.2499H93.8924V58.4392Z" fill="white"/>
<path d="M27.5455 144.023L24.9097 151.345L28.9719 152.918L32.1447 146.166L27.5455 144.023Z" fill="#FF8B7B"/>
<path d="M29.3898 153.271C29.3724 153.259 29.3588 153.242 29.3508 153.222C29.3428 153.203 29.3407 153.181 29.3448 153.161C29.3488 153.14 29.3588 153.121 29.3735 153.106C29.3883 153.09 29.4071 153.08 29.4277 153.075C29.5037 153.075 31.3043 152.761 31.9443 153.222C32.0037 153.262 32.0545 153.315 32.0936 153.375C32.1328 153.436 32.1594 153.503 32.1721 153.574C32.1959 153.655 32.194 153.741 32.1668 153.821C32.1396 153.9 32.0884 153.97 32.0202 154.019C31.561 154.142 31.0727 154.091 30.648 153.878C30.211 153.714 29.7898 153.511 29.3898 153.271ZM29.764 153.271C30.5233 153.661 31.5972 154.052 31.9009 153.851C31.9388 153.851 31.9877 153.775 31.9605 153.623C31.9546 153.578 31.9383 153.535 31.9129 153.497C31.8875 153.46 31.8537 153.429 31.8141 153.406C31.7562 153.367 31.6944 153.335 31.6297 153.309C31.0163 153.176 30.3835 153.159 29.764 153.26V153.271Z" fill="#DE4589"/>
<path d="M29.3355 153.249C29.3265 153.232 29.3218 153.214 29.3218 153.195C29.3218 153.176 29.3265 153.157 29.3355 153.14C29.3355 153.086 29.8779 151.98 30.6101 151.736C30.7113 151.7 30.8186 151.685 30.9258 151.691C31.0329 151.698 31.1376 151.726 31.2338 151.774C31.505 151.904 31.5375 152.077 31.505 152.197C31.4182 152.706 30.0514 153.254 29.4603 153.281C29.4537 153.285 29.4462 153.287 29.4386 153.287C29.431 153.287 29.4235 153.285 29.4169 153.281C29.4018 153.282 29.3869 153.279 29.3729 153.273C29.359 153.268 29.3463 153.259 29.3355 153.249ZM31.0873 151.942C30.9601 151.892 30.8187 151.892 30.6914 151.942C30.2397 152.189 29.8731 152.567 29.6392 153.026C30.2846 152.913 31.2229 152.435 31.3043 152.137C31.3043 152.11 31.3043 152.034 31.147 151.953H31.0873V151.942Z" fill="#DE4589"/>
<path d="M29.1781 152.517L24.5301 150.803C24.4453 150.771 24.3522 150.77 24.2664 150.798C24.1805 150.827 24.107 150.884 24.0582 150.96L21.8129 154.431C21.7651 154.504 21.7321 154.585 21.7158 154.671C21.6995 154.756 21.7002 154.844 21.7179 154.929C21.7355 155.014 21.7697 155.095 21.8186 155.167C21.8674 155.239 21.93 155.3 22.0027 155.348C22.0413 155.375 22.0832 155.397 22.1274 155.413C23.8142 156.004 25.3382 156.47 27.4208 157.246C29.8831 158.163 29.1455 158.222 32.0255 159.34C33.761 160.007 34.8132 158.146 34.1135 157.772C30.8865 156.091 30.9136 154.941 30.0621 153.243C29.8652 152.902 29.551 152.644 29.1781 152.517Z" fill="#0D1A2E"/>
<path opacity="0.2" d="M26.2817 147.538L30.5447 149.572L32.1446 146.166L27.5454 144.023L26.2817 147.538Z" fill="#0D1A2E"/>
<path d="M51.854 151.036L52.5536 158.786L56.9034 158.493L56.9251 151.036H51.854Z" fill="#FF8B7B"/>
<path d="M57.6517 158.363C57.6302 158.359 57.6104 158.349 57.5949 158.333C57.5794 158.318 57.569 158.298 57.565 158.277C57.5597 158.255 57.5615 158.232 57.5703 158.211C57.5791 158.191 57.5944 158.174 57.6138 158.163C57.6789 158.119 59.2409 157.159 59.9947 157.344C60.0656 157.358 60.1328 157.387 60.1924 157.428C60.252 157.469 60.3028 157.521 60.3418 157.582C60.3904 157.65 60.4166 157.732 60.4166 157.816C60.4166 157.899 60.3904 157.981 60.3418 158.049C59.9639 158.338 59.4932 158.479 59.0185 158.445C58.5615 158.454 58.1044 158.427 57.6517 158.363ZM57.9989 158.206C58.8449 158.282 59.9893 158.233 60.1683 157.929C60.1683 157.891 60.2225 157.826 60.1357 157.696C60.1131 157.657 60.0817 157.624 60.044 157.6C60.0064 157.575 59.9635 157.56 59.9188 157.555C59.8505 157.544 59.781 157.544 59.7127 157.555C59.1064 157.665 58.5254 157.886 57.9989 158.206Z" fill="#DE4589"/>
<path d="M57.5977 158.358C57.5811 158.349 57.5672 158.336 57.5577 158.319C57.5481 158.303 57.5432 158.285 57.5435 158.266C57.5435 158.206 57.6248 156.98 58.1889 156.481C58.2688 156.409 58.3622 156.354 58.4637 156.319C58.5652 156.283 58.6727 156.269 58.78 156.275C59.0783 156.275 59.176 156.443 59.1922 156.568C59.3061 157.073 58.2485 158.098 57.717 158.358H57.6682C57.6454 158.366 57.6205 158.366 57.5977 158.358ZM58.715 156.481C58.5781 156.488 58.4478 156.541 58.3462 156.633C58.0261 157.037 57.8369 157.529 57.8038 158.043C58.3462 157.691 59.0458 156.899 59.0024 156.59C59.0024 156.563 59.0024 156.487 58.7855 156.476L58.715 156.481Z" fill="#DE4589"/>
<path d="M57.169 157.745L52.2119 157.924C52.1217 157.927 52.0355 157.962 51.9675 158.021C51.8994 158.08 51.8536 158.161 51.8376 158.249L51.0837 162.312C51.0674 162.398 51.0685 162.487 51.0871 162.574C51.1056 162.66 51.1412 162.741 51.1917 162.814C51.2422 162.886 51.3067 162.947 51.3813 162.994C51.4559 163.041 51.5391 163.073 51.6261 163.087H51.7671C53.5515 162.99 55.1352 162.838 57.3588 162.762C59.9838 162.67 59.3276 163.006 62.4136 162.941C64.2739 162.897 64.5397 160.771 63.7478 160.695C60.1249 160.37 59.7127 159.296 58.2754 158.054C57.9565 157.82 57.5631 157.71 57.169 157.745Z" fill="#0D1A2E"/>
<path opacity="0.2" d="M56.9251 151.036H51.854L52.2228 155.082L56.9142 154.952L56.9251 151.036Z" fill="#0D1A2E"/>
<path d="M48.1227 79.2115C48.1227 79.2115 40.3453 84.3314 41.6144 99.3927L40.3182 116.455C40.3182 116.455 32.6059 121.629 26.4609 145.471C28.0566 146.731 29.9073 147.629 31.8845 148.102L50.4332 119.726L57.3157 90.1835L58.1184 80.3505L48.1227 79.2115Z" fill="#0D1A2E"/>
<path opacity="0.4" d="M53.8554 104.979L51.0568 94.1318L46.5986 91.9353C46.5986 91.9353 46.5986 113.087 48.5999 122.524L50.4277 119.726L53.8554 104.979Z" fill="#0D1A2E"/>
<path d="M44.0927 60.9341C44.0927 60.9341 38.4956 67.9522 40.0142 70.9514C41.5328 73.9507 46.311 74.2435 46.311 74.2435C46.4821 74.5823 46.7348 74.8731 47.0463 75.0899C47.3578 75.3067 47.7183 75.4427 48.0953 75.4856L49.039 71.1467C48.7135 70.971 48.3471 70.8849 47.9773 70.8973C47.6076 70.9097 47.2478 71.0201 46.9347 71.2172L43.8053 69.3189L48.117 63.6079L44.0927 60.9341Z" fill="#FF8B7B"/>
<path d="M52.0762 56.0908C52.0762 56.0908 47.7373 56.2535 45.4052 58.2277C43.073 60.2019 42.6934 61.3734 42.6934 61.3734C42.6934 61.3734 44.2391 63.6188 48.8437 64.8336L52.0762 56.0908Z" fill="#DE4589"/>
<path opacity="0.1" d="M48.8494 64.8335L50.5904 60.115L48.7193 58.1951C47.5642 59.9629 46.838 61.9761 46.5986 64.0742C47.3294 64.3818 48.0817 64.6356 48.8494 64.8335Z" fill="#0D1A2E"/>
<path d="M49.9721 79.2115C49.9721 79.2115 43.556 86.2622 47.4827 99.9839L50.265 117.247C50.265 117.247 46.7505 133.686 51.0677 153.227C53.2416 153.532 55.4505 153.483 57.6085 153.081L61.622 116.287L63.6287 81.1152L49.9721 79.2115Z" fill="#0D1A2E"/>
<path d="M54.311 55.8413C54.311 55.8413 56.6811 55.6027 56.6432 51.2476C56.6432 51.2476 58.8126 50.2442 60.2444 51.535C61.6763 52.8258 58.9645 55.8251 60.7271 57.0888C60.7271 57.0888 59.1814 58.1301 54.311 55.8413Z" fill="#FF8B7B"/>
<path d="M64.6752 45.1351C64.6752 44.8423 64.8705 44.6199 65.0603 44.6308C65.2501 44.6416 65.3857 44.8965 65.364 45.1731C65.3423 45.4497 65.1742 45.7155 64.9789 45.6775C64.7837 45.6395 64.6535 45.428 64.6752 45.1351Z" fill="#0D1A2E"/>
<path d="M64.876 45.6613L66.4163 47.6951C66.1771 47.8755 65.899 47.9974 65.6042 48.0511C65.3095 48.1048 65.0062 48.0888 64.7188 48.0042L64.876 45.6613Z" fill="#FF5652"/>
<path d="M54.6037 44.6795C54.7773 48.3676 54.7773 49.935 56.6104 51.8495C59.4307 53.8128 63.8726 53.7098 64.8 50.0434C65.6353 46.7405 65.2068 41.2735 61.6164 39.7386C60.8259 39.4017 59.9624 39.2723 59.1078 39.3627C58.2533 39.4532 57.436 39.7604 56.7335 40.2554C56.0311 40.7503 55.4667 41.4165 55.0939 42.1908C54.7212 42.9651 54.5525 43.8217 54.6037 44.6795Z" fill="#FF8B7B"/>
<path d="M64.1275 44.2728C64.1557 44.2789 64.185 44.2787 64.2131 44.2721C64.2413 44.2655 64.2676 44.2528 64.2902 44.2348C64.4479 44.0897 64.6378 43.9841 64.8443 43.9266C65.0508 43.8691 65.2679 43.8613 65.478 43.904C65.4993 43.9105 65.5218 43.9126 65.544 43.91C65.5662 43.9075 65.5876 43.9004 65.607 43.8892C65.6263 43.878 65.6431 43.8629 65.6564 43.8449C65.6697 43.827 65.6791 43.8064 65.6841 43.7847C65.6907 43.7633 65.693 43.7408 65.6909 43.7186C65.6887 43.6963 65.6822 43.6747 65.6716 43.655C65.661 43.6353 65.6465 43.6179 65.6291 43.6038C65.6117 43.5898 65.5917 43.5794 65.5702 43.5731C65.3051 43.5151 65.0299 43.5212 64.7676 43.591C64.5054 43.6608 64.2636 43.7923 64.0624 43.9745C64.0468 43.9897 64.0345 44.0078 64.026 44.0278C64.0175 44.0478 64.0132 44.0694 64.0132 44.0911C64.0132 44.1128 64.0175 44.1344 64.026 44.1544C64.0345 44.1744 64.0468 44.1926 64.0624 44.2077C64.0783 44.2346 64.1006 44.257 64.1275 44.2728Z" fill="#0D1A2E"/>
<path d="M64.9897 44.647L65.7924 44.5277C65.7924 44.5277 65.3097 45.0755 64.9897 44.647Z" fill="#0D1A2E"/>
<path opacity="0.2" d="M58.3354 52.7281C58.8104 53.5007 59.4925 54.1245 60.3042 54.5288C60.4235 54.0515 60.5645 53.5634 60.6296 53.1132C59.8486 53.116 59.0728 52.9858 58.3354 52.7281Z" fill="#0D1A2E"/>
<path d="M61.1825 46.8165C61.1825 46.8165 63.4008 44.4409 62.5059 42.0925C62.5059 42.0925 65.0333 42.3908 64.876 40.4655C64.7187 38.5401 62.0774 39.0987 62.0774 39.0987C62.0774 39.0987 63.5038 36.8208 62.3323 36.1971C61.1608 35.5734 59.0782 37.4337 59.0782 37.4337C59.0782 37.4337 53.9203 36.6418 52.3638 42.5156C50.8072 48.3893 47.3903 44.902 47.1463 47.4565C46.8697 50.2876 50.9428 49.9025 50.9428 49.9025C50.8536 50.1728 50.8229 50.4589 50.8528 50.7419C50.8827 51.0249 50.9724 51.2984 51.116 51.544C51.2596 51.7897 51.4539 52.0021 51.6858 52.167C51.9178 52.3318 52.1822 52.4455 52.4614 52.5004C53.0335 52.702 53.6526 52.7287 54.2399 52.5771C54.8272 52.4254 55.356 52.1023 55.7589 51.6489C55.7589 51.6489 55.6179 53.6502 57.9284 53.4061C60.6402 53.1295 60.0544 51.3614 60.2876 50.4449C60.5208 49.5283 61.5947 48.59 61.1825 46.8165Z" fill="#0D1A2E"/>
<path d="M59.1164 37.9055C59.1164 37.9055 58.1184 34.9605 59.8648 34.7978C61.6112 34.6351 59.0513 35.7524 59.1164 37.9055Z" fill="#0D1A2E"/>
<path d="M61.1556 45.927C61.4324 46.1778 61.6569 46.4808 61.8161 46.8187C61.9752 47.1566 62.066 47.5227 62.0831 47.8958C62.1265 48.8991 61.1719 49.1758 60.3475 48.7148C59.5231 48.2537 58.6879 47.2721 59.0404 46.3555C59.1189 46.1558 59.2462 45.979 59.4106 45.8411C59.5749 45.7032 59.7712 45.6086 59.9815 45.566C60.1918 45.5234 60.4094 45.5341 60.6145 45.5972C60.8196 45.6602 61.0056 45.7736 61.1556 45.927Z" fill="#FF8B7B"/>
<path d="M53.1772 56.4704C53.1772 56.4704 52.3529 52.9614 57.6191 54.4962C62.8854 56.0311 62.4461 59.0303 62.4461 59.0303L53.1772 56.4704Z" fill="#DE4589"/>
<path opacity="0.5" d="M53.1772 56.4704C53.1772 56.4704 52.3529 52.9614 57.6191 54.4962C62.8854 56.0311 62.4461 59.0303 62.4461 59.0303L53.1772 56.4704Z" fill="white"/>
<path d="M46.1323 80.9687C46.1323 80.9687 48.5838 72.535 48.3723 67.0626C48.1607 61.5902 46.2028 55.0819 55.2548 56.107C64.3067 57.132 66.2375 60.2723 66.2375 65.2457C66.2375 70.2192 63.6939 84.3367 63.6939 84.3367C63.6939 84.3367 54.4955 86.7502 46.1323 80.9687Z" fill="#DE4589"/>
<path opacity="0.1" d="M66.2376 65.2458C66.2607 64.1471 66.1237 63.0508 65.8308 61.9916L62.8262 60.5869L61.1123 63.1089C61.1123 63.1089 63.5529 68.5921 65.7712 70.8375C66.0269 68.9833 66.1826 67.1167 66.2376 65.2458Z" fill="#0D1A2E"/>
<path d="M69.3614 63.098C69.3614 63.098 72.301 66.0268 73.4996 67.2037L82.6329 64.6871L83.4193 62.3225L84.7915 62.2465L88.9514 61.0045L90.4971 62.5286L88.9948 65.7827L84.0647 66.7372C84.0647 66.7372 76.0324 71.1737 73.0874 70.8917C70.1424 70.6097 66.2754 67.0952 66.2754 67.0952L69.3614 63.098Z" fill="#FF8B7B"/>
<path d="M62.0285 57.7829C64.5559 58.1517 67.1375 60.1584 71.151 63.7109C70.1976 65.6869 68.7333 67.3722 66.9097 68.5921C66.9097 68.5921 64.5667 67.567 61.7844 64.02C58.4001 59.7571 60.4774 57.5551 62.0285 57.7829Z" fill="#DE4589"/>
<path d="M161.818 194.734C160.955 194.734 160.267 194.479 160.294 193.649L162.073 137.721H165.115L163.336 193.741C163.309 194.517 162.637 194.734 161.818 194.734Z" fill="#0D1A2E"/>
<path opacity="0.2" d="M161.818 194.734C160.955 194.734 160.267 194.479 160.294 193.649L162.073 137.721H165.115L163.336 193.741C163.309 194.517 162.637 194.734 161.818 194.734Z" fill="white"/>
<path d="M191.767 137.672H153.856V145.65H191.767V137.672Z" fill="#0D1A2E"/>
<path opacity="0.2" d="M191.767 137.672H153.856V145.65H191.767V137.672Z" fill="white"/>
<path d="M201.491 137.672H191.767V145.65H201.491V137.672Z" fill="#DE4589"/>
<path d="M201.491 137.672H191.767V145.65H201.491V137.672Z" fill="#0D1A2E"/>
<path opacity="0.2" d="M201.491 137.672H191.767V145.65H201.491V137.672Z" fill="white"/>
<path d="M204.588 194.734C205.456 194.734 206.15 194.457 206.101 193.584L202.999 137.721H199.957L203.07 193.779C203.113 194.539 203.78 194.734 204.588 194.734Z" fill="#0D1A2E"/>
<path opacity="0.2" d="M204.588 194.734C205.456 194.734 206.15 194.457 206.101 193.584L202.999 137.721H199.957L203.07 193.779C203.113 194.539 203.78 194.734 204.588 194.734Z" fill="white"/>
<path d="M193.519 194.734C194.375 194.734 195.064 194.479 195.037 193.649L193.258 137.721H190.194L191.973 193.741C192.022 194.517 192.694 194.734 193.519 194.734Z" fill="#0D1A2E"/>
<path opacity="0.2" d="M193.519 194.734C194.375 194.734 195.064 194.479 195.037 193.649L193.258 137.721H190.194L191.973 193.741C192.022 194.517 192.694 194.734 193.519 194.734Z" fill="white"/>
<path d="M150.748 194.734C149.875 194.734 149.181 194.457 149.229 193.584L152.337 137.721H155.38L152.261 193.779C152.229 194.539 151.551 194.734 150.748 194.734Z" fill="#0D1A2E"/>
<path opacity="0.2" d="M150.748 194.734C149.875 194.734 149.181 194.457 149.229 193.584L152.337 137.721H155.38L152.261 193.779C152.229 194.539 151.551 194.734 150.748 194.734Z" fill="white"/>
<path d="M141.382 135.156H213.922C214.113 135.156 214.302 135.193 214.478 135.266C214.655 135.339 214.815 135.447 214.95 135.581C215.085 135.716 215.192 135.877 215.265 136.053C215.338 136.229 215.376 136.418 215.376 136.609V138.724C215.376 139.111 215.222 139.483 214.948 139.756C214.675 140.03 214.304 140.183 213.917 140.183H141.382C140.996 140.183 140.627 140.03 140.354 139.758C140.081 139.485 139.928 139.115 139.928 138.73V136.615C139.928 136.229 140.081 135.859 140.354 135.587C140.627 135.314 140.996 135.161 141.382 135.161V135.156Z" fill="#0D1A2E"/>
<path opacity="0.5" d="M141.382 135.156H213.922C214.113 135.156 214.302 135.193 214.478 135.266C214.655 135.339 214.815 135.447 214.95 135.581C215.085 135.716 215.192 135.877 215.265 136.053C215.338 136.229 215.376 136.418 215.376 136.609V138.724C215.376 139.111 215.222 139.483 214.948 139.756C214.675 140.03 214.304 140.183 213.917 140.183H141.382C140.996 140.183 140.627 140.03 140.354 139.758C140.081 139.485 139.928 139.115 139.928 138.73V136.615C139.928 136.229 140.081 135.859 140.354 135.587C140.627 135.314 140.996 135.161 141.382 135.161V135.156Z" fill="white"/>
<path d="M180.914 119.579V123.587C181.016 123.587 181.114 123.628 181.186 123.7C181.259 123.772 181.299 123.87 181.299 123.972C181.299 124.074 181.259 124.172 181.186 124.245C181.114 124.317 181.016 124.357 180.914 124.357C179.385 124.357 177.855 124.357 176.326 124.357V118.804H180.914C181.017 118.804 181.116 118.844 181.188 118.917C181.261 118.99 181.302 119.089 181.302 119.191C181.302 119.294 181.261 119.393 181.188 119.466C181.116 119.538 181.017 119.579 180.914 119.579Z" fill="#DE4589"/>
<path opacity="0.3" d="M180.914 119.579V123.587C181.016 123.587 181.114 123.628 181.186 123.7C181.259 123.772 181.299 123.87 181.299 123.972C181.299 124.074 181.259 124.172 181.186 124.245C181.114 124.317 181.016 124.357 180.914 124.357C179.385 124.357 177.855 124.357 176.326 124.357V118.804H180.914C181.017 118.804 181.116 118.844 181.188 118.917C181.261 118.99 181.302 119.089 181.302 119.191C181.302 119.294 181.261 119.393 181.188 119.466C181.116 119.538 181.017 119.579 180.914 119.579Z" fill="white"/>
<path d="M180.914 119.585H177.351V123.587H180.914V119.585Z" fill="#DE4589"/>
<path opacity="0.6" d="M180.914 119.585H177.351V123.587H180.914V119.585Z" fill="white"/>
<path d="M178.099 119.194H158.428C157.576 119.194 156.888 120.279 156.888 121.586C156.888 122.893 157.576 123.972 158.428 123.972H178.099V119.194Z" fill="#DE4589"/>
<path opacity="0.9" d="M178.099 119.194H158.428C157.576 119.194 156.888 120.279 156.888 121.586C156.888 122.893 157.576 123.972 158.428 123.972H178.099V119.194Z" fill="white"/>
<path d="M178.099 124.357C174.053 124.357 162.686 124.433 158.64 124.357C155.868 124.309 155.722 118.999 158.439 118.809C160.332 118.679 162.279 118.809 164.177 118.809H178.099C178.202 118.809 178.3 118.85 178.372 118.922C178.444 118.994 178.485 119.092 178.485 119.194C178.485 119.296 178.444 119.394 178.372 119.466C178.3 119.539 178.202 119.579 178.099 119.579H159.28C158.39 119.579 157.756 119.579 157.414 120.637C157.116 121.543 157.213 123.392 158.428 123.587C158.565 123.598 158.703 123.598 158.84 123.587H178.099C178.202 123.587 178.3 123.628 178.372 123.7C178.444 123.772 178.485 123.87 178.485 123.972C178.485 124.074 178.444 124.172 178.372 124.245C178.3 124.317 178.202 124.357 178.099 124.357Z" fill="#DE4589"/>
<g opacity="0.2">
<path opacity="0.2" d="M178.099 124.357C174.053 124.357 162.686 124.433 158.64 124.357C155.868 124.309 155.722 118.999 158.439 118.809C160.332 118.679 162.279 118.809 164.177 118.809H178.099C178.202 118.809 178.3 118.85 178.372 118.922C178.444 118.994 178.485 119.092 178.485 119.194C178.485 119.296 178.444 119.394 178.372 119.466C178.3 119.539 178.202 119.579 178.099 119.579H159.28C158.39 119.579 157.756 119.579 157.414 120.637C157.116 121.543 157.213 123.392 158.428 123.587C158.565 123.598 158.703 123.598 158.84 123.587H178.099C178.202 123.587 178.3 123.628 178.372 123.7C178.444 123.772 178.485 123.87 178.485 123.972C178.485 124.074 178.444 124.172 178.372 124.245C178.3 124.317 178.202 124.357 178.099 124.357Z" fill="white"/>
</g>
<path d="M180.231 124.992V128.707C180.318 128.718 180.398 128.76 180.455 128.825C180.513 128.891 180.545 128.975 180.545 129.062C180.545 129.15 180.513 129.234 180.455 129.299C180.398 129.365 180.318 129.407 180.231 129.418H175.979V124.265H180.231C180.327 124.265 180.42 124.303 180.488 124.372C180.556 124.44 180.594 124.532 180.594 124.629C180.594 124.725 180.556 124.817 180.488 124.885C180.42 124.954 180.327 124.992 180.231 124.992Z" fill="#DE4589"/>
<path opacity="0.3" d="M180.231 124.992V128.707C180.318 128.718 180.398 128.76 180.455 128.825C180.513 128.891 180.545 128.975 180.545 129.062C180.545 129.15 180.513 129.234 180.455 129.299C180.398 129.365 180.318 129.407 180.231 129.418H175.979V124.265H180.231C180.327 124.265 180.42 124.303 180.488 124.372C180.556 124.44 180.594 124.532 180.594 124.629C180.594 124.725 180.556 124.817 180.488 124.885C180.42 124.954 180.327 124.992 180.231 124.992Z" fill="white"/>
<path d="M180.231 124.997H176.928V128.707H180.231V124.997Z" fill="#DE4589"/>
<path opacity="0.6" d="M180.231 124.997H176.928V128.707H180.231V124.997Z" fill="white"/>
<path d="M177.622 124.634H159.404C158.618 124.634 157.978 125.627 157.978 126.847C157.978 128.067 158.618 129.06 159.404 129.06H177.622V124.634Z" fill="#DE4589"/>
<path opacity="0.9" d="M177.622 124.634H159.404C158.618 124.634 157.978 125.627 157.978 126.847C157.978 128.067 158.618 129.06 159.404 129.06H177.622V124.634Z" fill="white"/>
<path d="M177.622 129.418C173.875 129.418 163.347 129.483 159.6 129.418C157.034 129.369 156.888 124.455 159.415 124.281C161.167 124.162 162.973 124.281 164.73 124.281H177.622C177.709 124.292 177.789 124.334 177.846 124.4C177.904 124.465 177.936 124.549 177.936 124.637C177.936 124.724 177.904 124.808 177.846 124.874C177.789 124.939 177.709 124.981 177.622 124.992H160.196C159.372 124.992 158.786 124.992 158.466 125.968C158.19 126.809 158.276 128.523 159.404 128.707C159.533 128.715 159.661 128.715 159.79 128.707H177.622C177.709 128.718 177.789 128.76 177.846 128.825C177.904 128.891 177.936 128.975 177.936 129.062C177.936 129.15 177.904 129.234 177.846 129.299C177.789 129.365 177.709 129.407 177.622 129.418Z" fill="#DE4589"/>
<path d="M182.346 130.193V134.613C182.458 134.613 182.566 134.658 182.645 134.737C182.725 134.817 182.769 134.924 182.769 135.036C182.769 135.149 182.725 135.256 182.645 135.336C182.566 135.415 182.458 135.459 182.346 135.459C180.665 135.459 178.978 135.459 177.292 135.459V129.353H182.346C182.45 129.364 182.545 129.414 182.614 129.491C182.683 129.569 182.722 129.669 182.722 129.773C182.722 129.877 182.683 129.977 182.614 130.055C182.545 130.132 182.45 130.181 182.346 130.193Z" fill="#DE4589"/>
<path opacity="0.3" d="M182.346 130.193V134.613C182.458 134.613 182.566 134.658 182.645 134.737C182.725 134.817 182.769 134.924 182.769 135.036C182.769 135.149 182.725 135.256 182.645 135.336C182.566 135.415 182.458 135.459 182.346 135.459C180.665 135.459 178.978 135.459 177.292 135.459V129.353H182.346C182.45 129.364 182.545 129.414 182.614 129.491C182.683 129.569 182.722 129.669 182.722 129.773C182.722 129.877 182.683 129.977 182.614 130.055C182.545 130.132 182.45 130.181 182.346 130.193Z" fill="white"/>
<path d="M182.346 130.204H178.419V134.619H182.346V130.204Z" fill="#DE4589"/>
<path opacity="0.6" d="M182.346 130.204H178.419V134.619H182.346V130.204Z" fill="white"/>
<path d="M179.244 129.776H157.55C156.617 129.776 155.857 130.952 155.857 132.406C155.857 133.859 156.617 135.042 157.55 135.042H179.244V129.776Z" fill="#DE4589"/>
<path opacity="0.9" d="M179.244 129.776H157.55C156.617 129.776 155.857 130.952 155.857 132.406C155.857 133.859 156.617 135.042 157.55 135.042H179.244V129.776Z" fill="white"/>
<path d="M179.244 135.465C174.786 135.465 162.257 135.546 157.799 135.465C154.746 135.411 154.583 129.559 157.577 129.352C159.665 129.211 161.813 129.352 163.901 129.352H179.244C179.356 129.352 179.464 129.397 179.543 129.476C179.623 129.556 179.667 129.663 179.667 129.776C179.667 129.888 179.623 129.995 179.543 130.075C179.464 130.154 179.356 130.199 179.244 130.199H158.504C157.528 130.199 156.828 130.199 156.449 131.365C156.123 132.363 156.226 134.396 157.561 134.619C157.714 134.63 157.868 134.63 158.022 134.619H179.244C179.356 134.619 179.464 134.663 179.543 134.743C179.623 134.822 179.667 134.93 179.667 135.042C179.667 135.154 179.623 135.262 179.543 135.341C179.464 135.42 179.356 135.465 179.244 135.465Z" fill="#DE4589"/>
<g opacity="0.2">
<path opacity="0.2" d="M179.244 135.465C174.786 135.465 162.257 135.546 157.799 135.465C154.746 135.411 154.583 129.559 157.577 129.352C159.665 129.211 161.813 129.352 163.901 129.352H179.244C179.356 129.352 179.464 129.397 179.543 129.476C179.623 129.556 179.667 129.663 179.667 129.776C179.667 129.888 179.623 129.995 179.543 130.075C179.464 130.154 179.356 130.199 179.244 130.199H158.504C157.528 130.199 156.828 130.199 156.449 131.365C156.123 132.363 156.226 134.396 157.561 134.619C157.714 134.63 157.868 134.63 158.022 134.619H179.244C179.356 134.619 179.464 134.663 179.543 134.743C179.623 134.822 179.667 134.93 179.667 135.042C179.667 135.154 179.623 135.262 179.543 135.341C179.464 135.42 179.356 135.465 179.244 135.465Z" fill="#0D1A2E"/>
</g>
</svg>
