<svg width="226" height="200" viewBox="0 0 226 200" fill="none" xmlns="http://www.w3.org/2000/svg">
<path d="M33.4215 182.781C77.3731 205.74 148.633 205.74 192.584 182.781C236.536 159.823 236.536 122.591 192.584 99.6325C148.633 76.6741 77.3731 76.6692 33.4166 99.6325C-10.5399 122.596 -10.535 159.818 33.4215 182.781Z" fill="white"/>
<path d="M79.5867 184.776C87.1357 184.776 93.2554 181.859 93.2554 178.261C93.2554 174.663 87.1357 171.746 79.5867 171.746C72.0377 171.746 65.918 174.663 65.918 178.261C65.918 181.859 72.0377 184.776 79.5867 184.776Z" fill="#DBDBDB"/>
<path d="M34.3141 108.01L36.567 107.44C37.2844 104.464 37.7525 101.433 37.9665 98.3793C38.5468 91.0646 35.7038 85.5444 32.1635 83.2622C27.96 80.5558 25.7559 83.0281 26.0094 84.9738C26.2776 87.0268 28.4964 89.9283 29.5546 91.9326C31.0858 94.8341 33.407 99.2326 34.3141 108.01Z" fill="#DE4589"/>
<path opacity="0.2" d="M34.3141 108.01L36.567 107.44C37.2844 104.464 37.7525 101.433 37.9665 98.3793C38.5468 91.0646 35.7038 85.5444 32.1635 83.2622C27.96 80.5558 25.7559 83.0281 26.0094 84.9738C26.2776 87.0268 28.4964 89.9283 29.5546 91.9326C31.0858 94.8341 33.407 99.2326 34.3141 108.01Z" fill="#0D1A2E"/>
<path d="M35.4111 107.903H35.377C35.3555 107.899 35.335 107.891 35.3168 107.879C35.2985 107.867 35.2828 107.851 35.2705 107.833C35.2583 107.815 35.2498 107.794 35.2454 107.773C35.2411 107.752 35.2411 107.729 35.2453 107.708C37.9371 94.6927 32.4072 85.4128 28.9888 83.5549C28.9508 83.5334 28.9229 83.4977 28.911 83.4557C28.8992 83.4138 28.9043 83.3688 28.9254 83.3306C28.9351 83.3109 28.9488 83.2934 28.9656 83.2792C28.9823 83.265 29.0018 83.2543 29.0228 83.2479C29.0438 83.2415 29.0659 83.2395 29.0878 83.242C29.1096 83.2445 29.1307 83.2514 29.1497 83.2623C32.7486 85.2129 38.3272 94.4245 35.572 107.776C35.5625 107.812 35.5417 107.844 35.5127 107.867C35.4837 107.889 35.448 107.902 35.4111 107.903Z" fill="white"/>
<path d="M34.3139 108.01C34.4756 105.57 34.1592 103.122 33.3825 100.803C32.1049 97.2187 30.1006 93.8978 26.0678 92.6689C22.035 91.4401 18.8994 94.3562 20.8841 97.0285C22.8688 99.7008 30.2567 101.364 31.6952 109.746L34.3139 108.01Z" fill="#DE4589"/>
<path d="M33.1676 108.942C33.124 108.937 33.0841 108.915 33.0559 108.882C33.0278 108.848 33.0136 108.805 33.0164 108.761C33.6211 102.012 29.0665 95.3168 23.0782 94.1319C23.0567 94.1278 23.0362 94.1195 23.0179 94.1074C22.9997 94.0954 22.984 94.0799 22.9717 94.0617C22.9595 94.0436 22.951 94.0232 22.9466 94.0018C22.9423 93.9803 22.9423 93.9583 22.9465 93.9368C22.95 93.915 22.9579 93.8941 22.9697 93.8755C22.9816 93.8569 22.9971 93.8409 23.0154 93.8286C23.0337 93.8162 23.0544 93.8078 23.0761 93.8037C23.0978 93.7997 23.1201 93.8002 23.1416 93.8051C29.2908 95.0145 33.9624 101.871 33.348 108.781C33.3482 108.804 33.3435 108.826 33.3342 108.847C33.3249 108.868 33.3113 108.887 33.2942 108.902C33.2771 108.917 33.257 108.929 33.2352 108.936C33.2133 108.942 33.1903 108.944 33.1676 108.942Z" fill="white"/>
<path d="M180.35 162.476C180.35 162.476 181.115 155.239 185.626 150.377C190.137 145.515 194.96 145.559 196.842 147.305C198.724 149.051 196.788 151.767 192.599 154.415C189.01 156.682 184.265 161.827 182.807 165.299L180.35 162.476Z" fill="#DE4589"/>
<path opacity="0.2" d="M180.35 162.476C180.35 162.476 181.115 155.239 185.626 150.377C190.137 145.515 194.96 145.559 196.842 147.305C198.724 149.051 196.788 151.767 192.599 154.415C189.01 156.682 184.265 161.827 182.807 165.299L180.35 162.476Z" fill="#0D1A2E"/>
<path d="M181.388 163.841H181.344C181.302 163.832 181.264 163.806 181.241 163.769C181.217 163.733 181.209 163.689 181.217 163.646C183.134 156.263 189.571 148.826 194.993 147.734C195.015 147.73 195.037 147.729 195.058 147.733C195.08 147.737 195.1 147.746 195.119 147.758C195.137 147.77 195.153 147.785 195.165 147.803C195.178 147.821 195.186 147.842 195.191 147.863C195.195 147.885 195.195 147.907 195.191 147.928C195.187 147.95 195.179 147.97 195.167 147.989C195.155 148.007 195.14 148.023 195.121 148.035C195.103 148.048 195.083 148.056 195.062 148.061C189.751 149.134 183.431 156.458 181.539 163.734C181.527 163.765 181.507 163.791 181.48 163.81C181.453 163.83 181.421 163.84 181.388 163.841Z" fill="white"/>
<path d="M181.13 179.436C181.13 179.436 184.46 180.382 186.865 178.729C188.918 177.315 188.405 175.803 188.644 174.647C188.883 173.492 189.888 172.858 191.57 172.638C193.638 172.37 195.569 172.043 195.93 169.859C196.252 167.932 193.072 166.894 194.018 165.011C194.735 163.592 196.344 162.646 197.671 161.598C198.997 160.549 198.207 158.257 195.037 158.253C191.107 158.253 190.288 159.716 188.537 159.945C186.786 160.174 185.806 159.164 183.89 159.418C181.769 159.696 180.73 161.725 180.681 164.255L181.13 179.436Z" fill="#DE4589"/>
<path d="M180.91 172.214H180.856C180.835 172.207 180.816 172.196 180.799 172.181C180.783 172.166 180.769 172.148 180.76 172.128C180.75 172.108 180.745 172.086 180.744 172.064C180.743 172.042 180.746 172.02 180.754 171.999C182.505 167.059 191.945 160.184 195.9 159.481C195.922 159.477 195.944 159.477 195.966 159.482C195.988 159.487 196.008 159.496 196.027 159.508C196.045 159.521 196.06 159.537 196.072 159.556C196.084 159.575 196.092 159.596 196.095 159.618C196.1 159.64 196.099 159.662 196.095 159.684C196.09 159.706 196.081 159.726 196.068 159.744C196.056 159.763 196.039 159.778 196.021 159.79C196.002 159.802 195.981 159.809 195.959 159.813C192.058 160.505 182.792 167.254 181.071 172.102C181.058 172.134 181.036 172.162 181.008 172.182C180.979 172.202 180.945 172.213 180.91 172.214Z" fill="white"/>
<path d="M193.813 169.317C193.788 169.324 193.761 169.324 193.735 169.317C191.297 168.054 187.123 167.133 183.924 167.82C183.882 167.825 183.839 167.814 183.805 167.79C183.771 167.765 183.747 167.729 183.737 167.687C183.728 167.646 183.735 167.603 183.756 167.566C183.777 167.53 183.81 167.502 183.85 167.489C187.127 166.786 191.38 167.728 193.891 169.02C193.911 169.03 193.928 169.043 193.943 169.06C193.957 169.076 193.968 169.096 193.975 169.117C193.981 169.138 193.984 169.16 193.982 169.181C193.98 169.203 193.974 169.225 193.964 169.244C193.947 169.268 193.924 169.287 193.898 169.299C193.871 169.312 193.842 169.318 193.813 169.317Z" fill="white"/>
<path d="M185.606 166.084C185.562 166.084 185.52 166.067 185.489 166.036C185.458 166.004 185.441 165.962 185.441 165.918C185.441 162.968 184.465 161.529 184.441 161.529C184.415 161.493 184.405 161.448 184.412 161.404C184.419 161.36 184.444 161.321 184.48 161.295C184.516 161.27 184.561 161.259 184.605 161.266C184.649 161.274 184.688 161.298 184.714 161.334C184.758 161.393 185.782 162.861 185.777 165.928C185.773 165.971 185.754 166.01 185.722 166.039C185.691 166.068 185.649 166.084 185.606 166.084Z" fill="white"/>
<path d="M62.3441 0.372067L62.6367 0.201392C62.8982 0.0689916 63.1872 0 63.4803 0C63.7734 0 64.0624 0.0689916 64.324 0.201392L112.157 27.8217C112.403 27.9821 112.607 28.1982 112.754 28.4524C112.9 28.7065 112.985 28.9917 113.001 29.2846V95.9508C112.984 96.2436 112.899 96.5285 112.753 96.7825C112.606 97.0366 112.402 97.2527 112.157 97.4138L111.865 97.5796C111.604 97.7143 111.315 97.7846 111.021 97.7846C110.727 97.7846 110.438 97.7143 110.177 97.5796L62.3441 69.9641C62.0979 69.8043 61.8931 69.5883 61.7465 69.3341C61.5998 69.0798 61.5155 68.7943 61.5005 68.5012V1.83501C61.5159 1.54194 61.6004 1.25667 61.747 1.00245C61.8936 0.748217 62.0982 0.532224 62.3441 0.372067Z" fill="white"/>
<path d="M113.001 62.6153V29.2847C112.993 28.9897 112.907 28.7021 112.752 28.4508L110.021 30.0308V97.4967L110.173 97.5796C110.433 97.7143 110.723 97.7846 111.016 97.7846C111.31 97.7846 111.599 97.7143 111.86 97.5796L112.152 97.4138C112.398 97.2528 112.602 97.0366 112.748 96.7825C112.895 96.5285 112.98 96.2437 112.996 95.9509L113.001 62.6153Z" fill="#DBDBDB"/>
<path d="M62.3441 1.34738L110.177 28.9628C110.422 29.1238 110.626 29.34 110.773 29.5941C110.919 29.8481 111.004 30.133 111.021 30.4258V97.0919C111.021 97.6332 110.641 97.8527 110.177 97.5796L62.3441 69.9641C62.0979 69.8043 61.8931 69.5884 61.7465 69.3341C61.5998 69.0798 61.5155 68.7944 61.5005 68.5012V1.83503C61.5005 1.29861 61.876 1.07917 62.3441 1.34738Z" fill="#DBDBDB"/>
<path d="M68.2836 9.35457L104.233 30.1088C104.479 30.2687 104.684 30.4846 104.831 30.7389C104.977 30.9932 105.061 31.2786 105.077 31.5718V34.1953C105.077 34.7317 104.701 34.9511 104.233 34.6829L68.2836 13.9385C68.0385 13.7774 67.8345 13.5612 67.688 13.3072C67.5415 13.0531 67.4565 12.7683 67.4399 12.4755V9.84222C67.4399 9.30093 67.8203 9.06198 68.2836 9.35457Z" fill="#DBDBDB"/>
<path d="M75.8962 32.6529C77.8297 31.5365 77.8296 27.9164 75.8959 24.5671C73.9621 21.2178 70.8271 19.4077 68.8936 20.524C66.96 21.6403 66.9602 25.2604 68.8939 28.6097C70.8276 31.959 73.9626 33.7692 75.8962 32.6529Z" fill="#DBDBDB"/>
<path d="M72.4333 22.7161C71.458 22.1601 70.6973 22.6088 70.6973 23.7157C70.7285 24.3187 70.9021 24.9057 71.2038 25.4287C71.5056 25.9517 71.9269 26.3957 72.4333 26.7245C73.4086 27.2804 74.1693 26.8318 74.1693 25.7492C74.1411 25.1422 73.969 24.5506 73.6671 24.0233C73.3653 23.4959 72.9424 23.0478 72.4333 22.7161Z" fill="#DE4589"/>
<path d="M72.8871 27.5389L71.9118 26.9684C70.3318 26.0613 69.0542 26.7977 69.0542 28.6166V28.8653C69.8745 30.2681 71.0244 31.4499 72.4043 32.3081C73.6966 33.0542 74.8426 33.1566 75.7496 32.7275V32.469C75.6928 31.4803 75.4041 30.5188 74.9068 29.6623C74.4095 28.8058 73.7177 28.0784 72.8871 27.5389Z" fill="#DE4589"/>
<path d="M68.4981 34.639L76.3005 39.14C76.6014 39.3295 76.8536 39.5871 77.0365 39.8921C77.2195 40.1971 77.3282 40.5408 77.3538 40.8955C77.3538 41.5246 76.8662 41.7635 76.3005 41.427L68.4981 36.9309C68.1963 36.742 67.9432 36.4846 67.7594 36.1796C67.5755 35.8746 67.4661 35.5306 67.4399 35.1754C67.4399 34.5415 67.913 34.3025 68.4981 34.639Z" fill="#DBDBDB"/>
<path d="M68.4981 39.2131L76.3005 43.7141C76.6008 43.9031 76.8525 44.16 77.0355 44.4641C77.2184 44.7681 77.3275 45.1109 77.3538 45.4647C77.3538 46.0987 76.8662 46.3376 76.3005 46.0011L68.4981 41.5002C68.196 41.3115 67.9427 41.0542 67.7589 40.7491C67.575 40.444 67.4657 40.0999 67.4399 39.7446C67.4399 39.1156 67.913 38.8766 68.4981 39.2131Z" fill="#DBDBDB"/>
<path d="M68.4981 43.7824L76.3005 48.2833C76.5986 48.472 76.8486 48.7275 77.0306 49.0298C77.2126 49.332 77.3216 49.6725 77.3489 50.0242C77.3489 50.6533 76.8613 50.8922 76.2956 50.5558L68.4933 46.0597C68.1914 45.8707 67.9383 45.6133 67.7545 45.3083C67.5706 45.0033 67.4612 44.6593 67.4351 44.3041C67.4399 43.6848 67.913 43.4459 68.4981 43.7824Z" fill="#DBDBDB"/>
<path d="M68.4981 48.3565L76.3005 52.8575C76.5999 53.0471 76.8507 53.3042 77.0328 53.6082C77.2148 53.9123 77.3231 54.2547 77.3489 54.6082C77.3489 55.2421 76.8613 55.4811 76.2956 55.1446L68.4933 50.6436C68.1911 50.4549 67.9378 50.1976 67.754 49.8925C67.5701 49.5875 67.4608 49.2433 67.4351 48.8881C67.4399 48.259 67.913 48.0201 68.4981 48.3565Z" fill="#DBDBDB"/>
<path d="M68.4981 55.2226L76.3005 59.7187C76.607 59.9198 76.862 60.19 77.0449 60.5076C77.2279 60.8252 77.3337 61.1814 77.3538 61.5474V65.9704C77.3538 66.6433 76.8662 66.9164 76.3005 66.5799L68.4981 62.0838C68.1902 61.8839 67.9338 61.614 67.75 61.2962C67.5661 60.9785 67.4598 60.6217 67.4399 60.2551V55.8322C67.4399 55.1544 67.913 54.9008 68.4981 55.2226Z" fill="#DE4589"/>
<path d="M84.3419 25.4859L104.023 36.8578C104.324 37.0469 104.575 37.3038 104.758 37.6078C104.941 37.9119 105.05 38.2546 105.077 38.6085C105.077 39.2424 104.589 39.4814 104.023 39.1449L84.3419 27.7827C84.0416 27.5937 83.7898 27.3368 83.6069 27.0328C83.424 26.7287 83.3149 26.386 83.2886 26.0321C83.2886 25.3884 83.7616 25.1543 84.3419 25.4859Z" fill="#DE4589"/>
<path d="M84.3419 30.06L104.023 41.4222C104.324 41.6112 104.575 41.8681 104.758 42.1722C104.941 42.4762 105.05 42.819 105.077 43.1728C105.077 43.8068 104.589 44.0457 104.023 43.7092L84.3419 32.3471C84.0416 32.158 83.7898 31.9012 83.6069 31.5971C83.424 31.293 83.3149 30.9503 83.2886 30.5964C83.2886 29.9625 83.7616 29.7235 84.3419 30.06Z" fill="#DE4589"/>
<path d="M84.3419 34.6341L104.023 45.9963C104.324 46.1853 104.575 46.4422 104.758 46.7462C104.941 47.0503 105.05 47.3931 105.077 47.7469C105.077 48.3809 104.589 48.6198 104.023 48.2833L84.3419 36.9212C84.0416 36.7321 83.7898 36.4753 83.6069 36.1712C83.424 35.8671 83.3149 35.5244 83.2886 35.1705C83.2886 34.5366 83.7616 34.2976 84.3419 34.6341Z" fill="#DE4589"/>
<path d="M151.691 42.5633L153.544 41.4954C153.871 41.3296 154.232 41.2432 154.599 41.2432C154.966 41.2432 155.328 41.3296 155.655 41.4954L197.105 65.4388C197.413 65.6388 197.669 65.9086 197.853 66.2264C198.037 66.5442 198.143 66.9009 198.163 67.2675V119.724C198.143 120.09 198.037 120.447 197.853 120.765C197.669 121.083 197.413 121.352 197.105 121.552L195.257 122.62C194.93 122.786 194.568 122.873 194.201 122.873C193.834 122.873 193.473 122.786 193.145 122.62L151.671 98.6768C151.365 98.4758 151.11 98.2056 150.927 97.8879C150.744 97.5703 150.638 97.2142 150.618 96.8482V44.392C150.64 44.0243 150.749 43.667 150.935 43.3492C151.122 43.0315 151.38 42.7622 151.691 42.5633Z" fill="#25497D"/>
<path d="M198.178 93.4931V67.2674C198.166 66.8984 198.058 66.5388 197.866 66.2239L192.233 69.4765V122.084L193.16 122.62C193.487 122.786 193.849 122.872 194.216 122.872C194.583 122.872 194.944 122.786 195.271 122.62L197.12 121.552C197.428 121.352 197.684 121.082 197.868 120.765C198.052 120.447 198.158 120.09 198.178 119.724V93.4931Z" fill="#0D1A2E"/>
<path d="M151.691 43.7824L193.14 67.7258C193.447 67.9269 193.702 68.1971 193.885 68.5147C194.068 68.8323 194.174 69.1885 194.194 69.5545V122.011C194.194 122.684 193.706 122.957 193.14 122.62L151.666 98.6768C151.36 98.4757 151.105 98.2055 150.922 97.8879C150.739 97.5702 150.633 97.2141 150.613 96.8481V44.3919C150.637 43.719 151.11 43.4459 151.691 43.7824Z" fill="#25497D"/>
<path d="M190.185 69.418L154.66 48.9076C154.075 48.5711 153.607 48.8442 153.607 49.5172V89.3969C153.627 89.7629 153.733 90.1191 153.916 90.4367C154.099 90.7543 154.354 91.0245 154.66 91.2256L190.185 111.736C190.77 112.072 191.244 111.799 191.244 111.126V71.2467C191.224 70.8801 191.117 70.5234 190.933 70.2056C190.75 69.8878 190.493 69.618 190.185 69.418Z" fill="white"/>
<path d="M161.829 57.8266C162.823 58.4767 163.65 59.3519 164.243 60.3813C164.836 61.4106 165.178 62.5652 165.242 63.7515C165.242 65.9361 163.711 66.8188 161.829 65.7265C160.834 65.0769 160.006 64.2019 159.413 63.1724C158.82 62.1429 158.478 60.988 158.415 59.8016C158.41 57.612 159.941 56.7294 161.829 57.8266Z" fill="#DE4589"/>
<path d="M170.714 82.0919L164.374 72.5048C163.345 70.9541 161.57 70.8712 160.405 72.3243L153.607 80.746V89.4115C153.627 89.7781 153.733 90.1348 153.917 90.4526C154.101 90.7704 154.357 91.0402 154.665 91.2402L190.185 111.721C190.77 112.058 191.244 111.785 191.244 111.112V88.6312L182.417 69.9495C181.622 68.2671 180.13 68.1501 179.091 69.691L170.714 82.0919Z" fill="#DE4589"/>
<path d="M160.673 160.896L172.294 154.186C172.909 153.785 173.421 153.245 173.787 152.61C174.154 151.974 174.366 151.261 174.405 150.528V84.4961C174.365 83.7635 174.153 83.0506 173.786 82.4152C173.42 81.7798 172.908 81.2397 172.294 80.8387L93.3243 35.2438C92.6699 34.9118 91.9465 34.7388 91.2128 34.7388C90.479 34.7388 89.7556 34.9118 89.1013 35.2438L77.4758 41.9538C76.8613 42.3548 76.35 42.8948 75.9832 43.5303C75.6163 44.1657 75.4043 44.8785 75.3643 45.6111V111.643C75.4043 112.376 75.6163 113.089 75.9832 113.724C76.35 114.36 76.8613 114.9 77.4758 115.301L156.475 160.896C157.126 161.224 157.845 161.395 158.574 161.395C159.303 161.395 160.022 161.224 160.673 160.896Z" fill="#25497D"/>
<path d="M174.391 84.4961C174.366 83.7611 174.154 83.0446 173.776 82.4138L156.582 92.3521V160.954C157.223 161.254 157.924 161.405 158.632 161.395C159.34 161.385 160.036 161.214 160.668 160.896L172.299 154.181C172.91 153.779 173.418 153.239 173.781 152.604C174.145 151.97 174.353 151.259 174.391 150.528V84.4961Z" fill="#25497D"/>
<path d="M156.45 90.0114L77.4758 44.4164C76.3103 43.7435 75.3643 44.2896 75.3643 45.6355V111.643C75.4043 112.376 75.6163 113.089 75.9832 113.724C76.35 114.36 76.8613 114.9 77.4758 115.301L156.475 160.896C157.64 161.569 158.586 161.022 158.586 159.677V93.6443C158.54 92.9138 158.322 92.2044 157.951 91.5733C157.58 90.9423 157.066 90.4072 156.45 90.0114Z" fill="#25497D"/>
<path d="M163.379 85.9883C163.994 86.3892 164.505 86.9293 164.872 87.5647C165.239 88.2001 165.451 88.913 165.491 89.6456V158.111L167.471 156.97V88.4996C167.431 87.767 167.219 87.0542 166.852 86.4187C166.485 85.7833 165.974 85.2433 165.359 84.8423L84.2733 38.0282L82.2935 39.1742L163.379 85.9883Z" fill="#0D1A2E"/>
<path d="M165.359 84.8424L84.4099 38.1063L82.3667 39.2133L163.384 85.9884C164.008 86.3774 164.522 86.9197 164.877 87.5635L166.856 86.4224C166.502 85.7755 165.986 85.2313 165.359 84.8424Z" fill="#25497D"/>
<path d="M153.085 74.3238L151.691 73.5192C151.364 73.3534 151.002 73.267 150.635 73.267C150.268 73.267 149.906 73.3534 149.579 73.5192L144.215 76.6109L143.323 76.3426V77.4837C143.335 77.6152 143.382 77.7411 143.459 77.8482C143.536 77.9554 143.641 78.04 143.762 78.0933L145.61 79.1612C145.937 79.3271 146.299 79.4135 146.666 79.4135C147.032 79.4135 147.394 79.3271 147.721 79.1612L153.534 75.8062C153.654 75.7523 153.757 75.6674 153.834 75.5602C153.91 75.4531 153.956 75.3276 153.968 75.1967V74.0507L153.085 74.3238Z" fill="#0D1A2E"/>
<path d="M153.544 73.4314L151.691 72.3634C151.363 72.1976 151.002 72.1112 150.635 72.1112C150.268 72.1112 149.906 72.1976 149.579 72.3634L143.771 75.7233C143.643 75.7652 143.532 75.8465 143.453 75.9555C143.374 76.0645 143.331 76.1958 143.331 76.3304C143.331 76.4651 143.374 76.5963 143.453 76.7054C143.532 76.8144 143.643 76.8957 143.771 76.9375L145.619 78.0104C145.947 78.1762 146.308 78.2626 146.675 78.2626C147.042 78.2626 147.404 78.1762 147.731 78.0104L153.544 74.6505C153.671 74.6073 153.782 74.5252 153.86 74.4159C153.938 74.3066 153.98 74.1754 153.98 74.0409C153.98 73.9064 153.938 73.7753 153.86 73.666C153.782 73.5566 153.671 73.4746 153.544 73.4314Z" fill="#25497D"/>
<path d="M105.545 46.879L104.17 46.0744C103.842 45.9086 103.479 45.8221 103.112 45.8221C102.744 45.8221 102.381 45.9086 102.053 46.0744L96.6893 49.1661L95.7969 48.8979V50.0243C95.8091 50.1558 95.8562 50.2817 95.9334 50.3888C96.0105 50.496 96.1149 50.5806 96.2358 50.6339L98.0839 51.7019C98.4112 51.8677 98.7729 51.9541 99.1397 51.9541C99.5065 51.9541 99.8682 51.8677 100.195 51.7019L106.008 48.3468C106.129 48.2937 106.233 48.209 106.309 48.1018C106.385 47.9945 106.431 47.8685 106.442 47.7373V46.6108L105.545 46.879Z" fill="#0D1A2E"/>
<path d="M106.003 46.0013L104.15 44.9285C103.823 44.7627 103.461 44.6763 103.094 44.6763C102.728 44.6763 102.366 44.7627 102.039 44.9285L96.2308 48.2884C96.1034 48.3316 95.9928 48.4136 95.9144 48.523C95.8361 48.6323 95.7939 48.7634 95.7939 48.8979C95.7939 49.0324 95.8361 49.1636 95.9144 49.2729C95.9928 49.3822 96.1034 49.4643 96.2308 49.5075L98.079 50.5754C98.4062 50.7412 98.7679 50.8276 99.1347 50.8276C99.5016 50.8276 99.8633 50.7412 100.19 50.5754L106.003 47.2204C106.131 47.1772 106.241 47.0952 106.32 46.9858C106.398 46.8765 106.44 46.7454 106.44 46.6109C106.44 46.4763 106.398 46.3452 106.32 46.2359C106.241 46.1266 106.131 46.0445 106.003 46.0013Z" fill="#25497D"/>
<path d="M120.925 46.6108V53.472L116.965 55.759V45.2942C116.965 44.7529 117.341 44.5383 117.809 44.8065L120.925 46.6108Z" fill="#0D1A2E"/>
<path d="M141.718 53.8816V66.6336L138.792 68.3355L136.813 67.1895V56.7295C136.796 56.4367 136.711 56.1519 136.564 55.8978C136.418 55.6438 136.214 55.4276 135.969 55.2665L120.925 46.6108L117.824 44.8065C117.336 44.5383 116.98 44.7529 116.98 45.2942V55.7542L114.995 54.6082V41.8611C114.991 41.806 114.991 41.7505 114.995 41.6953C115.034 41.4324 115.129 41.1808 115.273 40.9572C115.417 40.7336 115.606 40.5431 115.829 40.3982L117.082 39.6716C117.344 39.5392 117.633 39.4702 117.926 39.4702C118.219 39.4702 118.508 39.5392 118.77 39.6716L140.85 52.4187C141.1 52.5767 141.309 52.7916 141.46 53.0459C141.611 53.3002 141.699 53.5866 141.718 53.8816Z" fill="#25497D"/>
<path d="M138.753 55.5835V68.3355L136.774 67.1895V56.7295C136.757 56.4367 136.672 56.1518 136.525 55.8978C136.379 55.6437 136.175 55.4275 135.93 55.2665L120.925 46.6108L117.824 44.8065C117.336 44.5383 116.98 44.7529 116.98 45.2941V55.7542L114.995 54.6082V41.8611C114.991 41.8059 114.991 41.7505 114.995 41.6953C115.068 41.2808 115.415 41.1345 115.829 41.3735L137.91 54.1205C138.155 54.2818 138.358 54.4981 138.505 54.7521C138.651 55.0061 138.736 55.2908 138.753 55.5835Z" fill="#25497D"/>
<path d="M168.465 183.835L170.445 182.689L168.465 125.61C168.444 125.243 168.337 124.887 168.153 124.569C167.97 124.252 167.714 123.982 167.407 123.781L129.902 102.125C129.244 101.703 128.733 101.088 128.439 100.364L127.254 96.9506C126.961 96.2297 126.45 95.619 125.791 95.2048L108.114 85.3153C107.529 84.9886 107.046 85.2666 107.046 85.9395V147.164C107.067 147.53 107.174 147.886 107.358 148.203C107.542 148.521 107.797 148.791 108.104 148.992L168.465 183.835Z" fill="#DE4589"/>
<path opacity="0.2" d="M168.465 183.835L170.445 182.689L168.465 125.61C168.444 125.243 168.337 124.887 168.153 124.569C167.97 124.252 167.714 123.982 167.407 123.781L129.902 102.125C129.244 101.703 128.733 101.088 128.439 100.364L127.254 96.9506C126.961 96.2297 126.45 95.619 125.791 95.2048L108.114 85.3153C107.529 84.9886 107.046 85.2666 107.046 85.9395V147.164C107.067 147.53 107.174 147.886 107.358 148.203C107.542 148.521 107.797 148.791 108.104 148.992L168.465 183.835Z" fill="#0D1A2E"/>
<path d="M139.597 87.1147L181.485 111.302C181.732 111.462 181.936 111.678 182.083 111.932C182.23 112.186 182.314 112.472 182.329 112.765V181.718C182.329 182.259 181.954 182.474 181.485 182.206L139.597 158.023C139.351 157.863 139.147 157.647 139 157.392C138.854 157.138 138.769 156.853 138.753 156.56V87.6024C138.753 87.0855 139.128 86.8465 139.597 87.1147Z" fill="white"/>
<g opacity="0.5">
<path opacity="0.5" d="M181.866 182.567C181.693 182.56 181.525 182.51 181.378 182.42L139.489 158.233C139.205 158.053 138.968 157.807 138.798 157.516C138.628 157.225 138.531 156.897 138.514 156.561V87.6024C138.492 87.4536 138.515 87.3016 138.581 87.1663C138.647 87.0309 138.751 86.9183 138.882 86.8432C139.012 86.7681 139.162 86.7338 139.312 86.7448C139.462 86.7559 139.605 86.8117 139.723 86.9051L181.612 111.087C181.897 111.269 182.134 111.516 182.303 111.808C182.473 112.1 182.57 112.428 182.587 112.765V181.718C182.599 181.866 182.571 182.014 182.507 182.148C182.443 182.282 182.344 182.396 182.222 182.479C182.113 182.54 181.99 182.57 181.866 182.567ZM139.221 87.2465C139.187 87.2386 139.152 87.2386 139.118 87.2465C139.073 87.2887 139.038 87.3413 139.017 87.3999C138.995 87.4584 138.989 87.5212 138.997 87.5829V156.561C139.015 156.808 139.089 157.047 139.214 157.261C139.339 157.475 139.512 157.657 139.718 157.794L181.607 181.982C181.657 182.02 181.715 182.046 181.778 182.056C181.84 182.067 181.904 182.061 181.963 182.04C182.009 181.998 182.045 181.946 182.066 181.887C182.087 181.828 182.094 181.765 182.085 181.704V112.765C182.07 112.515 181.997 112.271 181.871 112.054C181.746 111.836 181.572 111.651 181.363 111.512L139.474 87.3293C139.399 87.2787 139.311 87.25 139.221 87.2465Z" fill="#DBDBDB"/>
</g>
<path d="M143.771 96.385L163.447 107.747C163.749 107.936 164.001 108.194 164.184 108.499C164.367 108.804 164.476 109.148 164.501 109.503C164.501 110.132 164.013 110.371 163.447 110.034L143.771 98.6769C143.469 98.4879 143.216 98.2305 143.032 97.9255C142.848 97.6205 142.739 97.2765 142.712 96.9214C142.693 96.2874 143.181 96.0485 143.771 96.385Z" fill="#25497D"/>
<path d="M143.771 103.251L177.316 122.615C177.617 122.804 177.87 123.06 178.054 123.364C178.238 123.669 178.347 124.012 178.374 124.366C178.374 125 177.886 125.239 177.321 124.903L143.775 105.538C143.473 105.349 143.22 105.092 143.036 104.787C142.852 104.482 142.743 104.138 142.717 103.783C142.693 103.178 143.18 102.915 143.771 103.251Z" fill="#DBDBDB"/>
<path d="M143.771 110.112L177.316 129.477C177.617 129.665 177.87 129.921 178.054 130.225C178.238 130.53 178.347 130.873 178.374 131.227C178.374 131.861 177.886 132.1 177.321 131.764L143.775 112.399C143.473 112.211 143.22 111.953 143.036 111.648C142.852 111.343 142.743 110.999 142.717 110.644C142.693 110.005 143.18 109.776 143.771 110.112Z" fill="#DBDBDB"/>
<path d="M143.771 116.973L177.316 136.338C177.618 136.526 177.871 136.784 178.055 137.089C178.239 137.394 178.348 137.738 178.374 138.093C178.374 138.722 177.886 138.961 177.321 138.625L143.771 119.27C143.469 119.082 143.216 118.825 143.032 118.521C142.849 118.217 142.739 117.874 142.712 117.519C142.693 116.876 143.181 116.637 143.771 116.973Z" fill="#DBDBDB"/>
<path d="M143.771 123.835L177.316 143.199C177.618 143.388 177.871 143.645 178.055 143.95C178.239 144.255 178.348 144.599 178.374 144.955C178.374 145.584 177.886 145.823 177.321 145.486L143.775 126.122C143.474 125.933 143.221 125.677 143.037 125.373C142.853 125.069 142.744 124.725 142.717 124.371C142.693 123.737 143.18 123.498 143.771 123.835Z" fill="#DBDBDB"/>
<path d="M143.771 130.696L177.316 150.06C177.618 150.249 177.871 150.507 178.055 150.812C178.238 151.117 178.348 151.461 178.374 151.816C178.374 152.45 177.886 152.689 177.321 152.352L143.775 132.983C143.474 132.795 143.221 132.538 143.037 132.234C142.853 131.93 142.744 131.587 142.717 131.232C142.693 130.598 143.18 130.359 143.771 130.696Z" fill="#DBDBDB"/>
<path d="M143.771 137.562L177.316 156.926C177.617 157.115 177.87 157.371 178.054 157.675C178.238 157.979 178.348 158.323 178.374 158.677C178.374 159.311 177.886 159.55 177.321 159.213L143.771 139.849C143.469 139.66 143.215 139.403 143.031 139.098C142.848 138.793 142.738 138.449 142.712 138.093C142.693 137.464 143.181 137.225 143.771 137.562Z" fill="#DBDBDB"/>
<path d="M143.771 144.423L177.316 163.787C177.617 163.976 177.87 164.232 178.054 164.536C178.238 164.84 178.347 165.184 178.374 165.538C178.374 166.172 177.886 166.411 177.321 166.074L143.775 146.71C143.473 146.521 143.22 146.264 143.036 145.959C142.852 145.654 142.743 145.31 142.717 144.954C142.693 144.325 143.18 144.086 143.771 144.423Z" fill="#DBDBDB"/>
<path d="M133.652 90.5429L175.541 114.73C175.788 114.89 175.993 115.106 176.141 115.36C176.288 115.614 176.374 115.9 176.39 116.193V185.146C176.39 185.683 176.009 185.902 175.541 185.634L133.652 161.447C133.407 161.286 133.202 161.07 133.056 160.816C132.909 160.562 132.824 160.277 132.809 159.984V91.0306C132.809 90.499 133.189 90.2747 133.652 90.5429Z" fill="white"/>
<path d="M175.921 185.99C175.749 185.983 175.581 185.933 175.433 185.844L133.545 161.661C133.259 161.48 133.022 161.233 132.852 160.942C132.683 160.65 132.586 160.321 132.569 159.984V91.0305C132.55 90.8824 132.575 90.7319 132.641 90.598C132.708 90.4642 132.812 90.3529 132.941 90.2783C133.071 90.2037 133.219 90.1691 133.368 90.1789C133.517 90.1886 133.66 90.2423 133.779 90.3332L175.668 114.516C175.953 114.696 176.191 114.943 176.36 115.235C176.53 115.527 176.627 115.856 176.643 116.193V185.146C176.654 185.294 176.626 185.442 176.561 185.575C176.495 185.708 176.396 185.821 176.272 185.902C176.165 185.963 176.044 185.993 175.921 185.99ZM133.276 90.6697C133.242 90.6689 133.209 90.6773 133.179 90.6941C133.131 90.7351 133.095 90.7873 133.073 90.8461C133.05 90.9049 133.043 90.9683 133.052 91.0305V159.984C133.067 160.234 133.14 160.478 133.266 160.695C133.391 160.913 133.565 161.098 133.774 161.237L175.663 185.424C175.704 185.48 175.764 185.518 175.831 185.532C175.899 185.546 175.969 185.535 176.029 185.501C176.089 185.466 176.134 185.412 176.157 185.346C176.179 185.281 176.177 185.21 176.15 185.146V116.193C176.135 115.942 176.061 115.698 175.935 115.481C175.809 115.263 175.634 115.078 175.424 114.94L133.535 90.7526C133.457 90.703 133.368 90.6745 133.276 90.6697Z" fill="#DBDBDB"/>
<path d="M137.817 99.8131L157.493 111.175C157.795 111.364 158.048 111.621 158.232 111.926C158.416 112.231 158.525 112.576 158.551 112.931C158.551 113.56 158.064 113.799 157.493 113.462L137.817 102.1C137.515 101.912 137.262 101.655 137.078 101.351C136.894 101.047 136.785 100.704 136.758 100.349C136.768 99.7155 137.241 99.4766 137.817 99.8131Z" fill="#DBDBDB"/>
<path d="M137.817 106.674L171.362 126.039C171.662 126.229 171.914 126.487 172.097 126.791C172.28 127.096 172.389 127.44 172.415 127.794C172.415 128.428 171.927 128.667 171.362 128.331L137.817 108.961C137.515 108.773 137.262 108.517 137.078 108.212C136.894 107.908 136.785 107.565 136.758 107.211C136.768 106.591 137.241 106.338 137.817 106.674Z" fill="#DBDBDB"/>
<path d="M137.817 113.54L171.371 132.924C171.672 133.113 171.924 133.37 172.106 133.674C172.289 133.978 172.398 134.321 172.425 134.675C172.425 135.309 171.937 135.548 171.371 135.211L137.817 115.827C137.514 115.639 137.261 115.381 137.077 115.076C136.893 114.771 136.784 114.427 136.758 114.072C136.768 113.443 137.241 113.204 137.817 113.54Z" fill="#DBDBDB"/>
<path d="M137.817 120.401L171.371 139.751C171.672 139.94 171.924 140.197 172.106 140.501C172.289 140.805 172.398 141.148 172.425 141.502C172.425 142.136 171.937 142.375 171.371 142.038L137.817 122.684C137.514 122.495 137.261 122.238 137.077 121.933C136.893 121.628 136.784 121.283 136.758 120.928C136.768 120.304 137.241 120.065 137.817 120.401Z" fill="#DBDBDB"/>
<path d="M137.817 127.263L171.362 146.627C171.663 146.817 171.915 147.074 172.098 147.379C172.281 147.684 172.389 148.028 172.415 148.383C172.415 149.012 171.927 149.251 171.362 148.914L137.817 129.55C137.515 129.362 137.262 129.105 137.078 128.801C136.894 128.497 136.785 128.153 136.758 127.799C136.768 127.165 137.241 126.926 137.817 127.263Z" fill="#DBDBDB"/>
<path d="M137.817 134.124L171.362 153.488C171.663 153.678 171.915 153.935 172.098 154.24C172.281 154.545 172.389 154.889 172.415 155.244C172.415 155.873 171.927 156.112 171.362 155.775L137.817 136.411C137.515 136.223 137.262 135.966 137.078 135.662C136.894 135.358 136.785 135.015 136.758 134.66C136.768 134.026 137.241 133.787 137.817 134.124Z" fill="#DBDBDB"/>
<path d="M137.817 140.985L171.362 160.35C171.663 160.539 171.915 160.797 172.098 161.102C172.281 161.407 172.389 161.75 172.415 162.105C172.415 162.739 171.927 162.978 171.362 162.641L137.817 143.272C137.515 143.084 137.262 142.827 137.078 142.523C136.894 142.219 136.785 141.876 136.758 141.521C136.768 140.888 137.241 140.649 137.817 140.985Z" fill="#DBDBDB"/>
<path d="M137.817 147.851L171.362 167.216C171.662 167.405 171.914 167.662 172.097 167.966C172.28 168.27 172.389 168.612 172.415 168.966C172.415 169.6 171.927 169.839 171.362 169.503L137.817 150.138C137.514 149.95 137.261 149.692 137.077 149.387C136.893 149.082 136.784 148.738 136.758 148.383C136.768 147.754 137.241 147.515 137.817 147.851Z" fill="#DBDBDB"/>
<path d="M168.465 183.835L158.785 131.281C158.604 130.538 158.147 129.891 157.508 129.472L98.2147 95.2389C97.6344 94.9025 97.2395 95.1707 97.3809 95.829L106.841 147.183C107.023 147.926 107.479 148.572 108.119 148.992L168.465 183.835Z" fill="#DE4589"/>
<path d="M95.1721 119.865V154C95.192 154.367 95.2982 154.724 95.4821 155.041C95.666 155.359 95.9224 155.629 96.2303 155.829L119.867 169.483C120.172 169.675 120.524 169.78 120.885 169.786C121.246 169.793 121.602 169.701 121.914 169.52C122.227 169.34 122.484 169.077 122.659 168.761C122.833 168.446 122.918 168.088 122.905 167.728V133.587C122.884 133.221 122.779 132.865 122.596 132.548C122.413 132.23 122.158 131.96 121.851 131.759L98.2101 118.105C97.9048 117.913 97.5531 117.808 97.1927 117.802C96.8324 117.795 96.477 117.886 96.1647 118.066C95.8524 118.246 95.595 118.508 95.4201 118.823C95.2453 119.138 95.1595 119.495 95.1721 119.855V119.865Z" fill="#25497D"/>
<path d="M122.904 150.67V133.602C122.892 133.235 122.786 132.878 122.597 132.563L119.623 134.28V169.39L119.866 169.532C120.181 169.698 120.53 169.788 120.886 169.794C121.242 169.8 121.594 169.722 121.915 169.566C122.206 169.365 122.446 169.098 122.616 168.787C122.785 168.477 122.879 168.13 122.89 167.776L122.904 150.67Z" fill="#0D1A2E"/>
<path d="M96.2301 119.27L119.866 132.924C120.174 133.124 120.431 133.394 120.614 133.712C120.798 134.03 120.905 134.386 120.924 134.753V168.913C120.924 169.585 120.437 169.859 119.866 169.522L96.2301 155.868C95.9221 155.668 95.6658 155.398 95.4819 155.08C95.298 154.763 95.1918 154.406 95.1719 154.039V119.904C95.1719 119.192 95.6449 118.919 96.2301 119.27Z" fill="#25497D"/>
<path d="M98.21 122.684L117.887 134.041C118.194 134.241 118.45 134.511 118.634 134.829C118.818 135.147 118.924 135.503 118.945 135.87V160.881C118.945 161.554 118.457 161.827 117.887 161.491L98.21 150.128C97.9021 149.928 97.6458 149.659 97.4619 149.341C97.278 149.023 97.1718 148.666 97.1519 148.3V123.298C97.1519 122.625 97.6249 122.352 98.21 122.684Z" fill="white"/>
<path d="M101.916 128.535C102.597 128.98 103.163 129.578 103.569 130.282C103.975 130.986 104.209 131.776 104.252 132.588C104.252 134.08 103.209 134.685 101.916 133.938C101.235 133.494 100.668 132.896 100.262 132.192C99.855 131.488 99.62 130.698 99.5757 129.886C99.5757 128.384 100.624 127.78 101.916 128.535Z" fill="#DE4589"/>
<path d="M111.908 137.415L107.032 144.584L103.35 139.034C103.24 138.83 103.08 138.657 102.883 138.533C102.687 138.408 102.462 138.338 102.229 138.327C101.997 138.316 101.767 138.366 101.559 138.471C101.352 138.576 101.176 138.733 101.048 138.927L97.147 143.804V148.3C97.1669 148.666 97.2731 149.023 97.457 149.341C97.6409 149.659 97.8972 149.928 98.2052 150.128L117.882 161.491C118.467 161.827 118.94 161.554 118.94 160.881V148.383L113.829 137.567C113.376 136.591 112.513 136.523 111.908 137.415Z" fill="#DE4589"/>
<path opacity="0.2" d="M111.908 137.415L107.032 144.584L103.35 139.034C103.24 138.83 103.08 138.657 102.883 138.533C102.687 138.408 102.462 138.338 102.229 138.327C101.997 138.316 101.767 138.366 101.559 138.471C101.352 138.576 101.176 138.733 101.048 138.927L97.147 143.804V148.3C97.1669 148.666 97.2731 149.023 97.457 149.341C97.6409 149.659 97.8972 149.928 98.2052 150.128L117.882 161.491C118.467 161.827 118.94 161.554 118.94 160.881V148.383L113.829 137.567C113.376 136.591 112.513 136.523 111.908 137.415Z" fill="#0D1A2E"/>
<path d="M20.7426 113.584C28.3435 109.002 34.6312 102.533 38.9955 94.8048C43.3598 87.0767 45.6526 78.3517 45.6516 69.4764V52.1552C45.6516 51.6188 46.032 51.3994 46.4952 51.6676L90.3834 76.9959C90.6285 77.157 90.8325 77.3732 90.979 77.6272C91.1255 77.8813 91.2105 78.1661 91.2271 78.4589V95.7801C91.2219 104.616 88.9436 113.302 84.6112 121.002C80.2787 128.703 74.0379 135.16 66.4887 139.751C66.1767 139.937 65.8204 140.035 65.4574 140.035C65.0944 140.035 64.7381 139.937 64.426 139.751L20.7475 114.569C20.6452 114.534 20.5563 114.468 20.4933 114.38C20.4302 114.292 20.396 114.187 20.3955 114.078C20.395 113.97 20.4281 113.864 20.4903 113.776C20.5525 113.687 20.6406 113.62 20.7426 113.584Z" fill="white"/>
<path d="M65.4547 140.307C65.0501 140.308 64.6528 140.2 64.3039 139.995L20.6254 114.779C20.4867 114.721 20.3683 114.624 20.285 114.499C20.2017 114.374 20.1572 114.227 20.1572 114.077C20.1572 113.926 20.2017 113.78 20.285 113.655C20.3683 113.53 20.4867 113.432 20.6254 113.374C28.1712 108.795 34.4141 102.354 38.7553 94.6693C43.0965 86.9842 45.3905 78.3126 45.4173 69.4861V52.1552C45.4065 52.0076 45.4351 51.8599 45.5002 51.727C45.5654 51.5942 45.6647 51.4811 45.7879 51.3993C45.92 51.3324 46.0677 51.3025 46.2154 51.3128C46.3631 51.3231 46.5052 51.3732 46.6267 51.4578L90.5149 76.7862C90.7994 76.9667 91.0364 77.2128 91.2061 77.5038C91.3758 77.7949 91.4732 78.1224 91.4902 78.4588V95.7801C91.4586 104.657 89.1569 113.378 84.8039 121.115C80.4509 128.851 74.1912 135.346 66.6202 139.98C66.2699 140.196 65.8661 140.309 65.4547 140.307ZM20.8692 113.794C20.7229 113.881 20.64 113.984 20.64 114.081C20.64 114.179 20.7229 114.272 20.8692 114.355L64.5477 139.576C64.8227 139.737 65.1358 139.822 65.4547 139.822C65.7737 139.822 66.0868 139.737 66.3618 139.576C73.8562 134.981 80.0511 128.546 84.3579 120.882C88.6647 113.218 90.9403 104.581 90.9684 95.7898V78.4588C90.9524 78.2086 90.8789 77.9653 90.7538 77.748C90.6286 77.5307 90.4551 77.3451 90.2467 77.2056L46.3585 51.8772C46.3092 51.8396 46.2514 51.8146 46.1902 51.8044C46.129 51.7942 46.0662 51.7991 46.0074 51.8187C45.9598 51.8597 45.9232 51.912 45.9011 51.9708C45.8789 52.0296 45.8719 52.093 45.8806 52.1552V69.4764C45.8536 78.3882 43.5381 87.1437 39.156 94.9038C34.7739 102.664 28.4721 109.168 20.8546 113.794H20.8692Z" fill="#DBDBDB"/>
<path d="M72.4721 73.5189L84.2293 80.307C84.5296 80.496 84.7813 80.7529 84.9643 81.057C85.1472 81.361 85.2562 81.7038 85.2826 82.0576C85.2826 82.6916 84.7949 82.9305 84.2293 82.594L72.4721 75.806C72.1712 75.6165 71.919 75.3588 71.736 75.0539C71.5531 74.7489 71.4444 74.4052 71.4188 74.0505C71.4042 73.4312 71.8772 73.1825 72.4721 73.5189Z" fill="#DBDBDB"/>
<path d="M65.4595 79.7706C65.4595 80.3996 64.9718 80.6386 64.4013 80.3021L52.649 73.5189C52.3487 73.3299 52.097 73.073 51.914 72.769C51.7311 72.4649 51.622 72.1222 51.5957 71.7683C51.5957 71.1344 52.0834 70.8954 52.649 71.2319L64.4013 78.015C64.7034 78.2037 64.9567 78.4611 65.1406 78.7661C65.3245 79.0712 65.4337 79.4153 65.4595 79.7706Z" fill="#DBDBDB"/>
<path d="M84.6923 100.018C84.6045 100.598 84.0486 100.793 83.4634 100.457L51.9078 82.2381C51.6209 82.0697 51.3862 81.8253 51.2296 81.5318C51.073 81.2383 51.0005 80.9073 51.0203 80.5752C51.108 79.9949 51.6396 79.795 52.2199 80.1315L83.7852 98.3548C84.0746 98.522 84.3123 98.7656 84.4723 99.0589C84.6323 99.3522 84.7084 99.684 84.6923 100.018Z" fill="#DBDBDB"/>
<path d="M83.3902 106.133C83.2342 106.674 82.6295 106.84 82.0443 106.503L50.4887 88.28C50.2113 88.1276 49.9881 87.8927 49.8501 87.6079C49.712 87.3231 49.666 87.0024 49.7182 86.6903C49.8694 86.1441 50.4546 85.9734 51.0349 86.3099L82.5953 104.533C82.8766 104.685 83.1039 104.921 83.2462 105.207C83.3885 105.493 83.4388 105.817 83.3902 106.133Z" fill="#DBDBDB"/>
<path d="M81.425 111.858C81.2153 112.37 80.5667 112.506 79.962 112.17L48.4015 93.9513C48.1305 93.8127 47.9161 93.5841 47.7951 93.3048C47.6741 93.0254 47.654 92.7126 47.7383 92.4201C47.8006 92.2957 47.8898 92.1866 47.9993 92.1007C48.1088 92.0149 48.236 91.9544 48.3717 91.9236C48.5075 91.8928 48.6483 91.8925 48.7842 91.9227C48.92 91.9529 49.0475 92.0129 49.1574 92.0983L80.7618 110.322C81.0313 110.463 81.2441 110.693 81.3648 110.972C81.4855 111.252 81.5067 111.564 81.425 111.858Z" fill="#DBDBDB"/>
<path d="M78.8504 117.236C78.6776 117.473 78.4182 117.632 78.1287 117.679C77.8392 117.726 77.543 117.656 77.3046 117.485L45.749 99.2764C45.4856 99.1511 45.2801 98.9297 45.1749 98.6576C45.0697 98.3855 45.0727 98.0834 45.1833 97.8135C45.2651 97.6953 45.3696 97.5946 45.4907 97.5172C45.6119 97.4399 45.7472 97.3874 45.8888 97.3629C46.0305 97.3384 46.1755 97.3423 46.3156 97.3745C46.4557 97.4066 46.588 97.4664 46.7048 97.5502L78.2653 115.769C78.5309 115.893 78.7392 116.114 78.8479 116.387C78.9566 116.66 78.9575 116.963 78.8504 117.236Z" fill="#DBDBDB"/>
<path d="M60.627 115.856C60.4115 116.075 60.1271 116.211 59.8221 116.243C59.5172 116.275 59.2105 116.201 58.9544 116.032L41.2626 105.826C41.1367 105.769 41.0242 105.686 40.9327 105.583C40.8411 105.479 40.7726 105.358 40.7315 105.226C40.6905 105.094 40.678 104.955 40.6947 104.818C40.7114 104.681 40.7571 104.549 40.8286 104.431C41.0394 104.211 41.3205 104.071 41.6233 104.037C41.926 104.002 42.2314 104.074 42.4866 104.241L60.1833 114.481C60.7685 114.798 60.9684 115.432 60.627 115.856Z" fill="#DBDBDB"/>
<path d="M54.1658 125.322C54.1658 125.322 44.9006 131.437 33.7676 131.861C36.0351 133.173 41.1506 133.714 45.1005 133.173C45.1005 133.173 44.5494 135.47 40.5654 138.405C40.5654 138.405 47.0511 140.156 58.701 127.935L54.1658 125.322Z" fill="#DE4589"/>
<path d="M63.9676 127.619C61.9829 129.637 57.9793 129.808 55.2436 128.228C52.5079 126.648 52.0788 123.922 54.0635 121.889C56.0482 119.855 59.6861 119.343 62.4218 120.913C65.1575 122.484 65.9523 125.609 63.9676 127.619Z" fill="#DE4589"/>
<path opacity="0.2" d="M63.9676 127.619C61.9829 129.637 57.9793 129.808 55.2436 128.228C52.5079 126.648 52.0788 123.922 54.0635 121.889C56.0482 119.855 59.6861 119.343 62.4218 120.913C65.1575 122.484 65.9523 125.609 63.9676 127.619Z" fill="#0D1A2E"/>
<path d="M63.9676 127.009C61.9829 129.028 57.9793 129.194 55.2436 127.619C52.5079 126.043 52.0788 123.308 54.0635 121.279C56.0482 119.251 59.6861 118.729 62.4218 120.304C65.1575 121.879 65.9523 124.99 63.9676 127.009Z" fill="#DE4589"/>
<path d="M59.3686 127.214C58.1753 127.226 56.9991 126.929 55.9551 126.351C54.9798 125.79 54.3946 125.058 54.2922 124.283C54.2674 123.919 54.3256 123.555 54.4624 123.217C54.5993 122.879 54.8112 122.576 55.0822 122.332C56.1046 121.367 57.4653 120.842 58.8712 120.869C59.8519 120.861 60.8175 121.112 61.6703 121.596C62.154 121.843 62.5757 122.195 62.9041 122.628C63.2326 123.06 63.4592 123.561 63.5673 124.093C63.6154 124.439 63.5803 124.792 63.465 125.121C63.3496 125.451 63.1574 125.749 62.9041 125.99C61.929 126.841 60.6613 127.28 59.3686 127.214Z" fill="#DE4589"/>
<path opacity="0.3" d="M59.3686 127.214C58.1753 127.226 56.9991 126.929 55.9551 126.351C54.9798 125.79 54.3946 125.058 54.2922 124.283C54.2674 123.919 54.3256 123.555 54.4624 123.217C54.5993 122.879 54.8112 122.576 55.0822 122.332C56.1046 121.367 57.4653 120.842 58.8712 120.869C59.8519 120.861 60.8175 121.112 61.6703 121.596C62.154 121.843 62.5757 122.195 62.9041 122.628C63.2326 123.06 63.4592 123.561 63.5673 124.093C63.6154 124.439 63.5803 124.792 63.465 125.121C63.3496 125.451 63.1574 125.749 62.9041 125.99C61.929 126.841 60.6613 127.28 59.3686 127.214Z" fill="#0D1A2E"/>
<path d="M61.6901 122.196C60.8365 121.714 59.8715 121.463 58.891 121.469C57.4851 121.441 56.1244 121.967 55.102 122.932C54.7077 123.312 54.436 123.801 54.3218 124.337C54.4326 124.773 54.6382 125.18 54.9239 125.528C55.2096 125.876 55.5684 126.157 55.9749 126.351C57.0189 126.929 58.1951 127.226 59.3884 127.214C60.6884 127.284 61.9641 126.843 62.9434 125.985C63.3011 125.637 63.5342 125.181 63.6066 124.688C63.4941 124.155 63.2635 123.655 62.9318 123.224C62.6001 122.793 62.1758 122.441 61.6901 122.196Z" fill="#DE4589"/>
<path opacity="0.2" d="M61.6901 122.196C60.8365 121.714 59.8715 121.463 58.891 121.469C57.4851 121.441 56.1244 121.967 55.102 122.932C54.7077 123.312 54.436 123.801 54.3218 124.337C54.4326 124.773 54.6382 125.18 54.9239 125.528C55.2096 125.876 55.5684 126.157 55.9749 126.351C57.0189 126.929 58.1951 127.226 59.3884 127.214C60.6884 127.284 61.9641 126.843 62.9434 125.985C63.3011 125.637 63.5342 125.181 63.6066 124.688C63.4941 124.155 63.2635 123.655 62.9318 123.224C62.6001 122.793 62.1758 122.441 61.6901 122.196Z" fill="#0D1A2E"/>
<path d="M82.1897 112.046C82.6892 110.08 81.5008 108.082 79.5353 107.582C77.5698 107.083 75.5715 108.271 75.072 110.237C74.5724 112.202 75.7608 114.201 77.7263 114.7C79.6918 115.2 81.6901 114.011 82.1897 112.046Z" fill="#0D1A2E"/>
<path d="M87.4283 173.267H84.8438V177.695H87.4283V173.267Z" fill="#FFA8A7"/>
<path d="M78.4657 173.033L75.8812 173.121L75.7495 168.435L78.4657 168.347V173.033Z" fill="#FFA8A7"/>
<path d="M87.2575 135.333C87.2575 137.801 87.5794 155.61 87.5794 155.61C87.6379 156.322 88.306 157.633 88.1597 160.359C87.9646 164.065 87.5404 175.476 87.5404 175.476C87.093 175.695 86.6032 175.813 86.1053 175.822C85.6075 175.832 85.1136 175.732 84.6584 175.53C84.6584 175.53 82.3811 160.369 81.9129 156.697C81.5131 153.488 80.8255 144.779 80.8255 144.779L79.4259 155.249C79.7228 156.596 79.8295 157.978 79.7429 159.355C79.621 161.057 78.6262 171.575 78.6262 171.575C78.1758 171.829 77.6751 171.982 77.1595 172.021C76.6438 172.061 76.1257 171.987 75.6418 171.804C75.6418 171.804 74.3349 156.804 74.3056 155.249C74.2715 153.469 75.1639 135.328 75.1639 135.328L87.2575 135.333Z" fill="#25497D"/>
<path d="M86.1557 121.304C86.1557 121.304 87.131 121.889 87.131 124.23V129.296L87.2041 138.859C85.2813 139.917 83.0957 140.402 80.9058 140.257C78.716 140.112 76.6135 139.342 74.8472 138.04C74.8472 138.04 75.0373 125.746 75.0373 123.732C75.0373 121.718 76.1589 119.099 79.2506 118.919L83.2396 119.846L86.1557 121.304Z" fill="white"/>
<path d="M75.0422 131.876C76.2418 126.838 76.6368 121.801 76.8417 120.504L73.5208 125.81C73.5208 125.81 72.7844 129.93 72.4089 132.115C71.9163 134.461 71.2246 136.762 70.3413 138.991C70.1006 139.318 69.7799 139.578 69.4099 139.746C68.8318 140.061 68.3042 140.46 67.8446 140.931C67.4154 141.292 67.0741 141.356 67.1082 141.487C67.1655 141.638 67.2781 141.761 67.423 141.832C67.568 141.903 67.7344 141.915 67.8885 141.868C68.228 141.775 68.5554 141.642 68.8637 141.473C68.5677 142.039 68.1824 142.555 67.7227 142.999C66.6791 144.018 66.5572 144.706 68.4102 144.95C69.5708 145.091 70.5803 144.462 71.7457 142.024C72.1942 141.126 72.5771 140.197 72.8917 139.244C73.6378 136.743 74.6814 133.412 75.0422 131.876Z" fill="#FFA8A7"/>
<path d="M77.7049 118.929C76.5882 118.748 75.8177 118.846 75.0521 119.67C74.5645 120.187 74.0768 121.045 73.2381 126.205C72.5115 130.691 70.439 138.098 70.439 138.098C70.7871 138.49 71.2279 138.789 71.721 138.967C72.2142 139.145 72.7441 139.197 73.2624 139.117L76.91 125.702L77.7049 118.929Z" fill="#25497D"/>
<path d="M79.3772 119.143C78.5227 119.861 77.9041 120.819 77.6022 121.894C77.2218 123.537 77.1584 141.858 77.1584 141.858C77.1584 141.858 75.2078 141.497 74.3057 140.785V124.039C74.3057 121.64 74.8421 117.993 79.3772 119.143Z" fill="#25497D"/>
<path d="M83.3661 120.07C83.3661 120.07 81.2009 122.318 81.1522 127.804C81.1034 133.29 81.0156 142.921 81.0156 142.921C81.0156 142.921 84.829 143.696 87.5501 142.073C87.5501 142.073 87.2429 128.331 87.1892 126.268C87.1307 123.908 87.8183 121.903 86.4919 121.24C85.4843 120.764 84.4387 120.373 83.3661 120.07Z" fill="#25497D"/>
<path d="M84.9853 113.77C84.7652 114.868 84.4869 115.954 84.1514 117.022C83.9918 117.305 83.7301 117.516 83.4199 117.612L83.4589 115.662L84.9853 113.77Z" fill="#0D1A2E"/>
<path d="M84.2393 109.766C84.4466 109.741 84.657 109.764 84.854 109.833C85.0511 109.903 85.2295 110.016 85.3755 110.166C85.8631 110.653 85.5949 112.233 84.9854 113.769L83.8638 113.896L84.2393 109.766Z" fill="#0D1A2E"/>
<path d="M83.5275 113.906C83.7518 114.043 84.0736 113.609 84.3516 113.321C84.4606 113.197 84.5991 113.103 84.7542 113.048C84.9093 112.992 85.0759 112.977 85.2386 113.003C85.4012 113.03 85.5545 113.097 85.6842 113.198C85.8139 113.3 85.9158 113.433 85.9803 113.584C86.468 114.559 85.5853 115.832 84.8734 116.057C83.6445 116.442 83.4592 115.657 83.4592 115.657L83.3665 120.08L79.1142 122.884C78.9647 121.902 79.0534 120.898 79.3727 119.958V118.612C78.8264 118.7 78.2722 118.73 77.7196 118.7C76.8174 118.558 76.2566 117.846 75.9738 116.871C75.5349 115.301 75.3691 114.033 75.7397 110.946C76.1494 107.567 80.0847 107.532 82.2059 108.869C84.3272 110.205 83.5275 113.906 83.5275 113.906Z" fill="#FFA8A7"/>
<path d="M79.1143 122.874L83.3812 119.402V118.846C83.3812 118.846 84.3565 119.041 84.5028 120.426L81.9134 124.371L80.8161 122.318L79.1143 122.874Z" fill="#DBDBDB"/>
<path d="M79.3776 118.607C79.1149 118.645 78.8622 118.734 78.6345 118.871C78.4068 119.007 78.2085 119.188 78.0512 119.402C77.6465 120.075 76.9102 122.874 76.9102 122.874L78.2853 121.811L79.1143 122.874C79.0355 121.891 79.1229 120.902 79.3728 119.948L79.3776 118.607Z" fill="#DBDBDB"/>
<path d="M83.5272 114.277C83.6394 114.277 84.0685 113.565 84.3514 113.301C84.7366 112.945 84.2392 109.756 84.2392 109.756C84.3406 109.48 84.3591 109.18 84.2923 108.893C84.2256 108.606 84.0767 108.345 83.8637 108.142C83.3322 107.557 82.4447 107.489 80.9378 107.255C80.143 107.128 78.9385 106.903 78.1485 106.767C77.1732 106.591 76.4174 106.406 75.7444 106.986C75.4836 107.215 75.2994 107.518 75.2165 107.855C75.1337 108.191 75.1562 108.545 75.2811 108.869C75.3498 109.015 75.4402 109.15 75.5493 109.269C75.7286 109.49 75.9646 109.658 76.232 109.756C76.232 109.756 76.6465 110.122 78.0851 110.297C79.411 110.398 80.7434 110.372 82.0643 110.219C82.4837 110.166 82.5519 110.566 82.7958 111.682C82.986 112.624 83.1469 114.267 83.5272 114.277Z" fill="#0D1A2E"/>
<path d="M84.2343 110.005L85.5949 109.273C85.5514 109.182 85.4898 109.1 85.4139 109.033C85.338 108.966 85.2493 108.915 85.1532 108.883C85.0571 108.851 84.9555 108.839 84.8546 108.848C84.7537 108.856 84.6555 108.885 84.5659 108.932C84.3844 109.035 84.249 109.203 84.1874 109.403C84.1258 109.602 84.1426 109.817 84.2343 110.005Z" fill="#0D1A2E"/>
<path d="M79.3774 118.607C80.3065 118.431 81.2173 118.17 82.0985 117.827C82.5155 117.609 82.8558 117.268 83.0738 116.851C82.9673 117.263 82.78 117.649 82.5228 117.988C82.0059 118.646 79.3823 119.129 79.3823 119.129L79.3774 118.607Z" fill="#F28F8F"/>
<path d="M79.8604 113.418C79.8604 113.526 79.903 113.629 79.9789 113.705C80.0548 113.781 80.1578 113.823 80.2651 113.823C80.3724 113.823 80.4754 113.781 80.5513 113.705C80.6272 113.629 80.6698 113.526 80.6698 113.418C80.6698 113.311 80.6272 113.208 80.5513 113.132C80.4754 113.056 80.3724 113.014 80.2651 113.014C80.1578 113.014 80.0548 113.056 79.9789 113.132C79.903 113.208 79.8604 113.311 79.8604 113.418Z" fill="#0D1A2E"/>
<path d="M80.2749 111.868L81.138 112.355C81.1999 112.237 81.2137 112.099 81.1764 111.971C81.1391 111.843 81.0538 111.734 80.9381 111.668C80.8815 111.637 80.8194 111.618 80.7553 111.611C80.6912 111.605 80.6265 111.611 80.5648 111.63C80.5032 111.648 80.4458 111.679 80.396 111.72C80.3463 111.76 80.3051 111.811 80.2749 111.868Z" fill="#0D1A2E"/>
<path d="M79.5579 116.183L78.6411 116.53C78.6619 116.591 78.6947 116.647 78.7374 116.695C78.7801 116.744 78.832 116.783 78.8901 116.811C78.9481 116.839 79.0112 116.856 79.0756 116.859C79.14 116.863 79.2045 116.853 79.2653 116.832C79.3284 116.81 79.3864 116.776 79.4357 116.731C79.4851 116.686 79.5247 116.632 79.5521 116.571C79.5795 116.51 79.5942 116.444 79.5952 116.378C79.5962 116.311 79.5835 116.245 79.5579 116.183Z" fill="#F28F8F"/>
<path d="M76.2611 112.204L77.0511 111.599C77.0134 111.547 76.9656 111.502 76.9104 111.468C76.8552 111.434 76.7939 111.412 76.7298 111.402C76.6658 111.392 76.6005 111.394 76.5376 111.41C76.4747 111.426 76.4155 111.454 76.3635 111.492C76.2594 111.576 76.1909 111.696 76.1719 111.828C76.1529 111.96 76.1848 112.095 76.2611 112.204Z" fill="#0D1A2E"/>
<path d="M76.505 113.277C76.5079 113.356 76.534 113.433 76.5802 113.498C76.6264 113.562 76.6906 113.612 76.7647 113.64C76.8389 113.669 76.9198 113.675 76.9973 113.658C77.0748 113.64 77.1456 113.601 77.2007 113.543C77.2559 113.486 77.293 113.414 77.3075 113.336C77.3219 113.258 77.3131 113.177 77.2821 113.104C77.2511 113.031 77.1992 112.969 77.133 112.925C77.0668 112.881 76.9892 112.858 76.9097 112.858C76.8555 112.858 76.802 112.87 76.7522 112.891C76.7024 112.913 76.6574 112.944 76.6198 112.983C76.5821 113.022 76.5526 113.068 76.5329 113.118C76.5132 113.169 76.5037 113.223 76.505 113.277Z" fill="#0D1A2E"/>
<path d="M78.5631 112.897L78.4266 115.325L77.1636 114.891L78.5631 112.897Z" fill="#F28F8F"/>
<path d="M84.8439 176.417V176.047C84.5952 176.154 84.0197 178.349 82.9957 179.285C82.1813 180.026 81.0451 180.889 80.7818 181.723C80.5184 182.557 82.3325 183.059 83.0932 182.923C83.9807 182.767 85.5314 182.142 85.902 181.567C86.2727 180.992 86.4677 180.138 86.7798 179.714C87.0919 179.29 87.8136 178.817 87.9843 178.324C88.0346 177.867 87.983 177.404 87.8331 176.969C87.7161 176.51 87.5844 175.993 87.4284 176.052V176.325C87.0609 176.615 86.6045 176.77 86.1361 176.764C85.7558 176.778 84.839 176.705 84.8439 176.417Z" fill="#0D1A2E"/>
<path d="M75.8518 172.321C75.7202 172.321 75.608 172.516 75.3154 172.838C74.8714 173.283 74.3574 173.652 73.794 173.931C72.8187 174.418 70.9412 175.159 70.0878 175.545C69.5563 175.784 69.6002 176.427 70.1317 176.793C70.6633 177.159 72.0092 177.422 73.6038 177.066C74.4767 176.871 75.6031 176.091 76.32 176.115C77.0368 176.14 78.3778 176.144 78.9045 175.784C79.4311 175.423 79.2215 174.638 79.0703 173.97C78.9191 173.301 78.7045 172.107 78.4656 172.156V172.424C78.1535 172.911 76.5492 173.087 75.8665 172.741L75.8518 172.321Z" fill="#0D1A2E"/>
<path d="M80.8259 144.784C79.4894 144.369 78.2607 143.664 77.2271 142.721C77.2271 142.721 77.9195 144.023 79.9871 145.232L79.5434 154.381L80.8259 144.784Z" fill="#0D1A2E"/>
<path d="M80.3624 122.469C80.2161 122.118 79.709 121.957 79.2311 121.947C79.133 121.946 79.0356 121.965 78.9449 122.002C78.8543 122.04 78.7722 122.095 78.7037 122.165C78.6353 122.236 78.5819 122.319 78.5468 122.411C78.5117 122.502 78.4956 122.6 78.4996 122.698C78.5079 123.099 78.5922 123.495 78.7483 123.864C79.1089 123.783 79.4858 123.817 79.826 123.961C80.1195 123.513 80.3032 123.002 80.3624 122.469Z" fill="#0D1A2E"/>
<path d="M78.7482 123.864C78.7482 123.864 77.8509 131.242 77.8704 131.666C77.8899 132.09 78.8116 134.655 79.2846 134.655C79.7576 134.655 80.6695 132.359 80.6939 131.998C80.7183 131.637 79.8259 123.952 79.8259 123.952C79.6784 123.825 79.4948 123.749 79.3013 123.733C79.1077 123.717 78.9142 123.763 78.7482 123.864Z" fill="#0D1A2E"/>
<path d="M84.771 163.778L82.8741 162.671C82.774 162.606 82.6909 162.518 82.6315 162.414C82.5721 162.311 82.5383 162.195 82.5327 162.076V151.328C82.5387 151.208 82.5727 151.092 82.632 150.987C82.6913 150.883 82.7742 150.795 82.8741 150.728L95.7431 143.301C95.8501 143.246 95.9688 143.217 96.0893 143.217C96.2097 143.217 96.3284 143.246 96.4355 143.301L98.3276 144.394C98.4283 144.458 98.5122 144.546 98.5724 144.649C98.6326 144.753 98.6673 144.869 98.6738 144.989V155.751C98.6633 155.869 98.6256 155.982 98.5639 156.083C98.5021 156.184 98.4179 156.269 98.3178 156.331L85.4488 163.763C85.3443 163.817 85.229 163.846 85.1116 163.848C84.9942 163.851 84.8777 163.827 84.771 163.778Z" fill="#DE4589"/>
<path d="M82.5327 151.328C82.5371 151.208 82.5706 151.091 82.6302 150.987L85.4391 152.606V163.787C85.3347 163.837 85.2206 163.863 85.105 163.863C84.9895 163.863 84.8754 163.837 84.771 163.787L82.8741 162.671C82.774 162.606 82.6909 162.518 82.6315 162.414C82.5721 162.311 82.5383 162.195 82.5327 162.076V151.328Z" fill="#F28F8F"/>
<path d="M82.5327 151.328C82.5371 151.208 82.5706 151.091 82.6302 150.987L85.4391 152.606V163.787C85.3347 163.837 85.2206 163.863 85.105 163.863C84.9895 163.863 84.8754 163.837 84.771 163.787L82.8741 162.671C82.774 162.606 82.6909 162.518 82.6315 162.414C82.5721 162.311 82.5383 162.195 82.5327 162.076V151.328Z" fill="#DE4589"/>
<path opacity="0.2" d="M82.5327 151.328C82.5371 151.208 82.5706 151.091 82.6302 150.987L85.4391 152.606V163.787C85.3347 163.837 85.2206 163.863 85.105 163.863C84.9895 163.863 84.8754 163.837 84.771 163.787L82.8741 162.671C82.774 162.606 82.6909 162.518 82.6315 162.414C82.5721 162.311 82.5383 162.195 82.5327 162.076V151.328Z" fill="#0D1A2E"/>
<path d="M85.4585 152.22L98.3178 144.789C98.508 144.681 98.664 144.789 98.664 144.989V155.751C98.6545 155.868 98.6184 155.981 98.5584 156.081C98.4983 156.182 98.416 156.268 98.3178 156.331L85.4488 163.763C85.2586 163.87 85.1025 163.763 85.1025 163.563V152.815C85.1109 152.695 85.1475 152.579 85.2093 152.475C85.2712 152.372 85.3566 152.285 85.4585 152.22Z" fill="#DE4589"/>
<path d="M84.3268 151.567C84.2269 151.633 84.144 151.722 84.0847 151.826C84.0254 151.93 83.9914 152.047 83.9855 152.167V163.324L83.688 163.158V151.977C83.6943 151.858 83.7285 151.742 83.7878 151.638C83.8471 151.535 83.9298 151.447 84.0293 151.382L97.2446 143.755L97.5664 143.94L84.3268 151.567Z" fill="#DE4589"/>
<path opacity="0.3" d="M84.3268 151.567C84.2269 151.633 84.144 151.722 84.0847 151.826C84.0254 151.93 83.9914 152.047 83.9855 152.167V163.324L83.688 163.158V151.977C83.6943 151.858 83.7285 151.742 83.7878 151.638C83.8471 151.535 83.9298 151.447 84.0293 151.382L97.2446 143.755L97.5664 143.94L84.3268 151.567Z" fill="#0D1A2E"/>
<path d="M84.005 151.382L97.1715 143.765L97.508 143.945L84.3025 151.567C84.2024 151.633 84.119 151.722 84.0587 151.825L83.7368 151.64C83.8026 151.532 83.8949 151.443 84.005 151.382Z" fill="#DE4589"/>
<path opacity="0.2" d="M84.005 151.382L97.1715 143.765L97.508 143.945L84.3025 151.567C84.2024 151.633 84.119 151.722 84.0587 151.825L83.7368 151.64C83.8026 151.532 83.8949 151.443 84.005 151.382Z" fill="#0D1A2E"/>
<path d="M86.0047 149.67L86.2339 149.538C86.2869 149.512 86.3453 149.498 86.4046 149.498C86.4638 149.498 86.5223 149.512 86.5752 149.538L87.4481 150.026L87.5944 149.982V150.167C87.5927 150.189 87.5855 150.21 87.5735 150.227C87.5616 150.245 87.5453 150.26 87.5261 150.27L87.2238 150.441C87.1706 150.469 87.1111 150.484 87.0507 150.484C86.9903 150.484 86.9308 150.469 86.8776 150.441L85.9315 149.894C85.9116 149.886 85.8942 149.873 85.8813 149.856C85.8684 149.839 85.8605 149.818 85.8584 149.797V149.612L86.0047 149.67Z" fill="#DE4589"/>
<path opacity="0.2" d="M86.0047 149.67L86.2339 149.538C86.2869 149.512 86.3453 149.498 86.4046 149.498C86.4638 149.498 86.5223 149.512 86.5752 149.538L87.4481 150.026L87.5944 149.982V150.167C87.5927 150.189 87.5855 150.21 87.5735 150.227C87.5616 150.245 87.5453 150.26 87.5261 150.27L87.2238 150.441C87.1706 150.469 87.1111 150.484 87.0507 150.484C86.9903 150.484 86.9308 150.469 86.8776 150.441L85.9315 149.894C85.9116 149.886 85.8942 149.873 85.8813 149.856C85.8684 149.839 85.8605 149.818 85.8584 149.797V149.612L86.0047 149.67Z" fill="#0D1A2E"/>
<path d="M85.9314 149.504L86.2338 149.334C86.2861 149.305 86.3448 149.29 86.4045 149.29C86.4641 149.29 86.5228 149.305 86.5751 149.334L87.5504 149.88C87.5711 149.886 87.5891 149.899 87.6019 149.917C87.6147 149.934 87.6216 149.956 87.6216 149.977C87.6216 149.999 87.6147 150.02 87.6019 150.038C87.5891 150.055 87.5711 150.068 87.5504 150.075L87.2481 150.25C87.1942 150.277 87.135 150.29 87.075 150.29C87.015 150.29 86.9558 150.277 86.9018 150.25L85.9558 149.704C85.9344 149.699 85.9151 149.688 85.9004 149.671C85.8858 149.655 85.8765 149.635 85.8738 149.613C85.8712 149.591 85.8753 149.569 85.8856 149.549C85.8959 149.53 85.9119 149.514 85.9314 149.504Z" fill="#DE4589"/>
<path d="M93.3191 145.769L93.5483 145.637C93.6013 145.611 93.6598 145.597 93.719 145.597C93.7783 145.597 93.8367 145.611 93.8897 145.637L94.7626 146.125L94.9089 146.081V146.266C94.9071 146.288 94.8999 146.308 94.888 146.326C94.8761 146.344 94.8597 146.359 94.8406 146.369L94.5383 146.539C94.485 146.568 94.4256 146.583 94.3652 146.583C94.3047 146.583 94.2453 146.568 94.192 146.539L93.246 145.993C93.226 145.985 93.2086 145.972 93.1957 145.955C93.1828 145.938 93.1749 145.917 93.1729 145.896V145.71L93.3191 145.769Z" fill="#DE4589"/>
<path opacity="0.2" d="M93.3191 145.769L93.5483 145.637C93.6013 145.611 93.6598 145.597 93.719 145.597C93.7783 145.597 93.8367 145.611 93.8897 145.637L94.7626 146.125L94.9089 146.081V146.266C94.9071 146.288 94.8999 146.308 94.888 146.326C94.8761 146.344 94.8597 146.359 94.8406 146.369L94.5383 146.539C94.485 146.568 94.4256 146.583 94.3652 146.583C94.3047 146.583 94.2453 146.568 94.192 146.539L93.246 145.993C93.226 145.985 93.2086 145.972 93.1957 145.955C93.1828 145.938 93.1749 145.917 93.1729 145.896V145.71L93.3191 145.769Z" fill="#0D1A2E"/>
<path d="M93.2459 145.603L93.5482 145.432C93.6006 145.404 93.6593 145.389 93.7189 145.389C93.7786 145.389 93.8372 145.404 93.8896 145.432L94.8649 145.979C94.8855 145.985 94.9036 145.998 94.9164 146.016C94.9292 146.033 94.9361 146.054 94.9361 146.076C94.9361 146.098 94.9292 146.119 94.9164 146.136C94.9036 146.154 94.8855 146.167 94.8649 146.174L94.5625 146.349C94.5086 146.375 94.4494 146.389 94.3894 146.389C94.3294 146.389 94.2702 146.375 94.2163 146.349L93.2703 145.803C93.2489 145.798 93.2296 145.786 93.2149 145.77C93.2002 145.754 93.1909 145.733 93.1883 145.712C93.1856 145.69 93.1897 145.668 93.2 145.648C93.2103 145.629 93.2263 145.613 93.2459 145.603Z" fill="#DE4589"/>
<path d="M91.2466 145.15V146.271L91.8903 146.642V144.94C91.8903 144.847 91.8318 144.813 91.7537 144.857L91.2466 145.15Z" fill="#DE4589"/>
<path opacity="0.3" d="M91.2466 145.15V146.271L91.8903 146.642V144.94C91.8903 144.847 91.8318 144.813 91.7537 144.857L91.2466 145.15Z" fill="#0D1A2E"/>
<path d="M87.8623 146.339V148.417L88.35 148.695L88.6718 148.505V146.803C88.6746 146.755 88.6888 146.708 88.7135 146.666C88.7381 146.625 88.7723 146.589 88.8132 146.564L91.2514 145.15L91.7391 144.857C91.8171 144.813 91.8756 144.857 91.8756 144.94V146.642L92.2024 146.457V144.379C92.2046 144.37 92.2046 144.36 92.2024 144.35C92.1953 144.307 92.1795 144.267 92.156 144.231C92.1325 144.195 92.1018 144.164 92.0658 144.14L91.861 144.023C91.8188 144.001 91.772 143.99 91.7245 143.99C91.677 143.99 91.6301 144.001 91.5879 144.023L87.9988 146.091C87.9581 146.119 87.9244 146.156 87.9007 146.199C87.877 146.242 87.8638 146.29 87.8623 146.339Z" fill="#DE4589"/>
<path d="M88.3403 146.612V148.695L88.6622 148.505V146.803C88.6649 146.754 88.6792 146.708 88.7038 146.666C88.7284 146.624 88.7627 146.589 88.8036 146.564L91.2418 145.15L91.7295 144.857C91.8075 144.813 91.866 144.857 91.866 144.94V146.642L92.1927 146.456V144.379C92.195 144.369 92.195 144.359 92.1927 144.35C92.1927 144.282 92.1245 144.262 92.0562 144.301L88.4574 146.378C88.4221 146.407 88.3933 146.442 88.3731 146.483C88.3529 146.523 88.3417 146.567 88.3403 146.612Z" fill="#DE4589"/>
<path opacity="0.2" d="M88.3403 146.612V148.695L88.6622 148.505V146.803C88.6649 146.754 88.6792 146.708 88.7038 146.666C88.7284 146.624 88.7627 146.589 88.8036 146.564L91.2418 145.15L91.7295 144.857C91.8075 144.813 91.866 144.857 91.866 144.94V146.642L92.1927 146.456V144.379C92.195 144.369 92.195 144.359 92.1927 144.35C92.1927 144.282 92.1245 144.262 92.0562 144.301L88.4574 146.378C88.4221 146.407 88.3933 146.442 88.3731 146.483C88.3529 146.523 88.3417 146.567 88.3403 146.612Z" fill="#0D1A2E"/>
<path d="M91.1248 141.458C91.1248 141.458 91.1248 142.102 91.1248 142.38C91.3058 143.224 91.4313 144.079 91.5003 144.94C91.5686 145.242 91.1492 145.842 90.4567 146.169C90.1593 146.31 89.6424 146.788 89.4083 146.812C89.1937 146.766 88.989 146.682 88.8036 146.564L89.0962 146.393C89.0962 146.393 89.5009 145.803 89.0572 145.491L88.1794 145.979C88.1296 145.714 88.1296 145.443 88.1794 145.179C88.2623 144.74 88.2721 144.174 88.3403 143.716C88.4385 143.352 88.6039 143.01 88.828 142.706L88.6817 141.244L91.1248 141.458Z" fill="#FFA8A7"/>
<path d="M85.6826 120.865C86.4498 121.137 87.1816 121.501 87.8624 121.947C88.4037 122.381 91.5637 131.432 91.6856 132.246C91.8075 133.061 91.3394 141.634 91.3394 141.634C90.9177 141.909 90.4323 142.07 89.93 142.102C89.4277 142.135 88.9255 142.037 88.472 141.819L87.9843 133.227L85.2633 126.151C85.2633 126.151 84.2295 123.171 85.6826 120.865Z" fill="#25497D"/>
</svg>
