<svg width="212" height="200" viewBox="0 0 212 200" fill="none" xmlns="http://www.w3.org/2000/svg">
<path d="M106 200C164.125 200 211.244 173.91 211.244 141.727C211.244 109.543 164.125 83.4532 106 83.4532C47.8753 83.4532 0.755859 109.543 0.755859 141.727C0.755859 173.91 47.8753 200 106 200Z" fill="#DBDBDB"/>
<path d="M18.4229 159.036C31.1193 165.455 51.6977 165.455 64.3896 159.036C77.0814 152.616 77.086 142.185 64.3896 135.752C51.6931 129.319 31.1193 129.333 18.4229 135.752C5.7265 142.171 5.74025 152.616 18.4229 159.036Z" fill="#DBDBDB"/>
<path d="M193.578 159.036C180.886 165.455 160.303 165.455 147.611 159.036C134.919 152.616 134.919 142.185 147.611 135.752C160.303 129.319 180.886 129.333 193.578 135.752C206.27 142.171 206.26 152.616 193.578 159.036Z" fill="#DBDBDB"/>
<path d="M132.136 139.888L106 124.798L79.8647 139.888L106 154.973L132.136 139.888Z" fill="#DBDBDB"/>
<path d="M143.347 52.4985C151.967 44.7403 161.229 35.0105 161.357 29.1965C157.355 29.1048 156.437 29.1965 153.819 31.1819C151.49 32.9517 141.93 45.0521 138.688 47.1475C134.396 48.225 126.675 49.4814 122.956 49.5502C122.298 49.5572 121.66 49.3222 121.164 48.8899C119.82 47.7344 118.775 47.7711 117.312 47.0558C116.166 46.4873 115.721 45.8362 115.478 46.0379C115.235 46.2397 114.767 47.0787 115.405 48.0095C115.823 48.5548 116.315 49.0394 116.867 49.4493C115.483 49.2916 114.128 48.9413 112.841 48.4085C109.756 47.1705 108.22 47.5556 109.453 51.6181C110.223 54.1583 112.42 55.6943 118.623 55.8548C120.904 55.9593 123.188 55.8995 125.46 55.676C129.999 55.0845 135.217 54.9928 138.922 54.5251C140.568 54.313 142.111 53.6063 143.347 52.4985Z" fill="#FFB3B2"/>
<path d="M161.788 28.9443C158.826 28.3986 155.286 29.1735 152.925 31.4616C150.563 33.7496 145.446 39.7149 145.446 39.7149C145.446 39.7149 147.909 44.3322 151.613 45.2447L155.282 41.2418L161.788 28.9443Z" fill="#DE4589"/>
<path opacity="0.1" d="M161.788 28.9443C158.826 28.3986 155.286 29.1735 152.925 31.4616C150.563 33.7496 145.446 39.7149 145.446 39.7149C145.446 39.7149 147.909 44.3322 151.613 45.2447L155.282 41.2418L161.788 28.9443Z" fill="#0D1A2E"/>
<path d="M178.286 138.723H173.026V146.38H178.286V138.723Z" fill="#FFB3B2"/>
<path d="M159.786 129.247L154.53 129.428L154.794 137.081L160.05 136.9L159.786 129.247Z" fill="#FFB3B2"/>
<path d="M177.937 63.9615C177.937 69.0053 178.588 101.469 178.588 101.469C178.712 102.917 180.065 105.595 179.771 111.13C179.372 118.668 178.721 139.613 178.721 139.613C178.721 139.613 176.254 142.057 172.761 139.613C172.761 139.613 168.001 111.157 167.057 103.683C166.236 97.163 164.837 79.4504 164.837 79.4504L162.16 100.712C162.16 100.712 163.017 105.614 163.21 109.075C163.402 112.537 160.119 132.102 160.119 132.102C159.268 132.636 158.291 132.937 157.287 132.975C156.283 133.014 155.287 132.789 154.397 132.322C154.397 132.322 152.379 103.555 151.852 100.414C151.325 97.273 153.356 63.9615 153.356 63.9615H177.937Z" fill="#25497D"/>
<path d="M170.023 29.1828C170.418 29.2791 172.678 29.8109 174.829 30.3795C175.72 30.6146 176.509 31.1385 177.071 31.8694C177.634 32.6002 177.938 33.4968 177.937 34.4191V63.9615C174.269 67.9736 161.394 69.8443 153.342 63.9615V38.3257C153.342 34.2311 155.635 29.3112 161.903 28.9443L170.023 29.1828Z" fill="#DBDBDB"/>
<path d="M171.793 8.21919C172.217 8.16944 172.646 8.21711 173.048 8.35857C173.45 8.50002 173.814 8.73151 174.113 9.03535C175.108 10.0533 174.902 11.9378 174.113 16.2708L171.037 16.6239L171.793 8.21919Z" fill="#0D1A2E"/>
<path d="M153.846 6.96748C153.184 6.97028 152.529 6.83602 151.921 6.57316C150.976 6.0321 150.728 7.10504 151.247 8.04042C151.59 8.70807 152.098 9.27679 152.724 9.69251C153.349 10.1082 154.07 10.3571 154.819 10.4156C154.846 10.2826 155.703 8.01291 155.703 8.01291L153.846 6.96748Z" fill="#0D1A2E"/>
<path d="M158.643 17.5456C161.962 17.5456 164.654 14.8543 164.654 11.5344C164.654 8.2145 161.962 5.52319 158.643 5.52319C155.323 5.52319 152.631 8.2145 152.631 11.5344C152.631 14.8543 155.323 17.5456 158.643 17.5456Z" fill="#0D1A2E"/>
<path d="M170.349 16.6239C170.807 16.899 171.458 16.0186 172.022 15.4317C172.586 14.8448 174.425 14.0561 175.342 15.9682C176.259 17.8802 174.531 20.5534 173.082 21.0119C170.587 21.796 170.211 20.1957 170.211 20.1957L170.023 29.1965C170.023 29.1965 168.386 33.1948 163.962 33.7817C159.537 34.3686 160.449 30.7325 161.903 28.9443V26.1932C161.903 26.1932 159.642 26.5371 158.542 26.3628C156.708 26.0785 155.548 24.6342 154.993 22.6442C154.099 19.4346 153.76 16.876 154.534 10.6035C155.369 3.72568 163.37 3.65232 167.689 6.37135C172.009 9.09037 170.349 16.6239 170.349 16.6239Z" fill="#FFB3B2"/>
<path d="M170.119 17.8986C170.335 17.816 171.454 15.9499 172.022 15.4317C172.811 14.7119 171.793 8.21921 171.793 8.21921C171.793 8.21921 172.591 5.75696 171.032 4.12463C169.473 2.49229 166.447 2.74906 164.25 2.68487C161.958 2.60234 159.491 2.46478 156.359 1.10298C153.227 -0.258827 152.989 -0.419309 152.599 0.956252C152.21 2.33181 152.063 5.48643 153.934 7.60021L155.493 8.16877C155.493 8.16877 156.332 8.91616 159.257 9.27381C161.454 9.51329 163.671 9.51329 165.869 9.27381C166.717 9.15918 167.62 9.73233 167.905 12.4284C168.116 14.3817 168.817 18.3892 170.119 17.8986Z" fill="#0D1A2E"/>
<path d="M171.789 8.72372L174.54 7.2427C174.452 7.05601 174.327 6.88919 174.172 6.75238C174.017 6.61556 173.837 6.51162 173.641 6.44685C173.445 6.38209 173.238 6.35787 173.032 6.37566C172.826 6.39345 172.626 6.45288 172.444 6.55033C172.077 6.75918 171.804 7.10133 171.682 7.50592C171.56 7.9105 171.598 8.34654 171.789 8.72372Z" fill="#0D1A2E"/>
<path d="M161.907 26.2071C161.907 26.2071 166.006 25.3818 167.437 24.6207C168.28 24.1808 168.97 23.4968 169.418 22.6582C169.201 23.4899 168.819 24.2695 168.294 24.9508C167.244 26.2897 161.907 27.2755 161.907 27.2755V26.2071Z" fill="#F59595"/>
<path d="M161.907 15.6013C161.914 15.7633 161.967 15.9197 162.062 16.0513C162.157 16.1828 162.288 16.2836 162.439 16.341C162.591 16.3984 162.756 16.41 162.914 16.3742C163.072 16.3385 163.216 16.257 163.328 16.1399C163.44 16.0229 163.515 15.8754 163.544 15.716C163.573 15.5565 163.554 15.3921 163.49 15.2433C163.426 15.0944 163.32 14.9677 163.184 14.8789C163.049 14.7901 162.89 14.7431 162.728 14.7439C162.506 14.7511 162.296 14.8449 162.143 15.0052C161.989 15.1655 161.905 15.3795 161.907 15.6013Z" fill="#0D1A2E"/>
<path d="M162.687 17.7473C162.687 17.7777 162.699 17.8069 162.721 17.8284C162.742 17.8499 162.771 17.862 162.802 17.862C162.832 17.862 162.861 17.8499 162.883 17.8284C162.904 17.8069 162.916 17.7777 162.916 17.7473C162.916 17.7169 162.904 17.6878 162.883 17.6663C162.861 17.6448 162.832 17.6327 162.802 17.6327C162.771 17.6327 162.742 17.6448 162.721 17.6663C162.699 17.6878 162.687 17.7169 162.687 17.7473Z" fill="#F59595"/>
<path d="M163.609 17.2245C163.608 17.2399 163.611 17.2554 163.616 17.2698C163.622 17.2842 163.63 17.2974 163.641 17.3085C163.651 17.3197 163.664 17.3285 163.678 17.3346C163.693 17.3406 163.708 17.3437 163.723 17.3437C163.755 17.3437 163.785 17.3312 163.808 17.3088C163.83 17.2865 163.843 17.2561 163.843 17.2245C163.846 17.2072 163.846 17.1894 163.841 17.1723C163.837 17.1552 163.829 17.1392 163.818 17.1256C163.807 17.112 163.793 17.101 163.777 17.0935C163.761 17.0859 163.743 17.082 163.726 17.082C163.708 17.082 163.691 17.0859 163.675 17.0935C163.659 17.101 163.645 17.112 163.633 17.1256C163.622 17.1392 163.614 17.1552 163.61 17.1723C163.606 17.1894 163.605 17.2072 163.609 17.2245Z" fill="#F59595"/>
<path d="M164.076 18.1417C164.075 18.1573 164.077 18.173 164.082 18.1877C164.087 18.2025 164.096 18.216 164.106 18.2272C164.117 18.2385 164.13 18.2474 164.145 18.2532C164.159 18.259 164.175 18.2616 164.191 18.2609C164.222 18.2609 164.253 18.2483 164.275 18.226C164.297 18.2036 164.31 18.1733 164.31 18.1417C164.31 18.1101 164.297 18.0797 164.275 18.0574C164.253 18.035 164.222 18.0225 164.191 18.0225C164.16 18.0236 164.131 18.0367 164.109 18.059C164.088 18.0812 164.076 18.1108 164.076 18.1417Z" fill="#F59595"/>
<path d="M164.842 17.3531C164.842 17.3852 164.854 17.416 164.876 17.4391C164.899 17.4622 164.929 17.4757 164.961 17.4769C164.977 17.4763 164.992 17.4726 165.006 17.4661C165.021 17.4596 165.033 17.4503 165.044 17.4388C165.055 17.4273 165.063 17.4138 165.068 17.3991C165.074 17.3844 165.076 17.3688 165.076 17.3531C165.076 17.3223 165.064 17.2926 165.042 17.2704C165.021 17.2482 164.992 17.2351 164.961 17.2339C164.929 17.2339 164.899 17.2464 164.877 17.2688C164.854 17.2912 164.842 17.3215 164.842 17.3531Z" fill="#F59595"/>
<path d="M161.389 17.1054C161.389 17.1358 161.401 17.1649 161.423 17.1864C161.444 17.2079 161.473 17.22 161.504 17.22C161.534 17.22 161.563 17.2079 161.585 17.1864C161.606 17.1649 161.618 17.1358 161.618 17.1054C161.618 17.075 161.606 17.0458 161.585 17.0243C161.563 17.0028 161.534 16.9907 161.504 16.9907C161.473 16.9907 161.444 17.0028 161.423 17.0243C161.401 17.0458 161.389 17.075 161.389 17.1054Z" fill="#F59595"/>
<path d="M161.66 18.1415C161.659 18.1571 161.661 18.1728 161.666 18.1875C161.671 18.2023 161.68 18.2158 161.69 18.227C161.701 18.2383 161.714 18.2472 161.729 18.253C161.743 18.2588 161.759 18.2614 161.775 18.2607C161.79 18.2607 161.805 18.2576 161.82 18.2516C161.834 18.2455 161.847 18.2367 161.857 18.2255C161.868 18.2144 161.876 18.2012 161.882 18.1868C161.887 18.1723 161.89 18.1569 161.889 18.1415C161.889 18.1111 161.877 18.0819 161.856 18.0604C161.834 18.0389 161.805 18.0269 161.775 18.0269C161.744 18.0269 161.715 18.0389 161.694 18.0604C161.672 18.0819 161.66 18.1111 161.66 18.1415Z" fill="#F59595"/>
<path d="M160.385 17.4677C160.385 17.4981 160.397 17.5272 160.419 17.5487C160.44 17.5702 160.469 17.5823 160.5 17.5823C160.53 17.5823 160.559 17.5702 160.581 17.5487C160.602 17.5272 160.615 17.4981 160.615 17.4677C160.615 17.4373 160.602 17.4081 160.581 17.3866C160.559 17.3651 160.53 17.353 160.5 17.353C160.469 17.353 160.44 17.3651 160.419 17.3866C160.397 17.4081 160.385 17.4373 160.385 17.4677Z" fill="#F59595"/>
<path d="M156.809 17.0596C156.809 17.0904 156.821 17.1201 156.842 17.1423C156.863 17.1645 156.892 17.1776 156.923 17.1788C156.939 17.1782 156.954 17.1745 156.969 17.168C156.983 17.1615 156.996 17.1522 157.006 17.1407C157.017 17.1292 157.025 17.1157 157.031 17.101C157.036 17.0863 157.039 17.0707 157.038 17.055C157.038 17.0242 157.026 16.9945 157.005 16.9723C156.983 16.9501 156.954 16.937 156.923 16.9358C156.908 16.9364 156.892 16.9401 156.878 16.9466C156.864 16.9531 156.851 16.9624 156.84 16.9739C156.83 16.9854 156.821 16.9989 156.816 17.0136C156.811 17.0283 156.808 17.0439 156.809 17.0596Z" fill="#F59595"/>
<path d="M156.002 17.6234C156.001 17.6389 156.003 17.6543 156.009 17.6687C156.014 17.6831 156.023 17.6963 156.033 17.7075C156.044 17.7186 156.057 17.7274 156.071 17.7335C156.085 17.7395 156.101 17.7426 156.116 17.7426C156.147 17.7414 156.176 17.7284 156.198 17.7061C156.219 17.6839 156.231 17.6543 156.231 17.6234C156.231 17.593 156.219 17.5639 156.197 17.5424C156.176 17.5209 156.147 17.5088 156.116 17.5088C156.086 17.5088 156.057 17.5209 156.035 17.5424C156.014 17.5639 156.002 17.593 156.002 17.6234Z" fill="#F59595"/>
<path d="M155.369 17.0181C155.368 17.0338 155.371 17.0494 155.376 17.0641C155.381 17.0788 155.39 17.0923 155.4 17.1038C155.411 17.1153 155.424 17.1246 155.438 17.1311C155.452 17.1377 155.468 17.1414 155.483 17.1419C155.512 17.1364 155.537 17.1213 155.555 17.0991C155.573 17.077 155.583 17.0492 155.583 17.0204C155.583 16.9917 155.573 16.9639 155.555 16.9417C155.537 16.9196 155.512 16.9044 155.483 16.8989C155.453 16.9001 155.423 16.9132 155.402 16.9354C155.381 16.9577 155.369 16.9873 155.369 17.0181Z" fill="#F59595"/>
<path d="M154.603 17.2979C154.6 17.3152 154.6 17.3331 154.605 17.3502C154.609 17.3673 154.617 17.3832 154.628 17.3968C154.639 17.4104 154.653 17.4214 154.669 17.429C154.685 17.4365 154.703 17.4404 154.72 17.4404C154.738 17.4404 154.755 17.4365 154.771 17.429C154.787 17.4214 154.801 17.4104 154.812 17.3968C154.824 17.3832 154.832 17.3673 154.836 17.3502C154.84 17.3331 154.841 17.3152 154.837 17.2979C154.837 17.2671 154.825 17.2374 154.804 17.2152C154.783 17.193 154.753 17.1799 154.723 17.1787C154.691 17.1787 154.661 17.1913 154.638 17.2136C154.616 17.236 154.603 17.2663 154.603 17.2979Z" fill="#F59595"/>
<path d="M154.475 16.3992C154.474 16.4149 154.477 16.4305 154.482 16.4452C154.487 16.4599 154.496 16.4734 154.506 16.4849C154.517 16.4964 154.53 16.5057 154.544 16.5122C154.558 16.5188 154.574 16.5225 154.589 16.523C154.618 16.5175 154.643 16.5024 154.661 16.4802C154.679 16.4581 154.689 16.4303 154.689 16.4015C154.689 16.3728 154.679 16.345 154.661 16.3228C154.643 16.3007 154.618 16.2855 154.589 16.28C154.559 16.2812 154.529 16.2943 154.508 16.3165C154.487 16.3388 154.475 16.3684 154.475 16.3992Z" fill="#F59595"/>
<path d="M162.779 12.5018L164.535 13.4692C164.654 13.231 164.678 12.9563 164.603 12.7009C164.527 12.4455 164.357 12.2284 164.127 12.0937C164.012 12.0299 163.886 11.9899 163.755 11.976C163.624 11.9621 163.492 11.9745 163.367 12.0125C163.241 12.0506 163.124 12.1135 163.023 12.1975C162.922 12.2816 162.839 12.385 162.779 12.5018Z" fill="#0D1A2E"/>
<path d="M162.279 21.2734L160.403 21.975C160.445 22.1006 160.511 22.2168 160.597 22.3165C160.684 22.4163 160.79 22.4976 160.909 22.5557C161.028 22.6138 161.157 22.6476 161.289 22.6549C161.421 22.6623 161.553 22.6431 161.678 22.5986C161.931 22.4989 162.135 22.3049 162.247 22.0576C162.359 21.8103 162.37 21.5291 162.279 21.2734Z" fill="#F59595"/>
<path d="M155.094 13.185L156.699 11.9516C156.623 11.8463 156.528 11.7571 156.417 11.6891C156.307 11.6211 156.184 11.5758 156.056 11.5557C155.928 11.5357 155.797 11.5413 155.671 11.5723C155.546 11.6032 155.427 11.6589 155.323 11.7361C155.106 11.902 154.962 12.145 154.919 12.4147C154.876 12.6845 154.939 12.9603 155.094 13.185Z" fill="#0D1A2E"/>
<path d="M155.589 15.3676C155.596 15.5281 155.65 15.6831 155.745 15.8131C155.839 15.9432 155.97 16.0427 156.12 16.0992C156.271 16.1557 156.434 16.1668 156.591 16.1311C156.748 16.0955 156.891 16.0145 157.002 15.8984C157.113 15.7823 157.188 15.6361 157.216 15.478C157.245 15.3199 157.227 15.1568 157.164 15.0089C157.101 14.8611 156.996 14.735 156.862 14.6463C156.728 14.5576 156.57 14.5103 156.41 14.5101C156.188 14.5161 155.977 14.6096 155.823 14.7701C155.669 14.9307 155.585 15.1454 155.589 15.3676Z" fill="#0D1A2E"/>
<path d="M159.257 14.588L158.987 19.5263L156.41 18.6459L159.257 14.588Z" fill="#F59595"/>
<path d="M173.027 143.785V143.033C172.522 143.253 171.353 147.715 169.267 149.618C167.607 151.131 165.346 152.878 164.769 154.565C164.191 156.252 167.919 157.289 169.469 157.013C171.271 156.693 174.393 155.427 175.177 154.262C175.961 153.098 176.323 151.355 176.961 150.493C177.598 149.631 179.065 148.659 179.409 147.673C179.602 147.128 179.377 145.926 179.111 144.922C178.864 144.005 178.602 142.969 178.286 143.056C178.286 143.171 178.286 143.629 178.286 143.629C177.901 144.056 176.846 144.473 175.654 144.519C174.884 144.528 173.018 144.363 173.027 143.785Z" fill="#0D1A2E"/>
<path d="M154.741 135.459C154.466 135.459 154.246 135.853 153.64 136.504C152.74 137.413 151.696 138.166 150.55 138.733C148.578 139.718 144.75 141.231 143.016 142.016C141.934 142.502 141.985 143.808 143.104 144.551C144.222 145.294 146.923 145.835 150.169 145.106C151.935 144.712 154.236 143.079 155.672 143.166C157.107 143.254 159.853 143.235 160.931 142.497C162.008 141.759 161.573 140.172 161.27 138.829C160.94 137.348 160.463 135.078 159.973 135.161V135.619C159.34 136.573 156.121 136.967 154.732 136.261L154.741 135.459Z" fill="#0D1A2E"/>
<path d="M164.851 79.4505C162.127 78.6046 159.623 77.1708 157.515 75.2505C157.515 75.2505 158.931 77.8961 163.132 80.3584L162.902 94.8201L164.851 79.4505Z" fill="#0D1A2E"/>
<path d="M68.6586 52.4985C60.0339 44.7403 50.7534 35.0105 50.6479 29.1965C54.6462 29.1048 55.5679 29.1965 58.1814 31.1819C60.5107 32.9517 70.0709 45.0521 73.3126 47.1475C77.6044 48.225 85.3304 49.4814 89.0444 49.5502C89.7027 49.5572 90.3407 49.3222 90.8372 48.8899C92.1807 47.7344 93.2261 47.7711 94.6888 47.0558C95.8397 46.4873 96.2799 45.8362 96.5229 46.0379C96.8393 46.2947 97.2336 47.0787 96.5963 48.0095C96.1777 48.5548 95.6854 49.0394 95.1336 49.4493C96.5175 49.2916 97.8725 48.9413 99.1594 48.4085C102.245 47.1705 103.781 47.5556 102.552 51.6181C101.782 54.1583 99.5812 55.6943 93.382 55.8548C91.1018 55.9593 88.8171 55.8995 86.5455 55.676C82.0061 55.0845 76.7928 54.9928 73.0879 54.5251C71.4398 54.3156 69.8947 53.6086 68.6586 52.4985Z" fill="#9C5456"/>
<path d="M45.7185 2.75368H47.0528C50.093 2.75368 53.0086 3.96138 55.1584 6.11111C57.3081 8.26084 58.5158 11.1765 58.5158 14.2167V27.7981H44.3017C42.9824 27.7968 41.6763 27.5358 40.4579 27.0298C39.2395 26.5238 38.1326 25.7828 37.2006 24.8491C36.2686 23.9154 35.5296 22.8072 35.0259 21.5879C34.5221 20.3686 34.2634 19.062 34.2647 17.7427V14.2075C34.2647 11.1673 35.4724 8.25167 37.6221 6.10194C39.7718 3.95221 42.6875 2.74451 45.7277 2.74451L45.7185 2.75368Z" fill="#0D1A2E"/>
<path d="M23.3154 135.858L23.8656 135.289C23.4437 136.174 21.6922 140.058 21.871 143.029C22.0132 145.39 22.4396 148.375 21.6326 150.072C20.7981 151.842 17.5059 149.531 16.5614 148.183C15.4334 146.619 14.4201 144.134 14.6081 142.025C14.741 140.544 15.2637 139.141 15.4151 138.022C15.5664 136.903 15.1675 135.096 15.6397 134.092C15.8965 133.537 16.9511 132.799 17.8957 132.226C18.7623 131.703 19.7297 131.126 19.8902 131.424L19.4684 131.855C19.4455 132.455 19.9269 133.551 20.8027 134.459C21.3621 135.051 22.8844 136.307 23.3154 135.858Z" fill="#DE4589"/>
<path opacity="0.1" d="M23.3154 135.858L23.8656 135.289C23.4437 136.174 21.6922 140.058 21.871 143.029C22.0132 145.39 22.4396 148.375 21.6326 150.072C20.7981 151.842 17.5059 149.531 16.5614 148.183C15.4334 146.619 14.4201 144.134 14.6081 142.025C14.741 140.544 15.2637 139.141 15.4151 138.022C15.5664 136.903 15.1675 135.096 15.6397 134.092C15.8965 133.537 16.9511 132.799 17.8957 132.226C18.7623 131.703 19.7297 131.126 19.8902 131.424L19.4684 131.855C19.4455 132.455 19.9269 133.551 20.8027 134.459C21.3621 135.051 22.8844 136.307 23.3154 135.858Z" fill="#0D1A2E"/>
<path d="M22.027 145.138C21.9766 144.414 21.9124 143.694 21.8711 143.024C21.7473 140.947 22.5635 138.439 23.2146 136.793C23.586 135.876 27.0478 130.938 27.0478 130.938L22.215 126.811L19.4639 131.855L19.3676 131.951V131.983C18.7578 132.992 18.4506 136.963 18.0883 139.407C17.8499 141.044 17.9829 143.533 19.3538 145.289C20.6744 146.945 21.894 147.215 22.027 145.138Z" fill="#9C5456"/>
<path d="M52.5963 138.017C52.5214 138.038 52.4549 138.082 52.4064 138.143C52.3578 138.204 52.3296 138.279 52.3258 138.356C52.2616 138.815 52.1883 139.649 52.0507 140.42C51.8627 141.447 51.6747 142.923 51.8581 143.739C52.0415 144.556 53.9627 145.716 55.2558 145.885C56.5488 146.055 58.7726 147.261 59.8135 148.178C61.0881 149.297 63.7888 150.195 65.6046 150.218C67.7321 150.241 69.4011 149.76 69.8871 148.201C70.0889 147.554 69.557 146.766 66.8105 145.509C66.8105 145.509 65.4349 144.812 64.6325 144.335C60.6571 141.937 59.2907 140.557 58.1032 138.058L52.5963 138.017Z" fill="#DE4589"/>
<path opacity="0.1" d="M52.5963 138.017C52.5214 138.038 52.4549 138.082 52.4064 138.143C52.3578 138.204 52.3296 138.279 52.3258 138.356C52.2616 138.815 52.1883 139.649 52.0507 140.42C51.8627 141.447 51.6747 142.923 51.8581 143.739C52.0415 144.556 53.9627 145.716 55.2558 145.885C56.5488 146.055 58.7726 147.261 59.8135 148.178C61.0881 149.297 63.7888 150.195 65.6046 150.218C67.7321 150.241 69.4011 149.76 69.8871 148.201C70.0889 147.554 69.557 146.766 66.8105 145.509C66.8105 145.509 65.4349 144.812 64.6325 144.335C60.6571 141.937 59.2907 140.557 58.1032 138.058L52.5963 138.017Z" fill="#0D1A2E"/>
<path d="M59.621 140.099C58.952 139.052 58.5738 137.846 58.5251 136.605L58.438 133.216H52.5781V138.012V138.746C52.9083 141.075 55.1046 141.35 56.9386 142.639C57.8557 143.281 61.423 146.023 63.8165 146.468C65.7697 146.825 66.4988 146.055 66.7602 145.505C64.1798 143.984 61.7841 142.17 59.621 140.099Z" fill="#9C5456"/>
<path d="M33.6594 102.702C31.0532 105.014 29.0137 107.894 27.6986 111.12C25.892 115.719 20.7153 129.195 20.7153 129.195C20.7153 129.195 22.9804 133.171 26.0617 133.441C26.0617 133.441 40.6931 111.923 42.3758 106.893C44.0815 104.325 46.2136 91.6791 47.7589 82.9305L47.8139 83.0268L50.4458 101.588C49.7649 103.765 49.2724 105.997 48.9739 108.259C48.5154 112.812 52.3716 134.853 52.3716 134.853C52.3716 134.853 54.9897 136.229 58.612 135.014C58.612 135.014 59.1944 106.274 59.607 100.785C60.2948 91.5736 60.6295 65.5939 58.9422 60.1421L34.8011 61.4901C32.7973 67.2767 32.6414 70.9723 32.8982 77.3183C33.1366 83.8751 33.6594 102.702 33.6594 102.702Z" fill="#25497D"/>
<path d="M47.8003 83.0268L49.1759 74.4571C49.1759 74.4571 54.9761 73.2512 57.608 70.7889C57.608 70.7889 54.8569 74.2233 50.7302 75.3466L49.1896 81.9447L50.2396 100.162L47.8003 83.0268Z" fill="#0D1A2E"/>
<path d="M42.2293 29.4442C36.8141 29.8156 35.113 32.0348 35.0764 35.2949C35.0985 37.8986 35.5365 40.4821 36.374 42.9476L38.8316 51.2835C38.8316 51.2835 36.7958 55.9054 34.7783 61.5177C44.2513 66.8044 56.0766 64.0258 58.9286 60.1696C59.0478 59.3489 58.3142 52.9525 57.8648 48.7708C59.5338 44.5891 59.974 41.9343 59.2679 39.1694C57.9611 34.034 52.8899 29.0315 50.6477 29.2103L42.2293 29.4442Z" fill="#DE4589"/>
<path opacity="0.1" d="M42.2293 29.4442C36.8141 29.8156 35.113 32.0348 35.0764 35.2949C35.0985 37.8986 35.5365 40.4821 36.374 42.9476L38.8316 51.2835C38.8316 51.2835 36.7958 55.9054 34.7783 61.5177C44.2513 66.8044 56.0766 64.0258 58.9286 60.1696C59.0478 59.3489 58.3142 52.9525 57.8648 48.7708C59.5338 44.5891 59.974 41.9343 59.2679 39.1694C57.9611 34.034 52.8899 29.0315 50.6477 29.2103L42.2293 29.4442Z" fill="#0D1A2E"/>
<path d="M54.2517 63.1407L45.902 54.14L35.246 37.9542C35.4513 39.6527 35.8293 41.3257 36.374 42.9475L38.8316 51.2834C38.8316 51.2834 36.7958 55.9053 34.7783 61.5176C41.4131 65.2087 49.2034 64.9519 54.2517 63.1407Z" fill="#DE4589"/>
<path opacity="0.1" d="M54.2517 63.1407L45.902 54.14L35.246 37.9542C35.4513 39.6527 35.8293 41.3257 36.374 42.9475L38.8316 51.2834C38.8316 51.2834 36.7958 55.9053 34.7783 61.5176C41.4131 65.2087 49.2034 64.9519 54.2517 63.1407Z" fill="#0D1A2E"/>
<path d="M34.0125 6.64648L35.654 9.27839C35.4854 9.39421 35.295 9.47442 35.0943 9.5141C34.8936 9.55379 34.687 9.55212 34.487 9.5092C34.287 9.46628 34.0978 9.38301 33.9311 9.26449C33.7644 9.14596 33.6236 8.99467 33.5173 8.81987C33.309 8.46231 33.2443 8.03897 33.3362 7.63549C33.4281 7.23201 33.6699 6.8785 34.0125 6.64648Z" fill="#0D1A2E"/>
<path d="M32.2197 9.6498L35.2918 9.19128C35.3339 9.39434 35.3338 9.60391 35.2913 9.80689C35.2488 10.0099 35.1649 10.2019 35.0448 10.371C34.9248 10.5401 34.7711 10.6827 34.5935 10.7897C34.4159 10.8968 34.2181 10.9661 34.0125 10.9933C33.5985 11.0415 33.1818 10.929 32.8482 10.679C32.5147 10.4291 32.2897 10.0607 32.2197 9.6498Z" fill="#0D1A2E"/>
<path d="M54.527 7.65515C55.8063 8.41171 57.3882 11.6351 57.2323 18.3845C57.0993 24.1069 55.2469 25.5191 54.3161 25.9272C53.3853 26.3353 51.5879 26.0877 49.841 25.7942V29.2285C49.841 29.2285 52.2574 32.0347 52.1015 33.6074C51.9456 35.1801 48.6167 35.5561 46.3608 34.0155C44.8957 32.9637 43.6394 31.6482 42.656 30.1364V21.8372C42.656 21.8372 41.4776 23.4099 39.5472 22.1306C37.6168 20.8514 37.548 17.6784 38.6668 16.5413C39.7856 15.4041 42.202 15.7618 42.656 17.3345C42.656 17.3345 45.4392 17.4354 49.1486 15.3996C50.5909 14.6225 51.8296 13.5163 52.7641 12.1707C53.6987 10.8251 54.3026 9.27801 54.527 7.65515Z" fill="#9C5456"/>
<path d="M50.2029 16.9448C50.2045 17.086 50.1646 17.2245 50.0881 17.3432C50.0116 17.4618 49.9019 17.5553 49.7727 17.6121C49.6434 17.6689 49.5004 17.6865 49.3612 17.6626C49.2221 17.6387 49.0931 17.5744 48.9902 17.4778C48.8873 17.3811 48.8151 17.2563 48.7826 17.119C48.75 16.9816 48.7586 16.8377 48.8072 16.7052C48.8558 16.5726 48.9423 16.4573 49.056 16.3736C49.1696 16.2898 49.3054 16.2413 49.4463 16.2341C49.5427 16.2311 49.6387 16.247 49.7289 16.2811C49.8191 16.3152 49.9016 16.3667 49.9719 16.4327C50.0422 16.4987 50.0987 16.5779 50.1384 16.6658C50.178 16.7537 50.1999 16.8485 50.2029 16.9448Z" fill="#0D1A2E"/>
<path d="M51.0375 21.7961L52.7065 22.3326C52.676 22.4442 52.6234 22.5484 52.5518 22.6392C52.4801 22.73 52.391 22.8055 52.2896 22.8611C52.1882 22.9167 52.0766 22.9514 51.9616 22.963C51.8465 22.9746 51.7303 22.9629 51.6198 22.9287C51.395 22.8521 51.2086 22.6912 51.1 22.48C50.9914 22.2687 50.969 22.0236 51.0375 21.7961Z" fill="#7D3336"/>
<path d="M56.1041 14.7394L54.646 13.7261C54.7077 13.6286 54.7885 13.5446 54.8834 13.4791C54.9784 13.4136 55.0856 13.3679 55.1986 13.3448C55.3116 13.3217 55.4281 13.3216 55.5412 13.3446C55.6542 13.3675 55.7615 13.4131 55.8565 13.4785C56.0547 13.6143 56.1918 13.8225 56.2381 14.0583C56.2844 14.2942 56.2363 14.5387 56.1041 14.7394Z" fill="#0D1A2E"/>
<path d="M55.7693 16.4361C55.7709 16.5772 55.731 16.7157 55.6545 16.8344C55.578 16.953 55.4683 17.0465 55.3391 17.1033C55.2098 17.1601 55.0668 17.1777 54.9276 17.1538C54.7885 17.1299 54.6595 17.0656 54.5566 16.969C54.4537 16.8723 54.3815 16.7475 54.349 16.6102C54.3164 16.4728 54.325 16.3289 54.3736 16.1964C54.4222 16.0639 54.5087 15.9485 54.6224 15.8648C54.736 15.781 54.8718 15.7325 55.0127 15.7253C55.1091 15.7223 55.2051 15.7382 55.2953 15.7723C55.3855 15.8064 55.4681 15.8579 55.5383 15.9239C55.6086 15.9899 55.6651 16.0691 55.7048 16.157C55.7444 16.2449 55.7663 16.3397 55.7693 16.4361Z" fill="#0D1A2E"/>
<path d="M52.2524 16.0142L52.3671 20.3472L54.6459 19.6411L52.2524 16.0142Z" fill="#7D3336"/>
<path d="M49.8409 25.7942C48.0068 25.5558 44.2148 24.4691 43.6279 22.9697C43.8623 23.7283 44.325 24.396 44.9531 24.8818C46.0856 25.8492 49.8409 26.9405 49.8409 26.9405V25.7942Z" fill="#7D3336"/>
<path d="M106 105.582L70.7306 85.1959V54.0303L69.9878 53.6038V43.2046L106 63.9985V105.582Z" fill="#DE4589"/>
<path opacity="0.1" d="M106 105.582L70.7306 85.1959V54.0303L69.9878 53.6038V43.2046L106 63.9985V105.582Z" fill="#0D1A2E"/>
<path opacity="0.15" d="M106 74.3932L93.3722 67.1027L93.3676 56.6897L92.501 56.2037L92.4964 66.5983L70.7305 54.0303V55.525L92.4964 68.0885L92.4918 97.7823L93.3768 98.2912L93.3722 68.5929L106 75.8833V74.3932Z" fill="#0D1A2E"/>
<path d="M106 105.582L141.077 85.3426V54.1403L142.012 53.6038V43.2046L106 63.9985V105.582Z" fill="#DE4589"/>
<path opacity="0.1" d="M141.077 54.1401L119.503 66.5981L119.499 56.2035L118.632 56.6895V67.1025L106 74.393V75.8832L118.628 68.5973L118.623 98.291L119.508 97.7821L119.503 68.0975L141.077 55.6533V54.1401Z" fill="#0D1A2E"/>
<path d="M142.012 43.2046L106 22.4153L69.9878 43.2046L106 63.9985L142.012 43.2046Z" fill="#DE4589"/>
<path opacity="0.4" d="M142.012 43.2046L106 22.4153L69.9878 43.2046L106 63.9985L142.012 43.2046Z" fill="white"/>
<path opacity="0.15" d="M99.9384 43.6172L82.7256 35.8682L83.4913 35.4097L100.851 43.2091" fill="#0D1A2E"/>
<path opacity="0.15" d="M112.057 43.6172L129.27 35.8682L128.5 35.4097L111.14 43.2091" fill="#0D1A2E"/>
<path opacity="0.15" d="M119.499 56.2036L106.72 46.7168V46.7122L106 46.1758L105.996 46.1804V46.1758L105.271 46.7122L105.276 46.7168L92.4922 56.2036L93.3634 56.6896L105.996 47.2533L118.632 56.6896L119.499 56.2036Z" fill="#0D1A2E"/>
<path d="M128.509 51.0039V93.6188L119.508 98.8184L119.499 56.2035L128.509 51.0039Z" fill="#25497D"/>
<path d="M119.508 98.8185L118.623 98.2912L119.508 97.7822V98.8185Z" fill="#0D1A2E"/>
<path d="M83.4912 51.0039V93.6188L92.492 98.8184L92.5011 56.2035L83.4912 51.0039Z" fill="#0D1A2E"/>
<path d="M92.4922 98.8185L93.3771 98.2912L92.4922 97.7822V98.8185Z" fill="#0D1A2E"/>
<path d="M92.5011 56.2037L106.005 46.1805L111.154 43.2047L128.509 35.4098L119.508 30.2102L106.005 40.2335L100.86 43.2093L83.4912 51.0041L92.5011 56.2037Z" fill="#25497D"/>
<path d="M100.86 43.2092L99.9429 43.6173L102.974 44.9608L105.28 46.7123L106.005 46.1759L103.753 44.5068L100.86 43.2092Z" fill="#0D1A2E"/>
<path d="M119.499 56.2037L103.753 44.5069L83.4912 35.4098L92.4965 30.2102L108.256 41.9071L128.509 51.0041L119.499 56.2037Z" fill="#25497D"/>
<path d="M103.176 41.499C103.176 41.499 92.5977 50.2797 75.3252 48.2805C75.3252 48.2805 82.6615 53.0812 91.6302 51.9945C91.6302 51.9945 90.3417 55.2684 82.7853 59.2529C82.7853 59.2529 101.663 59.4272 106.541 43.7549L103.176 41.499Z" fill="#25497D"/>
<path d="M93.23 57.2445C98.4571 55.2821 104.161 51.4121 106.527 43.7686L103.162 41.5127C101.116 43.063 98.8804 44.3436 96.5084 45.323C96.5084 45.323 100.177 46.9278 103.918 45.9374C103.07 48.4881 101.674 50.8222 99.8273 52.7756C97.9808 54.729 95.729 56.2544 93.23 57.2445Z" fill="#0D1A2E"/>
<path d="M79.7222 30.0129C79.7222 30.0129 81.8223 27.5553 88.2645 28.6649C92.1527 29.3389 98.7554 33.8691 102.02 41.4163C102.433 42.37 103.359 42.691 103.854 43.3329C103.969 43.4767 104.095 43.6116 104.23 43.7364L106.271 43.7594C106.271 36.7073 102.314 29.5911 98.572 25.4736C94.8305 21.3561 88.668 19.3432 84.2753 19.1873C82.7176 19.1153 81.1651 19.4139 79.7452 20.0585C78.5484 23.3919 78.0532 26.6978 79.7222 30.0129Z" fill="#25497D"/>
<path d="M101.571 40.4673C101.571 40.4673 105.239 39.2293 103.73 33.3511C105.313 36.5994 106.175 40.1515 106.257 43.7641L104.216 43.7411C104.081 43.6163 103.956 43.4814 103.84 43.3376C103.345 42.6957 102.419 42.3748 102.006 41.421C101.873 41.0909 101.722 40.7791 101.571 40.4673Z" fill="#0D1A2E"/>
<path d="M83.482 34.5293C81.9365 33.2915 80.6576 31.7536 79.7222 30.0083C78.0486 26.6932 78.5438 23.3873 79.7222 20.0447C75.944 21.7137 73.6881 26.6244 72.8444 30.5906C72.3859 32.8099 72.3308 34.7173 72.7068 35.6344C73.766 38.1287 79.9698 48.207 106.541 43.7685L106.514 40.9761C99.8604 40.5635 88.2415 38.5368 83.482 34.5293Z" fill="#25497D"/>
<path d="M79.7222 30.0129C79.7222 30.0129 79.4059 22.2456 84.2753 19.1873C82.7176 19.1153 81.1651 19.4139 79.7452 20.0585C78.5484 23.3919 78.0532 26.6978 79.7222 30.0129Z" fill="#0D1A2E"/>
<path d="M108.825 41.4989C108.825 41.4989 119.403 50.2796 136.675 48.2804C136.675 48.2804 129.339 53.0811 120.37 51.9944C120.37 51.9944 121.659 55.2683 129.215 59.2528C129.215 59.2528 110.338 59.427 105.459 43.7548L108.825 41.4989Z" fill="#25497D"/>
<path d="M108.081 45.9282C111.805 46.9186 115.491 45.3138 115.491 45.3138L114.799 45.002L114.693 44.9561L114.079 44.6673L113.941 44.6031L113.382 44.3234C113.335 44.3017 113.289 44.2772 113.244 44.25C113.066 44.1629 112.896 44.0712 112.726 43.9841L112.589 43.9107L112.13 43.6494L111.997 43.576L111.566 43.3284L111.447 43.2596L111.043 43.0303L110.933 42.9662L110.585 42.7461L110.484 42.6819L110.177 42.4801L110.085 42.4205L109.819 42.2417L109.741 42.1867L109.517 42.0308L109.448 41.9803L109.269 41.8519L109.209 41.8061L109.076 41.7052L109.017 41.6594L108.934 41.5998L108.879 41.5585L108.852 41.531L108.82 41.5081L107.719 42.2463L105.454 43.764C110.328 59.4362 129.205 59.262 129.21 59.262C119.499 58.8034 109.296 51.435 108.081 45.9282Z" fill="#0D1A2E"/>
<path d="M132.278 30.0129C132.278 30.0129 130.178 27.5553 123.736 28.6649C119.847 29.3389 113.245 33.8691 109.98 41.4163C109.567 42.37 108.641 42.691 108.146 43.3329C108.031 43.4767 107.905 43.6116 107.77 43.7364L105.729 43.7594C105.729 36.7073 109.687 29.5911 113.428 25.4736C117.17 21.3561 123.332 19.3432 127.725 19.1873C129.282 19.1153 130.835 19.4139 132.255 20.0585C133.452 23.3919 133.97 26.6978 132.278 30.0129Z" fill="#25497D"/>
<path d="M110.429 40.4671C110.429 40.4671 106.761 39.2291 108.27 33.3508C106.687 36.5992 105.825 40.1513 105.743 43.7638L107.784 43.7409C107.919 43.616 108.045 43.4811 108.16 43.3374C108.655 42.6955 109.581 42.3745 109.994 41.4208C110.127 41.0907 110.278 40.7789 110.429 40.4671Z" fill="#0D1A2E"/>
<path d="M128.518 34.5293C130.063 33.2915 131.342 31.7536 132.278 30.0083C133.951 26.6932 133.456 23.3873 132.278 20.0447C136.056 21.7137 138.312 26.6244 139.156 30.5906C139.614 32.8099 139.669 34.7173 139.293 35.6344C138.234 38.1287 132.03 48.207 105.459 43.7685L105.486 40.9761C112.14 40.5635 123.759 38.5368 128.518 34.5293Z" fill="#25497D"/>
<path d="M132.278 30.0129C132.278 30.0129 132.594 22.2456 127.725 19.1873C129.282 19.1153 130.835 19.4139 132.255 20.0585C133.452 23.3919 133.97 26.6978 132.278 30.0129Z" fill="#0D1A2E"/>
<path d="M109.668 41.916C109.639 41.6462 109.539 41.389 109.378 41.1706C109.216 40.9523 109 40.7807 108.751 40.6734C107.868 40.3636 106.934 40.2296 106 40.2791C105.039 40.2296 104.08 40.3859 103.184 40.7376C102.955 40.8479 102.758 41.0157 102.613 41.2245C102.467 41.4334 102.378 41.6763 102.355 41.9297C102.258 42.7642 102.199 44.1765 102.749 44.9789C103.655 45.7554 104.816 46.1715 106.009 46.1481C107.197 46.1739 108.353 45.7572 109.251 44.9789C109.796 44.1627 109.741 42.7505 109.668 41.916Z" fill="#25497D"/>
<path d="M44.9022 57.2168C35.4338 42.9339 30.8578 31.1911 38.5288 30.1641C40.8718 30.7097 42.5225 33.4104 44.5675 39.4308C44.5675 39.4308 48.763 48.5186 50.6475 52.4069C54.1781 55.2359 60.9779 61.5773 64.4031 63.0125C65.0129 63.2601 65.907 62.7282 66.526 62.5081C68.1951 61.9258 69.1579 62.3338 70.7857 62.1917C72.0604 62.0816 72.7115 61.6369 72.8674 61.912C73.0568 62.2272 73.1148 62.6042 73.0291 62.9618C72.9433 63.3194 72.7206 63.629 72.4089 63.824C71.9182 64.1988 71.335 64.4333 70.7215 64.5026C70.7215 64.5026 71.4918 65.085 74.4538 65.0758C77.7781 65.0758 79.0712 65.9607 76.4484 69.2988C74.8023 71.385 72.1979 72.0178 66.361 69.9178C64.2002 69.1863 62.0948 68.3006 60.0609 67.2675C56.0489 65.0666 57.4703 65.9882 54.3156 63.9891C51.7617 62.3705 45.8239 58.6198 44.9022 57.2168Z" fill="#9C5456"/>
<path d="M167.098 57.2171C178.359 41.8842 182.523 31.407 174.847 30.3799C172.509 30.9255 170.853 33.6308 168.808 39.6512C168.808 39.6512 163.237 48.5235 161.357 52.4118C157.822 55.2409 151.022 61.5822 147.602 63.0173C146.997 63.2649 146.098 62.7331 145.479 62.513C143.81 61.9307 142.847 62.3387 141.219 62.1966C139.945 62.0866 139.293 61.6418 139.138 61.9169C138.948 62.2321 138.89 62.6091 138.976 62.9667C139.062 63.3243 139.284 63.6339 139.596 63.8289C140.087 64.2037 140.67 64.4382 141.283 64.5075C141.283 64.5075 140.513 65.0899 137.551 65.0807C134.231 65.0807 132.938 65.9656 135.556 69.3037C137.203 71.3899 139.807 72.0227 145.644 69.9227C147.805 69.1912 149.91 68.3055 151.944 67.2724C155.961 65.0715 154.535 65.9931 157.689 63.994C160.243 62.3708 166.112 58.5605 167.098 57.2171Z" fill="#FFB3B2"/>
<path d="M173.861 30.123C173.861 30.123 176.58 30.123 177.951 31.4619C179.322 32.8008 179.836 35.2631 178.451 39.0458C177.066 42.8286 173.284 49.0187 173.284 49.0187C173.284 49.0187 168.827 49.2617 164.865 45.245L168.818 37.8812C168.818 37.8812 170.345 32.3377 173.861 30.123Z" fill="#DE4589"/>
<path opacity="0.1" d="M173.861 30.123C173.861 30.123 176.58 30.123 177.951 31.4619C179.322 32.8008 179.836 35.2631 178.451 39.0458C177.066 42.8286 173.284 49.0187 173.284 49.0187C173.284 49.0187 168.827 49.2617 164.865 45.245L168.818 37.8812C168.818 37.8812 170.345 32.3377 173.861 30.123Z" fill="#0D1A2E"/>
</svg>
