<svg width="306" height="269" viewBox="0 0 306 269" fill="none" xmlns="http://www.w3.org/2000/svg">
<path d="M243 0.111361C263 0.111361 278.667 7.77803 290 23.1114C300.667 38.4447 306 60.778 306 90.1113C306 130.111 297 164.778 279 194.111C261 223.445 234.667 248.111 200 268.111L176 229.111C201.333 212.445 220.333 194.445 233 175.111C245.667 156.445 252 133.111 252 105.111C250 105.778 247 106.111 243 106.111C229.667 106.111 217.667 101.778 207 93.1114C195.667 84.4447 190 71.778 190 55.1113C190 37.778 195 24.1114 205 14.1114C215 4.77803 227.667 0.111361 243 0.111361ZM67 0.111361C87 0.111361 102.667 7.77803 114 23.1114C124.667 38.4447 130 60.778 130 90.1113C130 130.111 121 164.778 103 194.111C85 223.445 58.6667 248.111 24 268.111L-5.48363e-06 229.111C25.3333 212.445 44.3333 194.445 57 175.111C69.6667 156.445 76 133.111 76 105.111C74 105.778 71 106.111 67 106.111C53.6667 106.111 41.6667 101.778 31 93.1114C19.6667 84.4447 14 71.778 14 55.1113C14 37.778 19 24.1114 29 14.1114C39 4.77803 51.6667 0.111361 67 0.111361Z" fill="white"/>
</svg>
